<?xml version="1.0" encoding="UTF-8" standalone="no"?>
<!-- Created with Inkscape (http://www.inkscape.org/) -->

<svg
   xmlns:dc="http://purl.org/dc/elements/1.1/"
   xmlns:cc="http://creativecommons.org/ns#"
   xmlns:rdf="http://www.w3.org/1999/02/22-rdf-syntax-ns#"
   xmlns:svg="http://www.w3.org/2000/svg"
   xmlns="http://www.w3.org/2000/svg"
   xmlns:sodipodi="http://sodipodi.sourceforge.net/DTD/sodipodi-0.dtd"
   xmlns:inkscape="http://www.inkscape.org/namespaces/inkscape"
   width="48px"
   height="48px"
   id="svg29240"
   version="1.1"
   inkscape:version="0.48.2 r9819"
   sodipodi:docname="New document 91">
  <defs
     id="defs29242">
    <filter
       color-interpolation-filters="sRGB"
       id="filter3812-5"
       inkscape:collect="always">
      <feGaussianBlur
         id="feGaussianBlur3814-9"
         stdDeviation="12.372394"
         inkscape:collect="always" />
    </filter>
  </defs>
  <sodipodi:namedview
     id="base"
     pagecolor="#ffffff"
     bordercolor="#666666"
     borderopacity="1.0"
     inkscape:pageopacity="0.0"
     inkscape:pageshadow="2"
     inkscape:zoom="0.93762503"
     inkscape:cx="24"
     inkscape:cy="24"
     inkscape:current-layer="layer1"
     showgrid="true"
     inkscape:grid-bbox="true"
     inkscape:document-units="px"
     inkscape:window-width="483"
     inkscape:window-height="424"
     inkscape:window-x="67"
     inkscape:window-y="41"
     inkscape:window-maximized="0" />
  <metadata
     id="metadata29245">
    <rdf:RDF>
      <cc:Work
         rdf:about="">
        <dc:format>image/svg+xml</dc:format>
        <dc:type
           rdf:resource="http://purl.org/dc/dcmitype/StillImage" />
        <dc:title></dc:title>
      </cc:Work>
    </rdf:RDF>
  </metadata>
  <g
     id="layer1"
     inkscape:label="Layer 1"
     inkscape:groupmode="layer">
    <g
       id="layer1-3"
       inkscape:label="Layer 1"
       transform="matrix(0.05205642,0,0,0.05205642,6.2987818,-14.908226)"
       inkscape:export-filename="/Users/Emanuele/Documents/Progetto Liquid Feedback GitHub Wiki/BOX PROPOSTE DESIGN.png"
       inkscape:export-xdpi="170.1348"
       inkscape:export-ydpi="170.1348">
      <path
         sodipodi:nodetypes="ssccsccscscsssssccsssssscsscsccsccss"
         inkscape:connector-curvature="0"
         id="path3779"
         d="m 182.64287,519.49272 c -16.87438,0 -30.55811,13.76273 -30.55811,30.74132 0,13.20577 8.2778,24.46372 19.89534,28.8164 l 0,6.06084 c -27.70365,2.16338 -39.81563,13.20643 -41.55494,32.85133 l -6.46596,73.03281 c 6.7457,10.80794 13.49154,5.143 20.23723,0 l 6.46611,-65.13104 c 0.29095,-2.93103 1.31626,-5.66993 3.55934,-7.9101 l -5.22253,83.82286 c -0.18117,2.90765 1.12074,5.62235 3.05723,7.91246 -0.3362,1.80554 -0.42098,3.78764 -0.52638,5.86447 l -4.62918,91.15132 c -0.49482,9.74523 3.54981,17.61705 7.9633,17.61705 l 10.24309,0 c 4.41349,0 7.82733,-7.85845 7.96331,-17.61705 l 1.25488,-90.05241 16.05283,0 c 0,0.004 -6e-5,0.007 0,0.01 l 1.12141,91.31639 c 0.1198,9.75786 3.54982,17.61705 7.9633,17.61705 l 10.2431,0 c 4.41349,0 8.4431,-7.87248 7.9633,-17.61705 l -4.49572,-91.31628 c -0.13558,-2.75239 -0.32518,-5.33171 -0.89596,-7.5628 1.6441,-2.16055 2.75131,-4.66116 2.58615,-7.32306 l -5.22253,-84.15064 c -0.0441,-0.70965 -0.081,-1.40643 -0.23311,-2.08474 4.07134,2.53037 6.1924,6.23722 6.62921,10.32283 l 6.96338,65.13105 c 8.53904,8.06385 14.46443,6.2329 19.22703,0 l -6.96339,-73.03258 c -1.91244,-20.05773 -14.46687,-31.14924 -43.38903,-32.96902 l 0,-5.44722 c 12.36069,-3.9384 21.31755,-15.57205 21.31755,-29.31232 0,-16.97859 -13.67602,-30.74132 -30.55025,-30.74132 z"
         style="fill:#0084c8;fill-opacity:1;stroke:#16150e;stroke-width:0;stroke-linecap:round;stroke-miterlimit:4;stroke-opacity:1;stroke-dasharray:none;stroke-dashoffset:0" />
      <path
         transform="matrix(0.27477058,0,0,0.22562828,249.71561,614.24176)"
         inkscape:connector-curvature="0"
         id="path3791"
         d="m 216.21875,761.93304 c -17.74669,0 -31.54936,15.74461 -32.03125,35.26476 l -4.5,182.65726 -64.5625,0 -5.03125,-180.14638 C 109.54704,780.18895 95.80919,764.48139 78.0625,764.48139 l -41.1875,0 c -17.746683,0 -33.989823,15.73464 -32,35.22729 l 18.59375,182.35739 c 0.424088,4.15472 0.773079,8.11829 2.125,11.73 -7.786785,4.5814 -13.009705,10.03563 -12.28125,15.85223 l 21,167.667 C 25.293168,1172.8337 21.17011,1167.3642 20,1161.5004 L -6,1031.1969 c -27.125,-10.2881 -54.25,-21.6205 -81.375,0 l 2.53125,14.166 c -6.085225,2.6181 -11.279686,7.2945 -14.4375,13.229 -9.56216,-5.9657 -20.30583,-9.6931 -32.96875,-9.8188 l 5.625,-56.77587 c 1.74616,-17.64327 -12.93758,-31.89189 -29,-31.89189 l -37.25,0 c -5.99741,0 -11.50387,1.99061 -16.0625,5.39653 l 13.5625,-136.82436 c 1.9021,-19.22013 -14.09665,-34.77758 -31.59375,-34.77758 l -40.59375,0 c -17.4972,0 -31.08741,15.53193 -31.5625,34.77758 l -3.4375,138.66062 c -4.41598,-3.10721 -9.66921,-4.9094 -15.375,-4.9094 l -37.25,0 c -4.65026,0 -9.19309,1.20978 -13.25,3.33541 l -3.75,-134.57575 c -0.53903,-19.24551 -14.09658,-34.77758 -31.59375,-34.77758 l -40.59375,0 c -17.49715,0 -33.52433,15.55872 -31.5625,34.77758 l 18.34375,179.77161 c 0.41809,4.0959 0.76087,7.9816 2.09375,11.5426 -7.67725,4.5169 -12.84322,9.8926 -12.125,15.6273 l 19.5,155.8622 c -2.73111,0.6568 -5.45639,1.5752 -8.1875,2.8107 -2.62714,-2.8078 -4.09522,-5.8321 -4.71875,-8.9568 l -25.625,-128.4672 c -26.74356,-10.1434 -53.50644,-21.3165 -80.25,0 l 25.625,144.0571 c 4.87329,27.3836 30.3355,46.2718 83.59375,56.5136 l 9.9375,55.8765 c -4.9224,6.5988 -7.65625,13.7154 -7.65625,21.1738 0,33.4871 54.25813,60.636 121.15625,60.636 11.81663,0 23.23477,-0.8568 34.03125,-2.4361 2.41403,0.1161 4.82994,0.241 7.3125,0.3374 l 0,10.9805 c -42.28085,7.8807 -72.40625,28.2561 -72.40625,52.1663 0,30.7411 49.80613,55.6516 111.21875,55.6516 61.41208,0 111.1875,-24.9105 111.1875,-55.6516 0,-24.8778 -32.60825,-45.9349 -77.59375,-53.0658 l 0,-9.8562 c 20.76595,-0.6499 39.17973,-1.9824 55.46875,-3.9348 l 3.5,19.7497 c 6.244,35.0851 49.7021,54.8234 149.15625,58.6871 l 0,10.8305 c -41.70596,7.7737 -71.40625,27.8693 -71.40625,51.4544 0,30.3233 49.109842,54.9021 109.6875,54.9021 60.577575,-10e-5 109.6875,-24.5788 109.6875,-54.9021 0,-24.5396 -32.15703,-45.32 -76.53125,-52.3538 l 0,-9.7438 c 103.82871,-3.25 148.88423,-23.0519 155.75,-58.8744 l 8,-41.7107 4.6875,26.3456 c 5.85072,32.8748 46.59244,51.3566 139.78125,54.9771 l 0,10.1559 c -39.07861,7.2841 -66.90625,26.1322 -66.90625,48.2313 0,28.4132 46.01949,51.4169 102.78125,51.4169 56.7611,10e-5 102.78125,-23.0036 102.78125,-51.4169 0,-22.9936 -30.14025,-42.465 -71.71875,-49.0557 l 0,-9.1442 c 21.02822,-0.6583 39.48421,-2.0195 55.5625,-4.1224 21.0022,18.8374 61.22037,31.5547 107.375,31.5547 l 0,0.037 c 45.47125,2e-4 85.13527,-12.3885 106.375,-30.7676 19.75963,3.4525 43.3021,5.7035 71.09375,6.7831 l 0,11.2803 c -43.34805,8.0798 -74.21875,28.9645 -74.21875,53.4779 0,31.5176 51.06838,57.0758 114.03125,57.0758 62.96251,0 113.96875,-25.5582 113.96875,-57.0758 0,-25.5056 -33.41003,-47.104 -79.53125,-54.4149 l 0,-10.1183 c 107.9165,-3.3781 154.7699,-23.9652 161.9062,-61.1982 l 1.125,-5.8462 c 39.3839,-10.007 66.375,-30.4907 66.375,-54.1151 0,-19.4781 -18.3295,-36.8015 -46.8437,-47.8941 l 4.4375,-23.0478 c 84.9601,-7.301 123.3267,-28.2914 129.9062,-62.622 l 27.625,-144.0571 c -18.8812,-12.2934 -42.3657,-15.9045 -76.2187,0 l -27.625,128.4672 c -1.7317,8.0579 -10.1401,15.3588 -26.2813,20.3493 0.6033,-1.3377 0.7629,-2.6851 0.9376,-4.0849 l 20.6874,-165.9804 c 0.6549,-5.2499 -3.7319,-10.2043 -10.25,-14.4658 2.263,-4.4003 3.0253,-9.4868 3.5626,-14.9152 l 17.8124,-180.07152 c 1.9022,-19.21999 -14.0653,-34.77758 -31.5624,-34.77758 l -40.5938,0 c -17.4972,0 -31.11866,15.53208 -31.59375,34.77758 l -4.4375,180.07152 c -1.7e-4,0.01 0,0.023 0,0.037 l -63.625,0 -5,-177.59802 C 918.67972,808.86908 905.15342,793.337 887.65625,793.337 l -40.59375,0 c -17.49716,0 -33.55558,15.55887 -31.59375,34.77758 l 18.375,179.77162 c 0.41809,4.096 0.72962,7.9814 2.0625,11.5425 -7.67726,4.5169 -12.81197,9.8927 -12.09375,15.6275 l 12.5625,100.4727 c -5.38861,-3.4659 -11.14724,-6.2681 -17.40625,-8.0948 L 804.75,1056.3058 c -8.6492,-3.2807 -17.28829,-6.6323 -25.9375,-8.9943 l -0.0937,-3.7851 C 778.21143,1025.4129 765.4679,1010.8475 749,1010.8475 l -21.8125,0 L 738,901.71793 c 1.92922,-19.49435 -14.28457,-35.22729 -32.03125,-35.22729 l -41.1875,0 c -17.74669,0 -31.51811,15.70701 -32,35.22729 l -4.53125,182.69477 -64.53125,0 -5.0625,-180.14641 c -0.54671,-19.51973 -14.25331,-35.22729 -32,-35.22729 l -41.1875,0 c -17.74668,0 -34.02108,15.73477 -32.03125,35.22729 l 14.71875,144.46941 -8.40625,0 c -14.84605,0 -26.37841,13.1639 -26.78125,29.4935 l -1.3125,53.403 c -19.7806,-7.2621 -39.56315,-12.6502 -59.34375,-2.9981 l -0.34375,-12.7791 16.21875,-84.6581 c -19.15054,-12.4686 -42.97669,-16.1311 -77.3125,0 l -4.28125,19.8623 c -13.56265,1.6907 -25.20242,14.1571 -23.65625,29.306 l 5.59375,54.8273 -5.65625,26.3079 c -1.75641,8.173 -10.28498,15.5874 -26.65625,20.6493 0.61187,-1.357 0.76039,-2.7775 0.9375,-4.1974 l 21,-168.304 c 0.66427,-5.3248 -3.79525,-10.33099 -10.40625,-14.653 2.29535,-4.46305 3.04886,-9.63412 3.59375,-15.14024 L 289.4375,797.1978 c 1.92922,-19.49421 -14.28457,-35.26476 -32.03125,-35.26476 l -41.1875,0 z m -318.125,317.60776 12.03125,117.6741 c -5.442799,1.563 -11.19771,3.7083 -17.34375,6.5958 l -15.75,73.2652 c -8.20569,-2.9767 -16.41926,-5.5158 -24.625,-6.4833 l 4.6875,-37.6631 c 9.53822,-8.3873 15.12067,-18.2201 17.28125,-29.4936 l 23.71875,-123.8951 z m 938.46875,57.2631 7.125,57.1132 -0.125,5.9586 c -8.22573,-4.3247 -12.04506,-9.5343 -13.15625,-15.1027 l -1.5625,-7.795 7.71875,-40.1741 z m -461.9375,74.5019 3.53125,19.7498 -2.96875,0 -0.5625,-19.7498 z m -378.78125,16.5269 c 9.230471,2.8949 19.642177,5.385 31.34375,7.4953 l -31.125,0 -0.21875,-7.4953 z m 302.28125,1.3117 0.375,3.7475 c 0.35434,3.4756 0.65002,6.7975 1.78125,9.8187 -6.51425,3.8326 -10.89067,8.3631 -10.28125,13.229 l 17.5625,140.3095 c -7.54498,-3.7488 -10.99023,-8.3611 -11.96875,-13.2663 l -21.75,-108.9798 c -16.27851,-6.1743 -32.56511,-12.7962 -48.84375,-9.3691 -11.58006,-4.6119 -24.84454,-8.2048 -39.28125,-10.4932 l 0,-10.9054 c 48.27766,-1.5113 85.16513,-6.231 112.40625,-14.0909 z m -679.34375,38.8625 c 1.5681,0.069 3.09342,0.1628 4.6875,0.2247 l 0,11.9548 c -0.73501,0.137 -1.45931,0.2685 -2.1875,0.4123 l -2.5,-12.5918 z m 1083.1875,74.6519 6,48.1189 c -3.52309,-3.6789 -7.7406,-7.1518 -12.59375,-10.3808 -0.10635,-0.3854 -0.2036,-0.7726 -0.28125,-1.1617 l -6.96875,-34.9276 c 4.76542,-0.5017 9.39006,-1.0534 13.84375,-1.6488 z m -201.34375,0.8994 c 7.23924,0.8583 14.85716,1.5828 22.875,2.211 l -5.25,24.4342 c -8.57709,3.6003 -16.15406,7.7719 -22.5,12.4045 l 4.875,-39.0497 z m -582.46875,22.3356 5.71875,45.7205 c -8.052374,-4.0008 -11.705357,-8.8936 -12.75,-14.1285 l -4.8125,-24.1719 c 4.42512,-2.2986 8.386759,-4.7791 11.84375,-7.4201 z m 209.53125,7.4951 c 6.79401,0.5829 13.78037,0.8994 20.90625,0.8994 0.74531,0 1.4766,-0.031 2.21875,-0.037 l -5,23.2351 c -1.56846,7.2965 -9.19674,13.9187 -23.8125,18.4381 0.54606,-1.2115 0.68558,-2.4802 0.84375,-3.7476 l 4.84375,-38.7874 z m 787.90625,17.5012 c 3.9098,0.7153 7.91366,1.3228 12,1.8364 -3.57577,2.1142 -7.99797,4.0155 -13.3125,5.6587 0.56766,-1.2589 0.71063,-2.5426 0.875,-3.8599 l 0.4375,-3.6352 z"
         style="fill:#000000;fill-opacity:1;stroke:#16150e;stroke-width:0;stroke-linecap:round;stroke-miterlimit:4;stroke-opacity:1;stroke-dasharray:none;stroke-dashoffset:0;filter:url(#filter3812-5)" />
      <path
         sodipodi:nodetypes="ssccsccscscsssssccsssssscsscsccsccss"
         inkscape:connector-curvature="0"
         id="path3789"
         d="m 473.49575,485.05943 c -17.30034,0 -31.32951,14.11014 -31.32951,31.51741 0,13.53909 8.48682,25.08125 20.39759,29.54377 l 0,6.21383 c -28.403,2.21802 -40.82076,13.53983 -42.60397,33.68067 l -6.62919,74.87648 c 6.91601,11.08073 13.83212,5.27282 20.74813,0 l 6.62932,-66.77522 c 0.2983,-3.00507 1.34952,-5.81308 3.6492,-8.10981 l -5.35436,85.93893 c -0.18574,2.98104 1.14902,5.76421 3.13444,8.1122 -0.34472,1.85105 -0.43165,3.88326 -0.53973,6.01243 l -4.74602,93.45268 c -0.50732,9.99058 3.63944,18.06157 8.16433,18.06157 l 10.50168,0 c 4.52489,0 8.02493,-8.05715 8.16433,-18.06157 l 1.28653,-92.32601 16.45807,0 c 0,0.005 -5e-5,0.007 0,0.01 l 1.14975,93.62118 c 0.12283,10.00438 3.63943,18.06204 8.16433,18.06204 l 10.50169,0 c 4.52488,0 8.65623,-8.07106 8.16432,-18.06204 l -4.60923,-93.62093 c -0.13898,-2.82191 -0.33336,-5.46633 -0.91856,-7.75376 1.68559,-2.21506 2.82078,-4.7788 2.65144,-7.50789 l -5.35439,-86.27487 c -0.0452,-0.72758 -0.083,-1.44195 -0.239,-2.13738 4.17416,2.59425 6.34875,6.39466 6.79657,10.58335 l 7.13919,66.77525 c 8.75455,8.26744 14.82915,6.3903 19.71251,0 l -7.13928,-74.87647 c -1.96085,-20.56403 -14.83212,-31.93548 -44.4844,-33.80122 l 0,-5.58471 c 12.67275,-4.03786 21.85573,-15.96518 21.85573,-30.05224 0,-17.40728 -14.02126,-31.51742 -31.32151,-31.51742 z"
         style="fill:#ff6600;fill-opacity:1;stroke:#16150e;stroke-width:0;stroke-linecap:round;stroke-miterlimit:4;stroke-opacity:1;stroke-dasharray:none;stroke-dashoffset:0" />
      <path
         style="fill:#9ade00;fill-opacity:1;stroke:#16150e;stroke-width:0;stroke-linecap:round;stroke-miterlimit:4;stroke-opacity:1;stroke-dasharray:none;stroke-dashoffset:0"
         d="m 360.49284,493.72082 c -15.59647,0 -28.24384,12.72045 -28.24384,28.41324 0,12.20562 7.65089,22.61101 18.38854,26.63402 l 0,5.60184 c -25.60554,1.99953 -36.80023,12.20629 -38.40784,30.36338 l -5.97623,67.50182 c 6.23475,9.98943 12.46977,4.75355 18.70457,0 l 5.97643,-60.19849 c 0.26887,-2.70916 1.21658,-5.24048 3.28973,-7.311 l -4.827,77.47476 c -0.16745,2.68742 1.03587,5.19643 2.82579,7.3132 -0.31083,1.66869 -0.38919,3.50076 -0.48654,5.42022 l -4.27866,84.24852 c -0.45731,9.00631 3.28094,16.28278 7.36019,16.28278 l 9.46736,0 c 4.07925,0 7.23453,-7.26394 7.3602,-16.28278 l 1.15993,-83.23283 14.83711,0 c 0,0.004 -6e-5,0.007 0,0.008 l 1.03643,84.40045 c 0.11069,9.01888 3.28095,16.28275 7.3602,16.28275 l 9.46738,0 c 4.07923,0 7.80367,-7.27594 7.3602,-16.28275 l -4.15517,-84.39975 c -0.12544,-2.54403 -0.30066,-4.92803 -0.82811,-6.99015 1.51956,-1.99683 2.54288,-4.30804 2.39026,-6.76837 l -4.82703,-77.77763 c -0.0408,-0.65589 -0.0748,-1.29991 -0.21543,-1.92688 3.76293,2.33879 5.7233,5.76488 6.12718,9.54091 l 6.43601,60.19849 c 7.89237,7.45328 13.3689,5.76104 17.77078,0 l -6.4359,-67.50172 c -1.76766,-18.53876 -13.37124,-28.79009 -40.10304,-30.47205 l 0,-5.03467 c 11.42456,-3.64023 19.70309,-14.39279 19.70309,-27.09242 0,-15.69278 -12.64032,-28.41324 -28.23659,-28.41324 z"
         id="path3785"
         inkscape:connector-curvature="0"
         sodipodi:nodetypes="ssccsccscscsssssccsssssscsscsccsccss" />
      <path
         sodipodi:nodetypes="ssccsccscscsssssccsssssscsscsccsccss"
         inkscape:connector-curvature="0"
         id="path3783"
         d="m 256.837,479.11533 c -16.64495,0 -30.14273,13.57564 -30.14273,30.3235 0,13.02622 8.16538,24.13116 19.62495,28.42461 l 0,5.97845 c -27.32706,2.13401 -39.27442,13.02696 -40.99009,32.40482 l -6.37805,72.04006 c 6.65399,10.66102 13.30814,5.07311 19.96213,0 l 6.37818,-64.2457 c 0.28704,-2.89129 1.29847,-5.59285 3.51102,-7.80256 l -5.15155,82.68346 c -0.1787,2.86811 1.1055,5.54583 3.01568,7.8049 -0.33164,1.78091 -0.41528,3.73615 -0.5193,5.78465 l -4.56621,89.91263 c -0.48808,9.61185 3.5016,17.37755 7.85508,17.37755 l 10.10387,0 c 4.35348,0 7.72095,-7.75231 7.85507,-17.37755 l 1.23773,-88.82864 15.83463,0 c 0,0.004 -4e-5,0.007 0,0.01 l 1.10623,90.07474 c 0.1182,9.62525 3.50159,17.37749 7.85507,17.37749 l 10.10384,0 c 4.35348,0 8.32832,-7.76507 7.85505,-17.37749 l -4.43459,-90.07419 c -0.1338,-2.71505 -0.3208,-5.25928 -0.88377,-7.46007 1.62173,-2.13112 2.71388,-4.59773 2.55098,-7.22347 l -5.15156,-83.00674 c -0.0434,-0.70001 -0.0799,-1.38732 -0.22993,-2.05642 4.01598,2.49599 6.10813,6.15244 6.53911,10.1824 l 6.86876,64.24571 c 8.42293,7.95436 14.26771,6.14829 18.96555,0 l -6.86861,-72.04003 c -1.88651,-19.7851 -14.27027,-30.72572 -42.79934,-32.52078 l 0,-5.37315 c 12.19273,-3.8849 21.02784,-15.3604 21.02784,-28.91383 0,-16.74786 -13.49011,-30.3235 -30.13504,-30.3235 z"
         style="fill:#ff9900;fill-opacity:1;stroke:#16150e;stroke-width:0;stroke-linecap:round;stroke-miterlimit:4;stroke-opacity:1;stroke-dasharray:none;stroke-dashoffset:0" />
      <path
         sodipodi:nodetypes="ssccsccscscsssssccsssssscsscsccsccss"
         inkscape:connector-curvature="0"
         id="path2985"
         d="m 290.54112,596.85088 c -18.64377,0 -33.76244,15.20589 -33.76244,33.96494 0,14.59048 9.14595,27.029 21.98165,31.83806 l 0,6.69639 c -30.6087,2.39019 -43.99078,14.59119 -45.91245,36.29614 l -7.14404,80.6911 c 7.45316,11.94117 14.90631,5.68226 22.35946,0 l 7.14403,-71.96071 c 0.32152,-3.23854 1.45441,-6.26454 3.93266,-8.73968 l -5.77018,92.61262 c -0.20016,3.21257 1.23825,6.21193 3.37782,8.74218 -0.37146,1.99484 -0.46515,4.18486 -0.58168,6.4794 l -5.11452,100.70991 c -0.54674,10.76595 3.9221,19.4643 8.79836,19.4643 l 11.3172,0 c 4.87626,0 8.64814,-8.68337 8.79836,-19.4643 l 1.38635,-99.49575 17.73614,0 c 0,0.005 -4e-5,0.007 0,0.0107 l 1.23909,100.8913 c 0.1324,10.78123 3.92208,19.4643 8.79835,19.4643 l 11.31719,0 c 4.87627,0 9.32845,-8.6974 8.79837,-19.4643 l -4.96726,-100.89126 c -0.14972,-3.04104 -0.35918,-5.89087 -0.98988,-8.35586 1.81651,-2.38712 3.0399,-5.14996 2.85738,-8.09096 l -5.77018,-92.97482 c -0.0487,-0.78412 -0.0895,-1.55393 -0.2576,-2.30334 4.49835,2.79567 6.84174,6.89122 7.32435,11.40524 l 7.69358,71.96071 c 9.43447,8.90942 15.98119,6.88653 21.2432,0 l -7.69357,-80.6911 c -2.11298,-22.1611 -15.98393,-34.41552 -47.93889,-36.42614 l 0,-6.01839 c 13.65691,-4.35152 23.553,-17.20504 23.553,-32.38604 0,-18.75905 -15.11009,-33.96493 -33.75385,-33.96493 z"
         style="fill:#ff4141;fill-opacity:1;stroke:#16150e;stroke-width:0;stroke-linecap:round;stroke-miterlimit:4;stroke-opacity:1;stroke-dasharray:none;stroke-dashoffset:0" />
      <path
         style="fill:#d76cff;fill-opacity:1;stroke:#16150e;stroke-width:0;stroke-linecap:round;stroke-miterlimit:4;stroke-opacity:1;stroke-dasharray:none;stroke-dashoffset:0"
         d="m 401.24142,623.0049 c -18.38163,0 -33.28772,14.99208 -33.28772,33.48736 0,14.38535 9.01733,26.64897 21.67257,31.39041 l 0,6.60225 c -30.17833,2.35658 -43.37225,14.38603 -45.2669,35.78579 l -7.04357,79.55654 c 7.34834,11.77327 14.6967,5.60235 22.04505,0 l 7.0436,-70.9489 c 0.31698,-3.19299 1.43394,-6.17646 3.87734,-8.61679 l -5.68905,91.31043 c -0.19734,3.1674 1.22084,6.12458 3.33033,8.61926 -0.36623,1.96678 -0.4586,4.12601 -0.57348,6.3883 l -5.04262,99.29383 c -0.53906,10.61472 3.86693,19.19063 8.67464,19.19063 l 11.15807,0 c 4.80772,0 8.52654,-8.56116 8.67465,-19.19063 l 1.36687,-98.09675 17.48677,0 c 0,0.004 -5e-5,0.007 0,0.0107 l 1.22165,99.4728 c 0.13054,10.62953 3.86693,19.19064 8.67465,19.19064 l 11.15808,0 c 4.80768,0 9.19728,-8.57519 8.67464,-19.19064 l -4.8974,-99.47274 c -0.14763,-2.99829 -0.35415,-5.80804 -0.97596,-8.2384 1.79096,-2.35353 2.99715,-5.07753 2.81719,-7.97715 l -5.68907,-91.66754 c -0.048,-0.77309 -0.0881,-1.53208 -0.25396,-2.27096 4.43509,2.75638 6.74556,6.79433 7.22138,11.24487 l 7.5854,70.9489 c 9.30181,8.78419 15.75647,6.78973 20.9445,0 l -7.58541,-79.55649 c -2.08325,-21.84943 -15.75915,-33.93156 -47.26481,-35.91391 l 0,-5.93377 c 13.46488,-4.29031 23.22182,-16.96311 23.22182,-31.93068 0,-18.49528 -14.89762,-33.48736 -33.27925,-33.48736 z"
         id="path3781"
         inkscape:connector-curvature="0"
         sodipodi:nodetypes="ssccsccscscsssssccsssssscsscsccsccss" />
      <path
         style="fill:#19aeff;fill-opacity:1;stroke:#16150e;stroke-width:0;stroke-linecap:round;stroke-miterlimit:4;stroke-opacity:1;stroke-dasharray:none;stroke-dashoffset:0"
         d="m 157.87319,583.94371 c -18.38164,0 -33.28772,14.99208 -33.28772,33.48736 0,14.38534 9.01733,26.64895 21.67256,31.3904 l 0,6.60224 c -30.17831,2.35659 -43.37224,14.38603 -45.26688,35.7858 l -7.043579,79.55653 c 7.348339,11.77326 14.696709,5.60237 22.045049,0 l 7.04361,-70.9489 c 0.31698,-3.19298 1.43394,-6.17645 3.87734,-8.61678 l -5.68904,91.31045 c -0.19735,3.16739 1.22084,6.12455 3.33032,8.61926 -0.36624,1.96678 -0.4586,4.12601 -0.57349,6.38827 l -5.04261,99.29377 c -0.53906,10.61473 3.86693,19.19063 8.67464,19.19063 l 11.15807,0 c 4.8077,0 8.52653,-8.56116 8.67465,-19.19063 l 1.36687,-98.09669 17.48676,0 c 0,0.004 -4e-5,0.007 0,0.0107 l 1.22165,99.4728 c 0.13054,10.62953 3.86694,19.19064 8.67465,19.19064 l 11.15809,0 c 4.80769,0 9.19728,-8.57519 8.67465,-19.19064 l -4.8974,-99.47274 c -0.14764,-2.99826 -0.35416,-5.80804 -0.97597,-8.23837 1.79096,-2.35353 2.99714,-5.07753 2.8172,-7.97718 l -5.68907,-91.66753 c -0.0479,-0.7731 -0.0882,-1.53208 -0.25397,-2.27095 4.4351,2.75636 6.74556,6.79431 7.22139,11.24486 l 7.58539,70.94888 c 9.30181,8.78418 15.75648,6.78974 20.9445,0 l -7.5854,-79.55647 C 213.1122,669.36 199.43628,657.27786 167.93062,655.29552 l 0,-5.93378 c 13.46489,-4.29032 23.22182,-16.96312 23.22182,-31.93067 0,-18.49528 -14.89762,-33.48736 -33.27924,-33.48736 z"
         id="path3787"
         inkscape:connector-curvature="0"
         sodipodi:nodetypes="ssccsccscscsssssccsssssscsscsccsccss" />
      <path
         sodipodi:nodetypes="ssccsccscscsssssccsssssscsscsccsccss"
         inkscape:connector-curvature="0"
         id="path3873"
         d="m 506.43929,590.73695 c -18.38163,0 -33.28772,14.99209 -33.28772,33.48737 0,14.38535 9.01734,26.64896 21.67257,31.39041 l 0,6.60223 c -30.17832,2.3566 -43.37224,14.38604 -45.26689,35.7858 l -7.04358,79.55655 c 7.34834,11.77326 14.69671,5.60234 22.04505,0 l 7.0436,-70.94891 c 0.31699,-3.19298 1.43394,-6.17647 3.87735,-8.61678 l -5.68904,91.31042 c -0.19736,3.16741 1.22083,6.12459 3.33031,8.61927 -0.36623,1.96678 -0.4586,4.12601 -0.57348,6.3883 l -5.04262,99.29383 c -0.53904,10.61472 3.86695,19.19063 8.67465,19.19063 l 11.15807,0 c 4.80771,0 8.52654,-8.56116 8.67465,-19.19063 l 1.36688,-98.09675 17.48676,0 c 0,0.004 -5e-5,0.007 0,0.0107 l 1.22165,99.4728 c 0.13054,10.62953 3.86693,19.19064 8.67466,19.19064 l 11.15808,0 c 4.80768,0 9.19729,-8.5752 8.67464,-19.19064 l -4.8974,-99.47274 c -0.14763,-2.99829 -0.35415,-5.80804 -0.97595,-8.2384 1.79095,-2.35354 2.99714,-5.07754 2.81719,-7.97715 l -5.68907,-91.66756 c -0.0479,-0.77308 -0.0882,-1.53206 -0.25397,-2.27095 4.4351,2.75637 6.74557,6.79433 7.22138,11.24486 l 7.5854,70.94891 c 9.30181,8.78418 15.75647,6.78974 20.9445,0 l -7.5854,-79.55649 C 561.6783,676.15324 548.0024,664.07112 516.49672,662.08876 l 0,-5.93378 c 13.4649,-4.2903 23.22184,-16.9631 23.22184,-31.93066 0,-18.49528 -14.89762,-33.48737 -33.27927,-33.48737 z"
         style="fill:#666666;fill-opacity:1;stroke:#16150e;stroke-width:0;stroke-linecap:round;stroke-miterlimit:4;stroke-opacity:1;stroke-dasharray:none;stroke-dashoffset:0" />
    </g>
  </g>
</svg>
