<?xml version="1.0" encoding="UTF-8" standalone="no"?>
<!-- Created with Inkscape (http://www.inkscape.org/) -->

<svg
   xmlns:dc="http://purl.org/dc/elements/1.1/"
   xmlns:cc="http://creativecommons.org/ns#"
   xmlns:rdf="http://www.w3.org/1999/02/22-rdf-syntax-ns#"
   xmlns:svg="http://www.w3.org/2000/svg"
   xmlns="http://www.w3.org/2000/svg"
   xmlns:xlink="http://www.w3.org/1999/xlink"
   version="1.1"
   width="280"
   height="70"
   id="svg2">
  <defs
     id="defs4">
    <linearGradient
       x1="200.5"
       y1="437.36218"
       x2="346.5"
       y2="583.36218"
       id="linearGradient20"
       xlink:href="#linearGradient8409"
       gradientUnits="userSpaceOnUse"
       gradientTransform="matrix(1.70776,0,0,1.70776,-342.181,-746.515)" />
    <linearGradient
       x1="200.5"
       y1="437.36218"
       x2="346.5"
       y2="583.36218"
       id="linearGradient11193"
       xlink:href="#linearGradient8409"
       gradientUnits="userSpaceOnUse" />
    <linearGradient
       id="linearGradient8409">
      <stop
         id="stop8411"
         style="stop-color:#ffffff;stop-opacity:0.65934098"
         offset="0" />
      <stop
         id="stop8413"
         style="stop-color:#ffffff;stop-opacity:0"
         offset="1" />
    </linearGradient>
  </defs>
  <metadata
     id="metadata7">
    <rdf:RDF>
      <cc:Work
         rdf:about="">
        <dc:format>image/svg+xml</dc:format>
        <dc:type
           rdf:resource="http://purl.org/dc/dcmitype/StillImage" />
        <dc:title></dc:title>
      </cc:Work>
    </rdf:RDF>
  </metadata>
  <g
     transform="translate(0,-982.3622)"
     id="layer1">
    <text
       x="64.979614"
       y="1033.5688"
       id="text2985"
       xml:space="preserve"
       style="font-size:48px;font-style:normal;font-weight:normal;line-height:125%;letter-spacing:0px;word-spacing:0px;fill:#000000;fill-opacity:1;stroke:none;font-family:Sans"><tspan
         x="64.979614"
         y="1033.5688"
         id="tspan2987"
         style="font-size:48px;font-style:normal;font-variant:normal;font-weight:normal;font-stretch:normal;font-family:Oregon LDO;-inkscape-font-specification:Oregon LDO">AGGIUNGI</tspan></text>
    <g
       transform="matrix(0.21589605,0,0,0.21589605,7.8333279,990.10552)"
       id="g3149">
      <path
         d="m 237.36756,125.1274 a 112.23832,112.2384 0 0 1 -224.47664,0 112.23832,112.2384 0 1 1 224.47664,0 z"
         id="path3134"
         style="fill:#d3d7cf;fill-opacity:1;fill-rule:evenodd;stroke:#4e9a06;stroke-width:24.17507362;stroke-linecap:round;stroke-linejoin:round;stroke-miterlimit:4;stroke-opacity:1;stroke-dasharray:none;stroke-dashoffset:0" />
      <path
         d="m 249.55784,125.06112 a 124.66648,124.66648 0 0 1 -249.33296,0 124.66648,124.66648 0 1 1 249.33296,0 z"
         id="path3136"
         style="fill:url(#linearGradient20);fill-opacity:1;fill-rule:evenodd;stroke:none" />
      <path
         d="m 111.31057,202.02168 0,-64.35384 -63.873587,0 0,-26.89414 63.873587,0 0,-63.873589 27.21431,0 0,63.873589 63.87358,0 0,26.89414 -63.87358,0 0,64.35384 -27.21431,0"
         id="path3138"
         style="fill:#4e9a06" />
    </g>
  </g>
</svg>
