<?xml version="1.0" encoding="UTF-8" standalone="no"?>
<!-- Created with Inkscape (http://www.inkscape.org/) -->

<svg
   xmlns:dc="http://purl.org/dc/elements/1.1/"
   xmlns:cc="http://creativecommons.org/ns#"
   xmlns:rdf="http://www.w3.org/1999/02/22-rdf-syntax-ns#"
   xmlns:svg="http://www.w3.org/2000/svg"
   xmlns="http://www.w3.org/2000/svg"
   xmlns:xlink="http://www.w3.org/1999/xlink"
   xmlns:sodipodi="http://sodipodi.sourceforge.net/DTD/sodipodi-0.dtd"
   xmlns:inkscape="http://www.inkscape.org/namespaces/inkscape"
   id="svg2"
   version="1.1"
   inkscape:version="0.48.2 r9819"
   width="224.005"
   height="224.005"
   xml:space="preserve"
   sodipodi:docname="logo_movimento5stelle.svg"><metadata
     id="metadata8"><rdf:RDF><cc:Work
         rdf:about=""><dc:format>image/svg+xml</dc:format><dc:type
           rdf:resource="http://purl.org/dc/dcmitype/StillImage" /><dc:title></dc:title></cc:Work></rdf:RDF></metadata><defs
     id="defs6"><linearGradient
       x1="17.59375"
       y1="1199.1406"
       x2="17.59375"
       y2="1269.8906"
       gradientUnits="userSpaceOnUse"
       gradientTransform="matrix(0.165344,0,0,-0.165344,35.525521,278.27131)"
       spreadMethod="pad"
       id="linearGradient30"><stop
         style="stop-opacity:1;stop-color:#f8ec09"
         offset="0"
         id="stop32" /><stop
         style="stop-opacity:1;stop-color:#f87409"
         offset="1"
         id="stop34" /></linearGradient><clipPath
       clipPathUnits="userSpaceOnUse"
       id="clipPath42"><path
         d="M 0,0 192,0 192,192 0,192 0,0 z"
         id="path44"
         inkscape:connector-curvature="0" /></clipPath><linearGradient
       x1="-56.589844"
       y1="1199.1406"
       x2="91.78125"
       y2="1199.1406"
       gradientUnits="userSpaceOnUse"
       gradientTransform="matrix(0.165344,0,0,-0.165344,224.23588,274.41732)"
       spreadMethod="pad"
       id="linearGradient46"><stop
         style="stop-opacity:0;stop-color:#ffffff"
         offset="0"
         id="stop48" /><stop
         style="stop-opacity:0;stop-color:#ffffff"
         offset="1"
         id="stop50" /></linearGradient><mask
       maskUnits="userSpaceOnUse"
       x="0"
       y="0"
       width="1"
       height="1"
       id="mask52"><g
         id="g54"><g
           clip-path="url(#clipPath42)"
           id="g56"><g
             id="g58"><path
               d="M 0,0 192,0 192,192 0,192 0,0 z"
               style="fill:url(#linearGradient46);fill-opacity:1;fill-rule:nonzero;stroke:none"
               id="path60"
               inkscape:connector-curvature="0" /></g></g></g></mask><clipPath
       clipPathUnits="userSpaceOnUse"
       id="clipPath66"><path
         d="M 0,0 192,0 192,192 0,192 0,0 z"
         id="path68"
         inkscape:connector-curvature="0" /></clipPath><linearGradient
       x1="-56.589844"
       y1="1199.1406"
       x2="91.78125"
       y2="1199.1406"
       gradientUnits="userSpaceOnUse"
       gradientTransform="matrix(0.165344,0,0,0.165344,224.23588,-82.417323)"
       spreadMethod="pad"
       id="linearGradient70"><stop
         style="stop-opacity:1;stop-color:#000000"
         offset="0"
         id="stop72" /><stop
         style="stop-opacity:1;stop-color:#7c7c7c"
         offset="1"
         id="stop74" /></linearGradient><linearGradient
       x1="17.59375"
       y1="1199.1406"
       x2="17.59375"
       y2="1269.8906"
       gradientUnits="userSpaceOnUse"
       gradientTransform="matrix(0.165344,0,0,-0.165344,150.32551,278.27131)"
       spreadMethod="pad"
       id="linearGradient90"><stop
         style="stop-opacity:1;stop-color:#f8ec09"
         offset="0"
         id="stop92" /><stop
         style="stop-opacity:1;stop-color:#f87409"
         offset="1"
         id="stop94" /></linearGradient><clipPath
       clipPathUnits="userSpaceOnUse"
       id="clipPath102"><path
         d="M 0,0 192,0 192,192 0,192 0,0 z"
         id="path104"
         inkscape:connector-curvature="0" /></clipPath><linearGradient
       x1="-56.589844"
       y1="1199.1406"
       x2="91.78125"
       y2="1199.1406"
       gradientUnits="userSpaceOnUse"
       gradientTransform="matrix(0.165344,0,0,-0.165344,224.23585,274.41732)"
       spreadMethod="pad"
       id="linearGradient106"><stop
         style="stop-opacity:0;stop-color:#ffffff"
         offset="0"
         id="stop108" /><stop
         style="stop-opacity:0;stop-color:#ffffff"
         offset="1"
         id="stop110" /></linearGradient><mask
       maskUnits="userSpaceOnUse"
       x="0"
       y="0"
       width="1"
       height="1"
       id="mask112"><g
         id="g114"><g
           clip-path="url(#clipPath102)"
           id="g116"><g
             id="g118"><path
               d="M 0,0 192,0 192,192 0,192 0,0 z"
               style="fill:url(#linearGradient106);fill-opacity:1;fill-rule:nonzero;stroke:none"
               id="path120"
               inkscape:connector-curvature="0" /></g></g></g></mask><clipPath
       clipPathUnits="userSpaceOnUse"
       id="clipPath126"><path
         d="M 0,0 192,0 192,192 0,192 0,0 z"
         id="path128"
         inkscape:connector-curvature="0" /></clipPath><linearGradient
       x1="-56.589844"
       y1="1199.1406"
       x2="91.78125"
       y2="1199.1406"
       gradientUnits="userSpaceOnUse"
       gradientTransform="matrix(0.165344,0,0,0.165344,224.23585,-82.417323)"
       spreadMethod="pad"
       id="linearGradient130"><stop
         style="stop-opacity:1;stop-color:#000000"
         offset="0"
         id="stop132" /><stop
         style="stop-opacity:1;stop-color:#7c7c7c"
         offset="1"
         id="stop134" /></linearGradient><linearGradient
       x1="17.59375"
       y1="1199.1406"
       x2="17.59375"
       y2="1269.8906"
       gradientUnits="userSpaceOnUse"
       gradientTransform="matrix(0.165344,0,0,-0.165344,121.52553,278.27131)"
       spreadMethod="pad"
       id="linearGradient150"><stop
         style="stop-opacity:1;stop-color:#f8ec09"
         offset="0"
         id="stop152" /><stop
         style="stop-opacity:1;stop-color:#f87409"
         offset="1"
         id="stop154" /></linearGradient><clipPath
       clipPathUnits="userSpaceOnUse"
       id="clipPath162"><path
         d="M 0,0 192,0 192,192 0,192 0,0 z"
         id="path164"
         inkscape:connector-curvature="0" /></clipPath><linearGradient
       x1="-56.589844"
       y1="1199.1406"
       x2="91.78125"
       y2="1199.1406"
       gradientUnits="userSpaceOnUse"
       gradientTransform="matrix(0.165344,0,0,-0.165344,224.23585,274.41732)"
       spreadMethod="pad"
       id="linearGradient166"><stop
         style="stop-opacity:0;stop-color:#ffffff"
         offset="0"
         id="stop168" /><stop
         style="stop-opacity:0;stop-color:#ffffff"
         offset="1"
         id="stop170" /></linearGradient><mask
       maskUnits="userSpaceOnUse"
       x="0"
       y="0"
       width="1"
       height="1"
       id="mask172"><g
         id="g174"><g
           clip-path="url(#clipPath162)"
           id="g176"><g
             id="g178"><path
               d="M 0,0 192,0 192,192 0,192 0,0 z"
               style="fill:url(#linearGradient166);fill-opacity:1;fill-rule:nonzero;stroke:none"
               id="path180"
               inkscape:connector-curvature="0" /></g></g></g></mask><clipPath
       clipPathUnits="userSpaceOnUse"
       id="clipPath186"><path
         d="M 0,0 192,0 192,192 0,192 0,0 z"
         id="path188"
         inkscape:connector-curvature="0" /></clipPath><linearGradient
       x1="-56.589844"
       y1="1199.1406"
       x2="91.78125"
       y2="1199.1406"
       gradientUnits="userSpaceOnUse"
       gradientTransform="matrix(0.165344,0,0,0.165344,224.23585,-82.417323)"
       spreadMethod="pad"
       id="linearGradient190"><stop
         style="stop-opacity:1;stop-color:#000000"
         offset="0"
         id="stop192" /><stop
         style="stop-opacity:1;stop-color:#7c7c7c"
         offset="1"
         id="stop194" /></linearGradient><linearGradient
       x1="17.59375"
       y1="1199.1406"
       x2="17.59375"
       y2="1269.8906"
       gradientUnits="userSpaceOnUse"
       gradientTransform="matrix(0.165344,0,0,-0.165344,92.725518,278.27131)"
       spreadMethod="pad"
       id="linearGradient210"><stop
         style="stop-opacity:1;stop-color:#f8ec09"
         offset="0"
         id="stop212" /><stop
         style="stop-opacity:1;stop-color:#f87409"
         offset="1"
         id="stop214" /></linearGradient><clipPath
       clipPathUnits="userSpaceOnUse"
       id="clipPath222"><path
         d="M 0,0 192,0 192,192 0,192 0,0 z"
         id="path224"
         inkscape:connector-curvature="0" /></clipPath><linearGradient
       x1="-56.589844"
       y1="1199.1406"
       x2="91.78125"
       y2="1199.1406"
       gradientUnits="userSpaceOnUse"
       gradientTransform="matrix(0.165344,0,0,-0.165344,224.23587,274.41732)"
       spreadMethod="pad"
       id="linearGradient226"><stop
         style="stop-opacity:0;stop-color:#ffffff"
         offset="0"
         id="stop228" /><stop
         style="stop-opacity:0;stop-color:#ffffff"
         offset="1"
         id="stop230" /></linearGradient><mask
       maskUnits="userSpaceOnUse"
       x="0"
       y="0"
       width="1"
       height="1"
       id="mask232"><g
         id="g234"><g
           clip-path="url(#clipPath222)"
           id="g236"><g
             id="g238"><path
               d="M 0,0 192,0 192,192 0,192 0,0 z"
               style="fill:url(#linearGradient226);fill-opacity:1;fill-rule:nonzero;stroke:none"
               id="path240"
               inkscape:connector-curvature="0" /></g></g></g></mask><clipPath
       clipPathUnits="userSpaceOnUse"
       id="clipPath246"><path
         d="M 0,0 192,0 192,192 0,192 0,0 z"
         id="path248"
         inkscape:connector-curvature="0" /></clipPath><linearGradient
       x1="-56.589844"
       y1="1199.1406"
       x2="91.78125"
       y2="1199.1406"
       gradientUnits="userSpaceOnUse"
       gradientTransform="matrix(0.165344,0,0,0.165344,224.23587,-82.417323)"
       spreadMethod="pad"
       id="linearGradient250"><stop
         style="stop-opacity:1;stop-color:#000000"
         offset="0"
         id="stop252" /><stop
         style="stop-opacity:1;stop-color:#7c7c7c"
         offset="1"
         id="stop254" /></linearGradient><linearGradient
       x1="17.59375"
       y1="1199.1406"
       x2="17.59375"
       y2="1269.8906"
       gradientUnits="userSpaceOnUse"
       gradientTransform="matrix(0.165344,0,0,-0.165344,64.325528,278.27131)"
       spreadMethod="pad"
       id="linearGradient270"><stop
         style="stop-opacity:1;stop-color:#f8ec09"
         offset="0"
         id="stop272" /><stop
         style="stop-opacity:1;stop-color:#f87409"
         offset="1"
         id="stop274" /></linearGradient><clipPath
       clipPathUnits="userSpaceOnUse"
       id="clipPath282"><path
         d="M 0,0 192,0 192,192 0,192 0,0 z"
         id="path284"
         inkscape:connector-curvature="0" /></clipPath><linearGradient
       x1="-56.589844"
       y1="1199.1406"
       x2="91.78125"
       y2="1199.1406"
       gradientUnits="userSpaceOnUse"
       gradientTransform="matrix(0.165344,0,0,-0.165344,224.23587,274.41732)"
       spreadMethod="pad"
       id="linearGradient286"><stop
         style="stop-opacity:0;stop-color:#ffffff"
         offset="0"
         id="stop288" /><stop
         style="stop-opacity:0;stop-color:#ffffff"
         offset="1"
         id="stop290" /></linearGradient><mask
       maskUnits="userSpaceOnUse"
       x="0"
       y="0"
       width="1"
       height="1"
       id="mask292"><g
         id="g294"><g
           clip-path="url(#clipPath282)"
           id="g296"><g
             id="g298"><path
               d="M 0,0 192,0 192,192 0,192 0,0 z"
               style="fill:url(#linearGradient286);fill-opacity:1;fill-rule:nonzero;stroke:none"
               id="path300"
               inkscape:connector-curvature="0" /></g></g></g></mask><clipPath
       clipPathUnits="userSpaceOnUse"
       id="clipPath306"><path
         d="M 0,0 192,0 192,192 0,192 0,0 z"
         id="path308"
         inkscape:connector-curvature="0" /></clipPath><linearGradient
       x1="-56.589844"
       y1="1199.1406"
       x2="91.78125"
       y2="1199.1406"
       gradientUnits="userSpaceOnUse"
       gradientTransform="matrix(0.165344,0,0,0.165344,224.23587,-82.417323)"
       spreadMethod="pad"
       id="linearGradient310"><stop
         style="stop-opacity:1;stop-color:#000000"
         offset="0"
         id="stop312" /><stop
         style="stop-opacity:1;stop-color:#7c7c7c"
         offset="1"
         id="stop314" /></linearGradient><linearGradient
       inkscape:collect="always"
       xlink:href="#linearGradient270"
       id="linearGradient4142"
       gradientUnits="userSpaceOnUse"
       gradientTransform="matrix(0.165344,0,0,-0.165344,64.325528,278.27131)"
       spreadMethod="pad"
       x1="17.59375"
       y1="1199.1406"
       x2="17.59375"
       y2="1269.8906" /><linearGradient
       inkscape:collect="always"
       xlink:href="#linearGradient30"
       id="linearGradient4147"
       gradientUnits="userSpaceOnUse"
       gradientTransform="matrix(0.165344,0,0,-0.165344,35.525521,278.27131)"
       spreadMethod="pad"
       x1="17.59375"
       y1="1199.1406"
       x2="17.59375"
       y2="1269.8906" /><linearGradient
       inkscape:collect="always"
       xlink:href="#linearGradient210"
       id="linearGradient4152"
       gradientUnits="userSpaceOnUse"
       gradientTransform="matrix(0.165344,0,0,-0.165344,92.725518,278.27131)"
       spreadMethod="pad"
       x1="17.59375"
       y1="1199.1406"
       x2="17.59375"
       y2="1269.8906" /><linearGradient
       inkscape:collect="always"
       xlink:href="#linearGradient90"
       id="linearGradient4157"
       gradientUnits="userSpaceOnUse"
       gradientTransform="matrix(0.165344,0,0,-0.165344,150.32551,278.27131)"
       spreadMethod="pad"
       x1="17.59375"
       y1="1199.1406"
       x2="17.59375"
       y2="1269.8906" /><linearGradient
       inkscape:collect="always"
       xlink:href="#linearGradient70"
       id="linearGradient4159"
       gradientUnits="userSpaceOnUse"
       gradientTransform="matrix(0.165344,0,0,0.165344,224.23588,-82.417323)"
       spreadMethod="pad"
       x1="-56.589844"
       y1="1199.1406"
       x2="91.78125"
       y2="1199.1406" /><linearGradient
       inkscape:collect="always"
       xlink:href="#linearGradient130"
       id="linearGradient4161"
       gradientUnits="userSpaceOnUse"
       gradientTransform="matrix(0.165344,0,0,0.165344,224.23585,-82.417323)"
       spreadMethod="pad"
       x1="-56.589844"
       y1="1199.1406"
       x2="91.78125"
       y2="1199.1406" /><linearGradient
       inkscape:collect="always"
       xlink:href="#linearGradient150"
       id="linearGradient4163"
       gradientUnits="userSpaceOnUse"
       gradientTransform="matrix(0.165344,0,0,-0.165344,121.52553,278.27131)"
       spreadMethod="pad"
       x1="17.59375"
       y1="1199.1406"
       x2="17.59375"
       y2="1269.8906" /><linearGradient
       inkscape:collect="always"
       xlink:href="#linearGradient190"
       id="linearGradient4165"
       gradientUnits="userSpaceOnUse"
       gradientTransform="matrix(0.165344,0,0,0.165344,224.23585,-82.417323)"
       spreadMethod="pad"
       x1="-56.589844"
       y1="1199.1406"
       x2="91.78125"
       y2="1199.1406" /><linearGradient
       inkscape:collect="always"
       xlink:href="#linearGradient250"
       id="linearGradient4167"
       gradientUnits="userSpaceOnUse"
       gradientTransform="matrix(0.165344,0,0,0.165344,224.23587,-82.417323)"
       spreadMethod="pad"
       x1="-56.589844"
       y1="1199.1406"
       x2="91.78125"
       y2="1199.1406" /><linearGradient
       inkscape:collect="always"
       xlink:href="#linearGradient310"
       id="linearGradient4169"
       gradientUnits="userSpaceOnUse"
       gradientTransform="matrix(0.165344,0,0,0.165344,224.23587,-82.417323)"
       spreadMethod="pad"
       x1="-56.589844"
       y1="1199.1406"
       x2="91.78125"
       y2="1199.1406" /></defs><sodipodi:namedview
     pagecolor="#ffffff"
     bordercolor="#666666"
     borderopacity="1"
     objecttolerance="10"
     gridtolerance="10"
     guidetolerance="10"
     inkscape:pageopacity="0"
     inkscape:pageshadow="2"
     inkscape:window-width="1605"
     inkscape:window-height="924"
     id="namedview4"
     showgrid="false"
     fit-margin-top="0"
     fit-margin-left="0"
     fit-margin-right="0"
     fit-margin-bottom="0"
     inkscape:zoom="2.5845014"
     inkscape:cx="112.0025"
     inkscape:cy="112.0025"
     inkscape:window-x="0"
     inkscape:window-y="0"
     inkscape:window-maximized="0"
     inkscape:current-layer="g10" /><g
     id="g10"
     inkscape:groupmode="layer"
     inkscape:label="5stelle (1)"
     transform="matrix(1.25,0,0,-1.25,-7.9975,232.0025)"><g
       id="g4190"><path
         d="M 185.602,96 C 185.602,46.539 145.461,6.398 96,6.398 46.539,6.398 6.398,46.539 6.398,96 c 0,49.461 40.141,89.602 89.602,89.602 49.461,0 89.602,-40.141 89.602,-89.602 z"
         style="fill:#ff0000;fill-opacity:1;fill-rule:nonzero;stroke:none"
         id="path14"
         inkscape:connector-curvature="0" /><path
         d="M 181.199,96 C 181.199,48.969 143.031,10.801 96,10.801 48.969,10.801 10.801,48.969 10.801,96 c 0,47.031 38.168,85.199 85.199,85.199 47.031,0 85.199,-38.168 85.199,-85.199 z"
         style="fill:#ffffff;fill-opacity:1;fill-rule:nonzero;stroke:none"
         id="path16"
         inkscape:connector-curvature="0" /><path
         d="m 96.934,17.852 0.043,10.121 c 0.105,0.16 0.812,0.226 2.738,0.25 2.437,0.031 2.652,0.007 3.422,-0.364 0.629,-0.304 0.894,-0.554 1.136,-1.074 0.172,-0.375 0.317,-1.023 0.317,-1.441 0.004,-0.524 -0.113,-0.93 -0.375,-1.301 -0.211,-0.301 -0.68,-0.703 -1.043,-0.902 -0.367,-0.2 -0.692,-0.442 -0.727,-0.543 0.953,-1.555 2.297,-2.942 3.293,-4.438 l -3.25,-0.156 -0.789,1.32 c -0.437,0.731 -0.929,1.543 -1.101,1.809 -0.168,0.265 -0.41,0.515 -0.536,0.558 -0.187,0.059 -0.218,-0.285 -0.167,-1.855 0.046,-1.578 0.015,-1.957 -0.196,-2.086 l -2.765,0.102 z m 3.597,5.769 c 0.239,0.055 0.645,0.32 0.899,0.59 0.258,0.273 0.465,0.668 0.465,0.879 0.351,1.004 -0.192,1.222 -0.684,1.598 -0.168,0.089 -0.578,0.16 -0.91,0.16 -0.356,0 -0.61,-0.082 -0.625,-0.207 -0.012,-0.114 -0.004,-0.762 0.019,-1.446 0.024,-0.683 0.121,-1.336 0.223,-1.457 0.109,-0.133 0.348,-0.179 0.613,-0.117 z M 90.25,18.035 c -0.418,-0.043 -1.176,-0.012 -1.688,0.07 -0.507,0.083 -1.32,0.34 -1.804,0.571 -0.485,0.23 -1.082,0.656 -1.336,0.949 -0.25,0.289 -0.606,0.855 -0.785,1.258 -0.504,1.523 -0.309,3.207 0.191,4.715 0.203,0.445 0.633,1.129 0.957,1.515 0.348,0.418 0.988,0.895 1.559,1.172 0.832,0.399 1.156,0.461 2.324,0.445 0.98,-0.011 1.578,-0.113 2.16,-0.363 0.442,-0.191 1.008,-0.508 1.258,-0.699 0.25,-0.191 0.625,-0.621 0.836,-0.957 0.207,-0.332 0.379,-0.66 0.379,-0.727 0,-0.066 -0.438,-0.242 -0.969,-0.394 -0.535,-0.149 -1.062,-0.309 -1.172,-0.348 -0.652,0.875 -1.062,1.492 -2.242,1.735 -0.801,-0.028 -0.879,-0.039 -1.504,-0.567 -0.473,-0.394 -0.75,-0.941 -0.93,-1.539 -0.148,-0.492 -0.269,-1.457 -0.269,-2.148 0,-0.899 0.086,-1.414 0.308,-1.817 0.168,-0.308 0.567,-0.699 0.883,-0.863 0.317,-0.168 0.824,-0.305 1.133,-0.305 0.305,0 0.813,0.106 1.129,0.235 0.32,0.132 0.691,0.457 0.84,0.738 0.273,0.344 0.242,0.848 0.297,1.172 -0.18,0.094 -0.989,0.172 -1.36,0.172 -0.371,0 -0.937,0.043 -1.082,0.101 l 0.086,1.641 c 0.117,0.039 1.352,-0.02 2.742,-0.133 l 2.532,-0.211 -0.035,-0.98 c -0.028,-0.711 -0.18,-1.266 -0.559,-2.02 -0.371,-0.738 -0.731,-1.18 -1.231,-1.515 -0.386,-0.262 -0.972,-0.551 -1.296,-0.649 -0.325,-0.098 -0.934,-0.211 -1.352,-0.254 z m 18.094,0.457 -1.942,10.352 2.289,0.426 2.125,-10.27 -2.472,-0.508 z m -27.039,0.805 -6.098,1.574 c 1.07,3.117 1.828,6.934 3.031,10.004 l 5.461,-1.297 -0.433,-1.695 -2.977,0.504 -0.637,-2.106 2.782,-0.945 -0.438,-1.711 -2.992,0.574 -0.598,-2.32 3.36,-1.043 -0.461,-1.539 z m 32.371,0.285 -2.297,10.047 2.344,0.73 2.754,-8.203 3.242,0.735 0.504,-1.418 -6.547,-1.891 z m 8.293,2.473 -3.832,9.55 2.07,1.059 4.012,-7.769 c 1.058,0.226 2.047,0.742 3.058,1.128 l 0.77,-1.339 -6.078,-2.629 z m -54.352,1.699 -2.676,1.184 5.071,9.265 c 0.183,-0.055 1.144,-0.476 2.136,-0.93 0.993,-0.457 2.082,-1.043 2.426,-1.308 0.34,-0.266 0.742,-0.738 0.895,-1.047 0.148,-0.309 0.269,-0.856 0.269,-1.215 0,-0.359 -0.172,-0.98 -0.386,-1.383 -0.274,-0.515 -0.602,-0.836 -1.133,-1.097 -0.457,-0.231 -1.039,-0.371 -1.508,-0.368 -0.422,0 -1.184,0.149 -1.695,0.325 -0.512,0.175 -1.051,0.324 -1.204,0.324 l -2.195,-3.75 z m 3.93,4.918 c 0.488,-0.004 0.711,0.105 1.055,0.504 0.324,0.379 0.437,0.695 0.437,1.23 0,0.578 -0.086,0.785 -0.445,1.059 -0.242,0.191 -0.59,0.344 -0.77,0.344 -0.238,0 -0.476,-0.321 -0.902,-1.231 -0.32,-0.676 -0.582,-1.305 -0.582,-1.394 0,-0.094 0.133,-0.246 0.297,-0.336 0.16,-0.094 0.574,-0.172 0.91,-0.176 z m 57.582,-1.52 c -0.383,0.176 -0.981,0.602 -1.328,0.946 -0.352,0.34 -0.906,1.172 -1.231,1.843 -0.437,0.903 -0.613,1.524 -0.675,2.352 -0.165,1.504 0.402,2.637 1.378,3.738 0.473,0.461 1.317,1.059 1.872,1.324 1.457,0.696 3.039,0.61 4.503,0.028 0.582,-0.281 1.301,-0.828 1.825,-1.387 0.472,-0.508 1.027,-1.23 1.23,-1.605 0.59,-1.344 0.434,-2.801 0.008,-4.153 -0.195,-0.367 -0.766,-1.039 -1.262,-1.5 -0.496,-0.457 -1.351,-1.047 -1.898,-1.308 -1.414,-0.676 -2.949,-0.653 -4.422,-0.278 z m 3.223,1.793 c 0.277,0.051 0.734,0.223 1.011,0.391 0.278,0.164 0.641,0.523 0.801,0.793 0.164,0.269 0.297,0.82 0.297,1.219 0,0.457 -0.168,1.062 -0.457,1.629 -0.25,0.496 -0.875,1.316 -1.391,1.82 -0.586,0.578 -1.136,0.961 -1.465,1.027 -0.293,0.055 -0.789,0.031 -1.105,-0.054 -0.32,-0.086 -0.801,-0.383 -1.074,-0.665 -0.442,-0.449 -0.496,-0.621 -0.496,-1.531 0,-0.777 0.113,-1.242 0.465,-1.949 0.257,-0.512 0.773,-1.273 1.152,-1.695 0.375,-0.418 0.926,-0.832 1.219,-0.918 0.296,-0.082 0.765,-0.114 1.043,-0.067 z m -74.161,-0.195 -2.531,1.691 6.11,8.477 c 0.078,0 1.054,-0.598 2.168,-1.328 1.25,-0.82 2.21,-1.586 2.519,-2.004 0.277,-0.371 0.547,-0.914 0.602,-1.207 0.058,-0.293 0.015,-0.859 -0.094,-1.258 -0.121,-0.433 -0.449,-0.965 -0.824,-1.332 -0.469,-0.457 -0.817,-0.641 -1.407,-0.727 -0.484,-0.07 -1.027,-0.035 -1.425,0.09 -0.852,0.328 -1.676,0.711 -2.539,0.989 L 58.191,28.75 z m 4.676,4.227 c 0.207,-0.004 0.637,0.214 0.953,0.488 0.317,0.273 0.629,0.695 0.692,0.933 0.062,0.243 0.023,0.645 -0.086,0.903 -0.106,0.254 -0.371,0.574 -0.59,0.715 -0.219,0.14 -0.496,0.214 -0.617,0.172 -0.121,-0.047 -0.543,-0.598 -0.938,-1.223 -0.394,-0.629 -0.676,-1.25 -0.621,-1.383 0.051,-0.133 0.262,-0.32 0.465,-0.418 0.203,-0.098 0.539,-0.18 0.742,-0.187 z m -9.472,-1 -5.293,4.472 c 2.359,2.559 4.664,5.207 7.242,7.559 l 4.605,-3.727 -1.086,-1.195 -2.551,1.648 -1.496,-1.714 2.196,-2.047 -1.207,-1.336 -2.391,1.793 -1.633,-1.832 2.754,-2.414 -1.14,-1.207 z m 86.308,0 c -0.351,0 -0.633,0.097 -0.777,0.394 -0.168,0.356 -0.211,0.465 -0.02,0.977 0.125,0.324 0.539,0.773 0.895,1.007 0.359,0.243 0.879,0.43 1.183,0.43 0.297,0 0.664,-0.125 0.821,-0.273 0.195,-0.196 0.25,-0.426 0.179,-0.778 -0.058,-0.277 -0.273,-0.683 -0.48,-0.898 -0.207,-0.219 -0.582,-0.5 -0.832,-0.629 -0.254,-0.129 -0.688,-0.23 -0.969,-0.23 z m 4.883,3.48 -7.168,7.809 2.004,1.781 7.543,-7.594 c -0.719,-0.762 -1.535,-1.402 -2.379,-1.996 z m -97.867,3.961 c -0.418,0.004 -1.09,0.152 -1.492,0.328 -0.403,0.18 -1.266,0.832 -1.915,1.445 -0.652,0.614 -1.71,1.762 -2.347,2.547 -0.641,0.785 -1.164,1.504 -1.164,1.598 l 8.41,6.316 c 0.09,0 0.937,-0.945 1.887,-2.101 0.953,-1.156 1.867,-2.403 2.039,-2.77 0.172,-0.367 0.312,-0.976 0.312,-1.347 C 52.453,45 52.316,44.551 52.074,44.191 51.863,43.883 51.41,43.496 51.07,43.332 c -0.527,-0.25 -0.73,-0.27 -1.328,-0.109 -0.422,0.109 -0.765,0.125 -0.859,0.035 -0.094,-0.09 -0.082,-0.332 0.023,-0.602 0.094,-0.25 0.172,-0.726 0.172,-1.062 0,-0.332 -0.144,-0.821 -0.32,-1.082 -0.172,-0.258 -0.535,-0.614 -0.801,-0.782 -0.293,-0.191 -0.773,-0.312 -1.238,-0.312 z m -1.266,2.586 c 0.184,0.043 0.582,0.336 0.883,0.644 0.355,0.364 0.551,0.731 0.551,1.032 0,0.254 -0.207,0.773 -0.457,1.152 -0.25,0.383 -0.563,0.73 -0.696,0.781 l -2.562,-2.051 c 0,-0.152 0.25,-0.511 0.551,-0.8 0.3,-0.285 0.738,-0.59 0.968,-0.68 0.235,-0.09 0.575,-0.125 0.762,-0.078 z m 3.535,3.43 c 0.282,0.113 0.649,0.441 0.821,0.726 0.257,0.438 0.281,0.617 0.125,1.078 -0.102,0.305 -0.34,0.719 -0.528,0.914 -0.289,0.305 -0.402,0.328 -0.715,0.168 l -1.863,-1.59 c -0.098,-0.156 -0.012,-0.375 0.254,-0.652 0.215,-0.234 0.621,-0.516 0.898,-0.633 0.399,-0.168 0.606,-0.172 1.008,-0.011 z m 101.25,-4.563 -6.621,5.652 -1.734,-1.546 -1.18,1.214 4.945,5.789 1.344,-1.023 -1.258,-1.918 6.575,-5.68 -2.071,-2.488 z"
         style="fill:#000000;fill-opacity:1;fill-rule:nonzero;stroke:none"
         id="path18"
         inkscape:connector-curvature="0" /><path
         d="m 52.918,102.809 c -0.414,-0.043 -1.242,-0.016 -1.84,0.062 -0.637,0.082 -1.519,0.363 -2.133,0.676 -0.664,0.336 -1.355,0.887 -1.894,1.496 -0.469,0.531 -1.156,1.609 -1.531,2.395 -0.372,0.785 -0.817,2.015 -0.993,2.734 -0.175,0.719 -0.402,2.012 -0.504,2.875 -0.101,0.863 -0.183,2.312 -0.183,3.223 0,0.914 0.082,2.363 0.183,3.226 0.102,0.863 0.368,2.219 0.59,3.016 0.223,0.793 0.625,1.894 0.895,2.449 0.265,0.551 0.789,1.394 1.156,1.879 0.367,0.48 1.074,1.152 1.57,1.496 0.496,0.34 1.313,0.746 1.813,0.898 0.504,0.157 1.492,0.282 2.199,0.282 0.707,0 1.695,-0.125 2.199,-0.278 0.5,-0.152 1.254,-0.5 1.668,-0.773 0.418,-0.274 1.032,-0.797 1.364,-1.16 0.335,-0.364 0.835,-1.02 1.117,-1.453 0.281,-0.434 0.711,-1.278 0.953,-1.879 0.246,-0.598 0.609,-1.774 0.816,-2.61 0.328,-1.347 0.367,-1.961 0.364,-5.441 -0.004,-3.477 -0.047,-4.078 -0.375,-5.317 -0.2,-0.765 -0.704,-2.097 -1.114,-2.96 -0.441,-0.926 -1.074,-1.918 -1.543,-2.418 -0.433,-0.465 -1.136,-1.075 -1.562,-1.356 -0.426,-0.281 -1.153,-0.617 -1.617,-0.75 -0.461,-0.133 -1.18,-0.273 -1.598,-0.312 z m -0.738,5.621 c 0.519,0 1.023,0.125 1.363,0.343 0.312,0.196 0.727,0.719 0.98,1.239 0.243,0.496 0.555,1.457 0.692,2.14 0.16,0.797 0.254,2.246 0.258,4.032 0.004,1.867 -0.078,3.199 -0.254,4.035 -0.141,0.683 -0.41,1.551 -0.594,1.933 -0.187,0.379 -0.621,0.946 -0.965,1.258 -0.582,0.528 -0.695,0.563 -1.551,0.488 -0.8,-0.066 -1.004,-0.164 -1.476,-0.699 -0.332,-0.379 -0.695,-1.094 -0.918,-1.816 -0.305,-0.977 -0.387,-1.738 -0.453,-4.238 -0.047,-1.801 -0.008,-3.551 0.101,-4.274 0.102,-0.668 0.301,-1.629 0.446,-2.133 0.164,-0.57 0.503,-1.176 0.906,-1.613 0.574,-0.629 0.719,-0.695 1.465,-0.695 z m 111.48,-5.621 c -0.461,-0.039 -1.305,-0.012 -1.875,0.058 -0.57,0.074 -1.453,0.34 -1.965,0.59 -0.511,0.25 -1.355,0.895 -1.875,1.434 -0.668,0.695 -1.164,1.449 -1.687,2.566 -0.406,0.871 -0.914,2.289 -1.121,3.148 -0.344,1.407 -0.383,1.993 -0.383,5.579 0,3.578 0.043,4.175 0.379,5.554 0.207,0.852 0.664,2.188 1.015,2.965 0.414,0.91 0.989,1.801 1.614,2.5 0.664,0.746 1.32,1.266 2.086,1.656 1.074,0.547 1.195,0.571 3.14,0.571 1.946,0 2.071,-0.024 3.137,-0.567 0.773,-0.394 1.441,-0.929 2.184,-1.746 0.632,-0.695 1.296,-1.66 1.617,-2.347 0.301,-0.641 0.73,-1.829 0.957,-2.633 0.222,-0.805 0.488,-2.215 0.586,-3.137 0.101,-0.918 0.179,-2.359 0.176,-3.199 -0.004,-0.844 -0.079,-2.121 -0.168,-2.84 -0.09,-0.719 -0.317,-1.922 -0.504,-2.672 -0.188,-0.75 -0.598,-1.887 -0.911,-2.527 -0.312,-0.641 -0.8,-1.496 -1.085,-1.899 -0.286,-0.406 -0.954,-1.093 -1.489,-1.527 -0.562,-0.457 -1.39,-0.926 -1.976,-1.121 -0.555,-0.184 -1.387,-0.367 -1.852,-0.406 z m -0.523,5.625 c 0.722,-0.004 0.89,0.07 1.445,0.648 0.352,0.367 0.781,1.082 0.98,1.641 0.196,0.539 0.442,1.675 0.551,2.527 0.125,0.961 0.164,2.488 0.098,4.066 -0.055,1.391 -0.211,2.942 -0.344,3.446 -0.133,0.504 -0.445,1.273 -0.691,1.711 -0.246,0.433 -0.688,0.945 -0.981,1.129 -0.293,0.183 -0.82,0.336 -1.172,0.336 -0.351,0.003 -0.859,-0.118 -1.128,-0.262 -0.27,-0.145 -0.68,-0.594 -0.911,-1.004 -0.23,-0.406 -0.535,-1.25 -0.675,-1.871 -0.145,-0.621 -0.309,-2.11 -0.368,-3.309 -0.07,-1.351 -0.031,-2.871 0.094,-4 0.113,-1.004 0.32,-2.18 0.461,-2.617 0.137,-0.434 0.41,-1.035 0.606,-1.336 0.195,-0.301 0.546,-0.672 0.785,-0.824 0.234,-0.153 0.797,-0.277 1.25,-0.281 z M 24.109,103.035 c -1.218,0.008 -2.382,0.082 -2.582,0.164 -0.304,0.129 -0.351,0.258 -0.289,0.817 0.043,0.367 0.489,5.371 0.992,11.121 0.504,5.754 0.961,10.968 1.012,11.59 0.051,0.625 0.137,1.429 0.188,1.793 l 0.09,0.656 3.21,-0.047 3.211,-0.047 0.211,-0.871 c 0.114,-0.481 0.442,-2.832 0.731,-5.231 0.289,-2.394 0.566,-4.585 0.621,-4.863 0.066,-0.363 0.133,-0.437 0.223,-0.262 0.07,0.133 0.289,1.071 0.48,2.075 0.195,1.008 0.586,3.32 0.871,5.144 0.285,1.821 0.551,3.488 0.598,3.707 l 0.078,0.395 3.137,-0.047 3.14,-0.047 0.149,-0.523 c 0.082,-0.289 0.328,-2.719 0.547,-5.403 0.214,-2.683 0.554,-7 0.753,-9.586 0.196,-2.59 0.458,-5.961 0.582,-7.496 0.122,-1.531 0.192,-2.847 0.149,-2.918 -0.043,-0.07 -1.086,-0.129 -2.324,-0.129 -1.239,0 -2.434,0.071 -2.653,0.157 -0.406,0.16 -0.406,0.175 -0.519,3.617 -0.063,1.902 -0.188,4.32 -0.274,5.375 -0.089,1.054 -0.211,2.609 -0.265,3.461 -0.067,0.953 -0.168,1.48 -0.266,1.379 -0.086,-0.09 -0.418,-1.961 -0.742,-4.157 -0.324,-2.199 -0.742,-5.132 -0.93,-6.523 -0.187,-1.387 -0.414,-2.703 -0.496,-2.918 -0.148,-0.371 -0.254,-0.391 -1.808,-0.391 -1.067,0 -1.75,0.075 -1.926,0.215 -0.203,0.164 -0.426,1.317 -0.887,4.578 -0.336,2.395 -0.801,5.453 -1.035,6.797 -0.234,1.34 -0.488,2.508 -0.563,2.59 -0.074,0.082 -0.179,-0.269 -0.234,-0.785 -0.051,-0.516 -0.254,-3.676 -0.445,-7.031 -0.196,-3.352 -0.391,-6.157 -0.434,-6.231 -0.047,-0.074 -1.082,-0.129 -2.301,-0.125 z m 58.157,0.047 c -1.297,-0.02 -2.469,0.012 -2.606,0.07 -0.14,0.055 -0.312,0.188 -0.383,0.293 -0.066,0.106 -0.121,5.407 -0.113,11.782 0.004,6.375 -0.039,12.019 -0.098,12.546 -0.078,0.684 -0.043,1.039 0.118,1.235 0.191,0.234 0.597,0.265 2.777,0.199 l 2.551,-0.074 0.105,-1.074 c 0.055,-0.586 0.082,-6.442 0.055,-13.008 l -0.051,-11.938 -2.355,-0.031 z m 7.851,-0.031 c -1.172,0.011 -2.305,0.054 -2.512,0.097 -0.207,0.043 -0.378,0.145 -0.378,0.223 0,0.082 0.269,3.195 0.601,6.918 0.332,3.723 0.844,9.473 1.137,12.781 l 0.531,6.012 3.211,0.047 3.211,0.047 0.187,-0.656 c 0.106,-0.364 0.461,-2.856 0.793,-5.54 0.332,-2.683 0.649,-4.996 0.696,-5.14 0.074,-0.207 0.121,-0.188 0.222,0.086 0.071,0.191 0.332,1.488 0.579,2.879 0.25,1.386 0.656,3.82 0.906,5.402 l 0.453,2.875 3.191,0 3.188,0 0.129,-0.609 c 0.07,-0.336 0.281,-2.532 0.468,-4.883 0.188,-2.348 0.528,-6.738 0.758,-9.758 0.231,-3.02 0.504,-6.574 0.606,-7.894 0.101,-1.325 0.14,-2.52 0.09,-2.661 -0.075,-0.203 -0.536,-0.25 -2.379,-0.25 -1.258,0 -2.422,0.075 -2.59,0.164 -0.258,0.145 -0.317,0.516 -0.41,2.661 -0.063,1.367 -0.231,4.371 -0.379,6.671 -0.149,2.301 -0.309,4.301 -0.352,4.446 -0.066,0.207 -0.113,0.187 -0.226,-0.086 -0.078,-0.192 -0.524,-3.016 -0.993,-6.278 -0.464,-3.257 -0.906,-6.277 -0.98,-6.707 l -0.129,-0.785 -1.875,0 c -1.031,0 -1.922,0.051 -1.984,0.117 -0.063,0.063 -0.407,2.219 -0.766,4.793 -0.363,2.571 -0.844,5.723 -1.074,7.004 -0.227,1.282 -0.453,2.371 -0.496,2.418 -0.047,0.047 -0.121,-0.097 -0.168,-0.324 -0.043,-0.226 -0.207,-2.59 -0.36,-5.25 -0.148,-2.66 -0.328,-5.644 -0.398,-6.633 -0.066,-0.984 -0.18,-1.886 -0.246,-2.004 -0.09,-0.148 -0.758,-0.203 -2.262,-0.183 z m 26.074,-0.016 c -2.656,0.008 -5.003,0.082 -5.211,0.172 l -0.378,0.156 0.043,12.86 0.043,12.859 5.035,0.047 c 2.976,0.027 5.097,-0.024 5.191,-0.117 0.086,-0.09 0.195,-1.211 0.242,-2.492 0.071,-1.899 0.043,-2.364 -0.156,-2.536 -0.16,-0.136 -1.09,-0.226 -2.672,-0.257 l -2.43,-0.047 -0.039,-1.832 c -0.023,-1.004 0.028,-1.946 0.118,-2.09 0.121,-0.196 0.664,-0.278 2.308,-0.348 l 2.149,-0.09 0.136,-0.84 c 0.075,-0.46 0.114,-1.636 0.086,-2.613 l -0.047,-1.773 -2.265,-0.051 c -1.551,-0.031 -2.301,-0.113 -2.391,-0.262 -0.074,-0.117 -0.133,-1.207 -0.133,-2.426 -0.004,-2.015 0.028,-2.234 0.321,-2.398 0.179,-0.098 1.304,-0.18 2.504,-0.18 2.113,0 2.179,-0.011 2.293,-0.39 0.062,-0.219 0.156,-1.309 0.21,-2.426 0.051,-1.117 0.043,-2.234 -0.015,-2.481 l -0.11,-0.453 -4.832,0.008 z m 10.723,0.043 c -1.156,-0.019 -2.269,0.035 -2.48,0.125 l -0.379,0.16 0.043,12.86 0.043,12.859 2.554,0.047 2.555,0.047 0.359,-0.832 c 0.2,-0.457 1.121,-3.067 2.047,-5.797 0.926,-2.735 1.793,-5.242 1.93,-5.574 0.191,-0.485 0.273,-0.555 0.398,-0.352 0.09,0.149 0.161,2.887 0.161,6.41 l 0.003,6.149 2.387,-0.051 2.391,-0.047 0.133,-0.672 c 0.074,-0.371 0.117,-6.215 0.093,-12.984 l -0.043,-12.313 -2.281,-0.047 c -2.016,-0.043 -2.312,-0.015 -2.539,0.258 -0.141,0.172 -0.578,1.254 -0.977,2.403 -0.394,1.152 -1.199,3.425 -1.781,5.054 -0.586,1.629 -1.351,3.59 -1.703,4.356 l -0.64,1.394 -0.086,-6.707 -0.082,-6.711 -2.106,-0.035 z m 20.941,0.008 c -1.296,-0.012 -2.488,0.012 -2.652,0.059 -0.273,0.074 -0.293,0.683 -0.305,9.523 -0.007,5.191 -0.062,9.793 -0.125,10.227 l -0.113,0.785 -1.43,0.09 c -0.789,0.05 -1.527,0.152 -1.64,0.226 -0.152,0.102 -0.211,0.832 -0.211,2.656 l 0,2.516 6.125,0 6.125,0 0.109,-1.09 c 0.059,-0.598 0.082,-1.793 0.055,-2.656 l -0.055,-1.57 -1.679,-0.086 -1.684,-0.086 -0.082,-10.285 -0.086,-10.282 -2.352,-0.027 z"
         style="fill:#999999;fill-opacity:1;fill-rule:nonzero;stroke:none"
         id="path20"
         inkscape:connector-curvature="0" /><path
         inkscape:connector-curvature="0"
         id="path24"
         style="fill:#ff0000;fill-opacity:1;fill-rule:nonzero;stroke:#800000;stroke-width:0.80000001;stroke-linecap:butt;stroke-linejoin:miter;stroke-miterlimit:4;stroke-opacity:1;stroke-dasharray:none"
         d="m 67.605,98.926 c -0.402,0 -0.632,0.105 -0.808,0.371 -0.192,0.297 -0.242,0.996 -0.238,3.375 0.007,1.851 -0.059,3.129 -0.172,3.336 -0.098,0.183 -0.18,0.719 -0.18,1.183 0,0.469 -0.086,1.012 -0.195,1.211 -0.11,0.2 -0.364,1.289 -0.567,2.426 -0.203,1.137 -0.457,2.477 -0.562,2.973 -0.106,0.5 -0.266,1.047 -0.356,1.215 -0.093,0.172 -0.234,0.804 -0.32,1.41 -0.082,0.605 -0.262,1.433 -0.391,1.844 -0.132,0.41 -0.472,1.414 -0.754,2.23 -0.285,0.82 -0.687,2.012 -0.898,2.648 -0.211,0.637 -0.609,1.719 -0.891,2.407 -0.277,0.687 -0.843,1.84 -1.257,2.562 -0.411,0.723 -0.75,1.414 -0.75,1.543 0,0.125 -0.235,0.645 -0.524,1.156 -0.285,0.512 -0.648,1.079 -0.804,1.258 -0.157,0.184 -0.411,0.594 -0.559,0.91 -0.152,0.321 -0.758,1.094 -1.344,1.723 -0.933,1 -1.07,1.227 -1.07,1.785 0,0.406 0.086,0.672 0.242,0.731 0.137,0.05 0.711,-0.059 1.281,-0.243 0.574,-0.187 1.301,-0.453 1.617,-0.597 0.321,-0.145 0.954,-0.516 1.407,-0.832 0.457,-0.313 1.019,-0.715 1.254,-0.895 0.234,-0.179 0.793,-0.945 1.238,-1.699 0.449,-0.758 0.98,-1.848 1.18,-2.418 0.199,-0.574 0.586,-1.512 0.855,-2.086 0.273,-0.574 0.606,-1.445 0.742,-1.933 0.133,-0.493 0.43,-1.415 0.66,-2.051 0.227,-0.637 0.532,-1.742 0.68,-2.461 0.145,-0.715 0.34,-1.442 0.43,-1.61 0.09,-0.168 0.461,-1.328 0.828,-2.582 0.367,-1.25 0.734,-2.441 0.82,-2.648 0.082,-0.203 0.262,-0.371 0.395,-0.371 0.133,0 0.422,0.242 0.64,0.539 0.223,0.293 0.477,0.832 0.575,1.199 0.093,0.363 0.328,1.086 0.519,1.606 0.188,0.519 0.348,1.152 0.352,1.406 0,0.254 0.113,0.601 0.246,0.781 0.133,0.176 0.242,0.496 0.242,0.711 0,0.219 0.172,0.633 0.383,0.922 0.211,0.289 0.554,0.934 0.769,1.434 0.215,0.5 0.594,1.355 0.844,1.902 0.25,0.547 0.606,1.336 0.789,1.758 0.184,0.422 0.387,1.054 0.449,1.406 0.067,0.351 0.219,0.824 0.34,1.051 0.125,0.23 0.375,0.824 0.559,1.324 0.183,0.5 0.332,1.008 0.332,1.133 0,0.121 0.137,0.418 0.301,0.66 0.168,0.242 0.437,0.812 0.601,1.266 0.164,0.453 0.539,1.066 0.836,1.363 0.293,0.293 0.633,0.777 0.754,1.074 0.121,0.297 0.715,1.082 1.32,1.746 0.61,0.664 1.504,1.461 1.996,1.774 0.489,0.312 1.082,0.566 1.325,0.57 0.238,0.004 0.519,-0.098 0.625,-0.227 0.117,-0.144 0.148,-0.484 0.078,-0.914 -0.067,-0.422 -0.231,-0.75 -0.418,-0.851 -0.172,-0.09 -0.578,-0.703 -0.903,-1.36 -0.328,-0.656 -0.765,-1.675 -0.976,-2.265 -0.207,-0.59 -0.613,-1.743 -0.902,-2.559 -0.286,-0.812 -0.602,-1.578 -0.7,-1.699 -0.101,-0.117 -0.129,-0.266 -0.066,-0.328 l -1.141,-1.946 -0.457,-0.972 c -0.25,-0.535 -0.453,-1.098 -0.453,-1.25 0,-0.156 -0.18,-0.453 -0.402,-0.66 -0.219,-0.207 -0.473,-0.571 -0.567,-0.813 -0.089,-0.242 -0.359,-0.961 -0.601,-1.598 -0.238,-0.636 -0.539,-1.378 -0.668,-1.652 -0.125,-0.273 -0.387,-0.867 -0.578,-1.324 -0.192,-0.453 -0.391,-1.195 -0.442,-1.652 -0.047,-0.454 -0.304,-1.274 -0.566,-1.817 -0.266,-0.547 -0.547,-1.414 -0.633,-1.933 -0.082,-0.516 -0.269,-1.161 -0.41,-1.438 -0.145,-0.273 -0.258,-0.695 -0.258,-0.934 0,-0.238 -0.09,-0.593 -0.203,-0.792 -0.109,-0.2 -0.238,-1.192 -0.289,-2.208 -0.078,-1.523 -0.152,-1.91 -0.422,-2.207 -0.273,-0.3 -0.344,-0.679 -0.414,-2.207 -0.082,-1.691 -0.129,-1.91 -0.602,-2.687 -0.285,-0.461 -0.66,-1.172 -0.839,-1.574 -0.18,-0.403 -0.563,-0.934 -0.856,-1.18 -0.355,-0.297 -0.726,-0.449 -1.098,-0.449 z" /><path
         d="m 52.105,103.648 c -0.417,-0.039 -1.246,-0.011 -1.843,0.067 -0.633,0.082 -1.516,0.363 -2.129,0.676 -0.664,0.336 -1.36,0.886 -1.899,1.496 -0.468,0.531 -1.156,1.609 -1.527,2.394 -0.371,0.785 -0.82,2.016 -0.992,2.735 -0.176,0.718 -0.403,2.011 -0.504,2.875 -0.102,0.863 -0.188,2.312 -0.188,3.222 0,0.91 0.086,2.364 0.188,3.227 0.101,0.863 0.367,2.219 0.59,3.012 0.222,0.796 0.625,1.898 0.89,2.449 0.27,0.554 0.789,1.398 1.157,1.879 0.371,0.484 1.074,1.156 1.57,1.496 0.496,0.344 1.312,0.75 1.816,0.902 0.504,0.156 1.493,0.281 2.2,0.281 0.707,0 1.695,-0.125 2.195,-0.277 0.504,-0.152 1.254,-0.5 1.672,-0.773 0.414,-0.274 1.031,-0.797 1.363,-1.161 0.332,-0.367 0.836,-1.019 1.117,-1.453 0.281,-0.433 0.711,-1.277 0.953,-1.879 0.243,-0.597 0.61,-1.773 0.813,-2.609 0.332,-1.348 0.371,-1.961 0.367,-5.441 -0.008,-3.477 -0.047,-4.078 -0.375,-5.317 -0.203,-0.765 -0.703,-2.097 -1.117,-2.961 -0.442,-0.926 -1.074,-1.918 -1.539,-2.418 -0.434,-0.465 -1.137,-1.074 -1.563,-1.355 -0.429,-0.281 -1.156,-0.617 -1.617,-0.75 -0.461,-0.133 -1.183,-0.274 -1.598,-0.317 z m -0.742,5.625 c 0.524,0 1.024,0.125 1.367,0.34 0.313,0.199 0.727,0.719 0.981,1.242 0.242,0.497 0.551,1.457 0.691,2.141 0.16,0.797 0.254,2.246 0.258,4.031 0.004,1.868 -0.082,3.2 -0.254,4.032 -0.14,0.687 -0.41,1.554 -0.597,1.933 -0.184,0.379 -0.621,0.946 -0.965,1.262 -0.578,0.523 -0.692,0.562 -1.551,0.488 -0.797,-0.07 -1,-0.164 -1.473,-0.699 -0.336,-0.379 -0.699,-1.094 -0.922,-1.816 -0.3,-0.977 -0.382,-1.739 -0.449,-4.243 -0.051,-1.8 -0.008,-3.546 0.102,-4.269 0.101,-0.668 0.301,-1.629 0.445,-2.133 0.164,-0.57 0.504,-1.18 0.902,-1.613 0.579,-0.629 0.723,-0.696 1.465,-0.696 z m 111.485,-5.621 c -0.461,-0.039 -1.309,-0.015 -1.875,0.059 -0.571,0.074 -1.457,0.34 -1.965,0.59 -0.512,0.25 -1.356,0.894 -1.875,1.433 -0.668,0.696 -1.164,1.446 -1.688,2.567 -0.41,0.867 -0.914,2.285 -1.125,3.148 -0.34,1.406 -0.379,1.992 -0.379,5.578 0,3.578 0.039,4.176 0.379,5.555 0.207,0.852 0.664,2.184 1.016,2.965 0.414,0.91 0.984,1.801 1.609,2.5 0.668,0.746 1.325,1.265 2.09,1.656 1.074,0.547 1.192,0.57 3.141,0.57 1.945,0 2.07,-0.023 3.136,-0.566 0.774,-0.395 1.438,-0.93 2.184,-1.746 0.633,-0.695 1.293,-1.66 1.617,-2.348 0.301,-0.644 0.731,-1.828 0.953,-2.633 0.227,-0.804 0.493,-2.214 0.59,-3.136 0.098,-0.918 0.18,-2.36 0.176,-3.203 -0.004,-0.84 -0.078,-2.118 -0.168,-2.836 -0.09,-0.719 -0.316,-1.922 -0.504,-2.672 -0.187,-0.75 -0.598,-1.891 -0.91,-2.528 -0.312,-0.64 -0.801,-1.496 -1.086,-1.898 -0.285,-0.406 -0.957,-1.094 -1.488,-1.527 -0.563,-0.457 -1.391,-0.926 -1.977,-1.121 -0.554,-0.184 -1.387,-0.368 -1.851,-0.407 z m -0.528,5.625 c 0.727,-0.004 0.891,0.071 1.446,0.649 0.355,0.367 0.781,1.082 0.984,1.636 0.191,0.543 0.441,1.68 0.551,2.528 0.125,0.965 0.16,2.492 0.097,4.07 -0.054,1.391 -0.21,2.942 -0.343,3.445 -0.133,0.504 -0.446,1.274 -0.692,1.711 -0.246,0.434 -0.687,0.942 -0.98,1.129 -0.293,0.184 -0.821,0.336 -1.172,0.336 -0.352,0 -0.859,-0.117 -1.129,-0.261 -0.27,-0.145 -0.68,-0.594 -0.91,-1.004 -0.231,-0.407 -0.535,-1.25 -0.68,-1.871 -0.14,-0.622 -0.304,-2.114 -0.363,-3.309 -0.07,-1.356 -0.035,-2.871 0.094,-4 0.113,-1.004 0.32,-2.18 0.457,-2.617 0.14,-0.434 0.414,-1.035 0.609,-1.336 0.195,-0.301 0.547,-0.672 0.785,-0.824 0.235,-0.153 0.797,-0.282 1.246,-0.282 z M 23.297,103.879 c -1.223,0.008 -2.383,0.082 -2.582,0.164 -0.309,0.129 -0.352,0.258 -0.289,0.816 0.039,0.368 0.488,5.371 0.992,11.121 0.504,5.754 0.961,10.969 1.012,11.59 0.05,0.625 0.132,1.43 0.183,1.793 l 0.094,0.657 3.211,-0.047 3.211,-0.047 0.207,-0.871 c 0.117,-0.481 0.445,-2.832 0.734,-5.231 0.285,-2.394 0.567,-4.586 0.618,-4.867 0.07,-0.359 0.136,-0.434 0.226,-0.258 0.07,0.133 0.285,1.071 0.481,2.074 0.195,1.008 0.585,3.321 0.871,5.141 0.281,1.824 0.55,3.492 0.593,3.711 l 0.082,0.395 3.137,-0.047 3.137,-0.047 0.152,-0.524 c 0.082,-0.289 0.328,-2.718 0.543,-5.402 0.219,-2.684 0.559,-7 0.754,-9.586 0.199,-2.59 0.461,-5.961 0.582,-7.496 0.125,-1.531 0.192,-2.848 0.152,-2.918 -0.043,-0.07 -1.089,-0.133 -2.324,-0.133 -1.238,0 -2.433,0.074 -2.656,0.16 -0.402,0.161 -0.402,0.176 -0.516,3.618 -0.062,1.902 -0.187,4.32 -0.277,5.375 -0.086,1.054 -0.207,2.609 -0.266,3.46 -0.062,0.954 -0.164,1.481 -0.261,1.379 -0.086,-0.089 -0.422,-1.961 -0.743,-4.156 -0.324,-2.199 -0.742,-5.133 -0.933,-6.523 -0.188,-1.391 -0.41,-2.703 -0.496,-2.918 -0.145,-0.371 -0.25,-0.395 -1.809,-0.395 -1.062,0 -1.746,0.078 -1.922,0.219 -0.203,0.164 -0.429,1.316 -0.886,4.574 -0.336,2.399 -0.805,5.457 -1.036,6.797 -0.234,1.344 -0.488,2.508 -0.562,2.594 -0.078,0.082 -0.184,-0.27 -0.234,-0.785 -0.051,-0.516 -0.254,-3.68 -0.45,-7.032 -0.191,-3.351 -0.386,-6.156 -0.433,-6.23 -0.043,-0.074 -1.078,-0.129 -2.297,-0.125 z m 58.156,0.047 c -1.297,-0.02 -2.469,0.012 -2.609,0.066 -0.137,0.059 -0.309,0.192 -0.379,0.297 -0.07,0.106 -0.121,5.406 -0.117,11.781 0.007,6.371 -0.036,12.02 -0.094,12.547 -0.078,0.684 -0.043,1.039 0.113,1.235 0.192,0.234 0.598,0.261 2.778,0.199 l 2.554,-0.078 0.106,-1.071 c 0.054,-0.586 0.078,-6.441 0.05,-13.007 l -0.05,-11.938 -2.352,-0.031 z m 7.852,-0.031 c -1.176,0.011 -2.305,0.054 -2.512,0.097 -0.211,0.043 -0.379,0.141 -0.379,0.223 0,0.082 0.27,3.195 0.602,6.918 0.332,3.722 0.843,9.472 1.136,12.777 l 0.532,6.016 3.211,0.047 3.207,0.047 0.191,-0.657 c 0.105,-0.363 0.461,-2.855 0.793,-5.539 0.332,-2.683 0.644,-4.996 0.695,-5.14 0.074,-0.207 0.117,-0.192 0.219,0.086 0.07,0.191 0.332,1.488 0.582,2.875 0.246,1.39 0.656,3.824 0.906,5.402 l 0.453,2.879 3.188,0 3.191,0 0.125,-0.61 c 0.075,-0.336 0.285,-2.535 0.469,-4.882 0.188,-2.348 0.531,-6.739 0.762,-9.758 0.23,-3.02 0.504,-6.574 0.605,-7.895 0.102,-1.324 0.141,-2.519 0.09,-2.66 -0.074,-0.203 -0.535,-0.254 -2.379,-0.254 -1.258,0 -2.426,0.078 -2.59,0.168 -0.257,0.145 -0.316,0.516 -0.41,2.66 -0.062,1.367 -0.23,4.371 -0.379,6.672 -0.148,2.301 -0.308,4.301 -0.355,4.445 -0.063,0.208 -0.11,0.188 -0.223,-0.085 -0.078,-0.196 -0.523,-3.016 -0.992,-6.278 -0.469,-3.258 -0.91,-6.277 -0.981,-6.707 l -0.132,-0.785 -1.871,0 c -1.032,0 -1.922,0.051 -1.985,0.117 -0.062,0.063 -0.406,2.219 -0.769,4.789 -0.36,2.575 -0.84,5.727 -1.071,7.008 -0.226,1.281 -0.453,2.371 -0.5,2.418 -0.046,0.047 -0.121,-0.098 -0.164,-0.324 -0.047,-0.231 -0.207,-2.59 -0.359,-5.25 -0.152,-2.66 -0.332,-5.645 -0.399,-6.633 -0.07,-0.988 -0.179,-1.887 -0.25,-2.004 -0.085,-0.148 -0.753,-0.203 -2.257,-0.183 z m 26.074,-0.016 c -2.66,0.008 -5.004,0.082 -5.211,0.172 l -0.383,0.156 0.047,12.859 0.043,12.86 5.031,0.043 c 2.981,0.027 5.102,-0.02 5.196,-0.117 0.086,-0.09 0.195,-1.207 0.242,-2.489 0.07,-1.898 0.039,-2.363 -0.16,-2.535 -0.157,-0.137 -1.09,-0.226 -2.668,-0.258 l -2.43,-0.047 -0.043,-1.832 c -0.023,-1.007 0.031,-1.945 0.121,-2.089 0.121,-0.196 0.664,-0.278 2.309,-0.348 l 2.148,-0.09 0.137,-0.84 c 0.074,-0.461 0.113,-1.636 0.086,-2.613 l -0.047,-1.773 -2.266,-0.051 c -1.551,-0.032 -2.304,-0.114 -2.394,-0.262 -0.071,-0.117 -0.129,-1.207 -0.133,-2.43 0,-2.011 0.027,-2.23 0.324,-2.394 0.18,-0.098 1.305,-0.18 2.504,-0.18 2.109,0 2.18,-0.012 2.293,-0.394 0.063,-0.215 0.156,-1.305 0.207,-2.422 0.055,-1.117 0.047,-2.235 -0.012,-2.485 l -0.109,-0.453 -4.832,0.012 z m 10.723,0.043 c -1.157,-0.02 -2.274,0.035 -2.481,0.125 l -0.379,0.16 0.043,12.859 0.043,12.86 2.555,0.047 2.555,0.047 0.359,-0.832 c 0.199,-0.458 1.117,-3.067 2.047,-5.797 0.926,-2.735 1.793,-5.243 1.926,-5.575 0.191,-0.484 0.277,-0.554 0.402,-0.351 0.09,0.148 0.156,2.883 0.16,6.406 l 0,6.149 2.391,-0.047 2.39,-0.047 0.133,-0.672 c 0.074,-0.371 0.117,-6.215 0.094,-12.984 l -0.047,-12.313 -2.281,-0.051 c -2.016,-0.039 -2.313,-0.011 -2.535,0.262 -0.141,0.172 -0.579,1.254 -0.977,2.402 -0.395,1.153 -1.199,3.426 -1.785,5.055 -0.582,1.629 -1.348,3.59 -1.703,4.355 l -0.641,1.395 -0.082,-6.707 -0.086,-6.711 -2.101,-0.035 z m 20.937,0.008 c -1.293,-0.012 -2.484,0.011 -2.648,0.058 -0.274,0.074 -0.293,0.684 -0.305,9.524 -0.008,5.191 -0.066,9.793 -0.129,10.226 l -0.113,0.785 -1.43,0.09 c -0.785,0.051 -1.523,0.153 -1.641,0.227 -0.152,0.101 -0.207,0.832 -0.207,2.656 l 0,2.516 6.125,0 6.125,0 0.106,-1.09 c 0.062,-0.598 0.086,-1.793 0.058,-2.656 l -0.054,-1.571 -1.68,-0.086 -1.684,-0.086 -0.085,-10.285 -0.082,-10.281 -2.356,-0.027 z"
         style="fill:#050505;fill-opacity:1;fill-rule:nonzero;stroke:none"
         id="path26"
         inkscape:connector-curvature="0" /><path
         inkscape:connector-curvature="0"
         id="path36"
         style="fill:url(#linearGradient4147);fill-opacity:1;fill-rule:nonzero;stroke:none"
         d="m 30.891,68.387 0.742,8.226 -5.465,6.387 8.062,1.797 4.325,6.82 4.273,-6.785 7.871,-2.027 -5.129,-6.117 0.325,-8.063 -7.465,3.02 -7.539,-3.258 z" /><g
         id="g38"><g
           id="g40" /><g
           id="g62"
           mask="url(#mask52)"><g
             id="g64" /><g
             id="g76"><g
               clip-path="url(#clipPath66)"
               id="g78"><g
                 id="g80"><g
                   transform="matrix(1,0,0,-1,0,192)"
                   id="g82"><path
                     d="m 30.891,123.613 0.742,-8.226 -5.465,-6.387 8.062,-1.797 4.325,-6.82 4.273,6.785 7.871,2.027 -5.129,6.117 0.325,8.063 -7.465,-3.02 -7.539,3.258 z"
                     style="fill:none;stroke:url(#linearGradient4159);stroke-width:0.165344;stroke-linecap:butt;stroke-linejoin:miter;stroke-miterlimit:4;stroke-opacity:1;stroke-dasharray:none"
                     id="path84"
                     inkscape:connector-curvature="0" /></g></g></g></g></g></g><path
         d="m 31.012,68.102 c -0.114,0 -0.258,0.05 -0.321,0.109 -0.058,0.062 -0.109,0.34 -0.109,0.621 -0.004,0.281 0.195,2.129 0.441,4.109 0.442,3.567 0.442,3.606 0.125,3.997 -0.175,0.218 -1.414,1.566 -2.757,2.996 -1.36,1.449 -2.438,2.738 -2.438,2.91 0,0.172 0.168,0.375 0.371,0.449 0.207,0.074 2.035,0.453 4.071,0.844 l 3.695,0.707 c 0.836,1.402 1.625,2.832 2.426,4.258 1.371,2.449 1.679,2.894 2.004,2.894 0.328,0 0.656,-0.492 2.246,-3.359 1.027,-1.852 1.949,-3.461 2.046,-3.582 0.106,-0.121 1.801,-0.528 3.856,-0.922 2.02,-0.383 3.84,-0.801 4.047,-0.93 0.203,-0.125 0.371,-0.332 0.371,-0.457 0,-0.125 -1.172,-1.473 -2.606,-2.988 -1.429,-1.52 -2.671,-2.906 -2.753,-3.082 -0.102,-0.211 0.003,-1.606 0.312,-4.102 0.254,-2.078 0.418,-3.902 0.359,-4.047 -0.054,-0.148 -0.207,-0.308 -0.332,-0.355 -0.128,-0.051 -1.843,0.656 -3.812,1.574 -1.969,0.914 -3.656,1.664 -3.75,1.664 -0.098,0 -1.774,-0.746 -3.731,-1.656 -1.953,-0.906 -3.644,-1.652 -3.761,-1.652 z m 0.476,0.828 c 0.125,0 1.629,0.66 3.34,1.465 1.711,0.804 3.262,1.511 3.445,1.566 0.223,0.07 1.418,-0.402 3.7,-1.465 1.851,-0.863 3.48,-1.566 3.617,-1.566 0.211,0 0.234,0.187 0.144,1.199 -0.058,0.656 -0.261,2.406 -0.449,3.887 l -0.344,2.687 0.715,0.817 c 0.395,0.445 1.59,1.738 2.66,2.867 1.067,1.133 1.942,2.144 1.942,2.25 0,0.105 -0.094,0.226 -0.207,0.265 -0.113,0.043 -1.805,0.375 -3.754,0.743 -2.039,0.378 -3.652,0.765 -3.789,0.898 -0.129,0.129 -1.031,1.672 -2.008,3.43 -0.977,1.757 -1.871,3.195 -1.992,3.195 -0.117,0 -1.012,-1.434 -1.985,-3.184 -0.972,-1.754 -1.851,-3.289 -1.957,-3.414 -0.109,-0.129 -1.742,-0.523 -3.902,-0.937 -2.047,-0.391 -3.805,-0.766 -3.914,-0.836 -0.133,-0.078 0.496,-0.863 1.859,-2.324 1.133,-1.211 2.375,-2.555 2.762,-2.985 0.637,-0.707 0.695,-0.847 0.606,-1.406 -0.051,-0.344 -0.266,-2.035 -0.469,-3.766 -0.207,-1.726 -0.348,-3.195 -0.309,-3.265 0.035,-0.067 0.168,-0.121 0.289,-0.121 z"
         style="fill:#000000;fill-opacity:1;fill-rule:nonzero;stroke:none"
         id="path86"
         inkscape:connector-curvature="0" /><path
         inkscape:connector-curvature="0"
         id="path96"
         style="fill:url(#linearGradient4157);fill-opacity:1;fill-rule:nonzero;stroke:none"
         d="m 145.691,68.387 0.739,8.226 -5.461,6.387 8.058,1.797 4.328,6.82 4.274,-6.785 7.871,-2.027 -5.129,-6.117 0.32,-8.063 -7.461,3.02 -7.539,-3.258 z" /><g
         id="g98"><g
           id="g100" /><g
           id="g122"
           mask="url(#mask112)"><g
             id="g124" /><g
             id="g136"><g
               clip-path="url(#clipPath126)"
               id="g138"><g
                 id="g140"><g
                   transform="matrix(1,0,0,-1,0,192)"
                   id="g142"><path
                     d="m 145.691,123.613 0.739,-8.226 -5.461,-6.387 8.058,-1.797 4.328,-6.82 4.274,6.785 7.871,2.027 -5.129,6.117 0.32,8.063 -7.461,-3.02 -7.539,3.258 z"
                     style="fill:none;stroke:url(#linearGradient4161);stroke-width:0.165344;stroke-linecap:butt;stroke-linejoin:miter;stroke-miterlimit:4;stroke-opacity:1;stroke-dasharray:none"
                     id="path144"
                     inkscape:connector-curvature="0" /></g></g></g></g></g></g><path
         d="m 145.812,68.102 c -0.113,0 -0.257,0.05 -0.32,0.109 -0.058,0.062 -0.109,0.34 -0.113,0.621 0,0.281 0.199,2.129 0.445,4.109 0.438,3.567 0.442,3.606 0.125,3.997 -0.176,0.218 -1.414,1.566 -2.758,2.996 -1.359,1.449 -2.437,2.738 -2.437,2.91 0,0.172 0.164,0.375 0.371,0.449 0.203,0.074 2.035,0.453 4.066,0.844 l 3.7,0.707 c 0.832,1.402 1.625,2.832 2.425,4.258 1.372,2.449 1.676,2.894 2.004,2.894 0.328,0 0.657,-0.492 2.246,-3.359 1.028,-1.852 1.946,-3.461 2.047,-3.582 0.102,-0.121 1.801,-0.528 3.856,-0.922 2.019,-0.383 3.84,-0.801 4.047,-0.93 0.203,-0.125 0.371,-0.332 0.371,-0.457 0,-0.125 -1.172,-1.473 -2.606,-2.988 -1.433,-1.52 -2.672,-2.906 -2.754,-3.082 -0.101,-0.211 0.004,-1.606 0.313,-4.102 0.254,-2.078 0.418,-3.902 0.359,-4.047 -0.054,-0.148 -0.207,-0.308 -0.336,-0.355 -0.125,-0.051 -1.84,0.656 -3.808,1.574 -1.969,0.914 -3.657,1.664 -3.754,1.664 -0.094,0 -1.774,-0.746 -3.727,-1.656 -1.953,-0.906 -3.644,-1.652 -3.762,-1.652 z m 0.477,0.828 c 0.125,0 1.625,0.66 3.34,1.465 1.711,0.804 3.262,1.511 3.441,1.566 0.227,0.07 1.422,-0.402 3.7,-1.465 1.855,-0.863 3.484,-1.566 3.621,-1.566 0.211,0 0.234,0.187 0.144,1.199 -0.058,0.656 -0.262,2.406 -0.449,3.887 l -0.344,2.687 0.715,0.817 c 0.395,0.445 1.59,1.738 2.66,2.867 1.067,1.133 1.942,2.144 1.942,2.25 0,0.105 -0.094,0.226 -0.207,0.265 -0.114,0.043 -1.805,0.375 -3.758,0.743 -2.035,0.378 -3.649,0.765 -3.785,0.898 -0.129,0.129 -1.032,1.672 -2.008,3.43 -0.977,1.757 -1.871,3.195 -1.992,3.195 -0.118,0 -1.012,-1.434 -1.985,-3.184 -0.972,-1.754 -1.855,-3.289 -1.957,-3.414 -0.109,-0.129 -1.742,-0.523 -3.906,-0.937 -2.043,-0.391 -3.805,-0.766 -3.91,-0.836 -0.133,-0.078 0.496,-0.863 1.859,-2.324 1.133,-1.211 2.375,-2.555 2.762,-2.985 0.633,-0.707 0.695,-0.847 0.605,-1.406 -0.05,-0.344 -0.265,-2.035 -0.472,-3.766 -0.203,-1.726 -0.344,-3.195 -0.309,-3.265 0.039,-0.067 0.168,-0.121 0.293,-0.121 z"
         style="fill:#000000;fill-opacity:1;fill-rule:nonzero;stroke:none"
         id="path146"
         inkscape:connector-curvature="0" /><g
         id="g148"><path
           d="m 116.891,68.387 0.742,8.226 -5.465,6.387 8.062,1.797 4.325,6.82 4.273,-6.785 7.871,-2.027 -5.129,-6.117 0.325,-8.063 -7.465,3.02 -7.539,-3.258 z"
           style="fill:url(#linearGradient4163);fill-opacity:1;fill-rule:nonzero;stroke:none"
           id="path156"
           inkscape:connector-curvature="0" /></g><g
         id="g158"><g
           id="g160" /><g
           id="g182"
           mask="url(#mask172)"><g
             id="g184" /><g
             id="g196"><g
               clip-path="url(#clipPath186)"
               id="g198"><g
                 id="g200"><g
                   transform="matrix(1,0,0,-1,0,192)"
                   id="g202"><path
                     d="m 116.891,123.613 0.742,-8.226 -5.465,-6.387 8.062,-1.797 4.325,-6.82 4.273,6.785 7.871,2.027 -5.129,6.117 0.325,8.063 -7.465,-3.02 -7.539,3.258 z"
                     style="fill:none;stroke:url(#linearGradient4165);stroke-width:0.165344;stroke-linecap:butt;stroke-linejoin:miter;stroke-miterlimit:4;stroke-opacity:1;stroke-dasharray:none"
                     id="path204"
                     inkscape:connector-curvature="0" /></g></g></g></g></g></g><path
         d="m 117.012,68.102 c -0.114,0 -0.258,0.05 -0.321,0.109 -0.058,0.062 -0.109,0.34 -0.109,0.621 -0.004,0.281 0.195,2.129 0.441,4.109 0.442,3.567 0.442,3.606 0.125,3.997 -0.175,0.218 -1.414,1.566 -2.757,2.996 -1.36,1.449 -2.438,2.738 -2.438,2.91 0,0.172 0.168,0.375 0.371,0.449 0.207,0.074 2.035,0.453 4.071,0.844 l 3.695,0.707 c 0.836,1.402 1.625,2.832 2.426,4.258 1.371,2.449 1.679,2.894 2.004,2.894 0.328,0 0.656,-0.492 2.246,-3.359 1.027,-1.852 1.949,-3.461 2.046,-3.582 0.106,-0.121 1.801,-0.528 3.856,-0.922 2.02,-0.383 3.84,-0.801 4.047,-0.93 0.203,-0.125 0.371,-0.332 0.371,-0.457 0,-0.125 -1.172,-1.473 -2.606,-2.988 -1.429,-1.52 -2.671,-2.906 -2.753,-3.082 -0.102,-0.211 0.003,-1.606 0.312,-4.102 0.254,-2.078 0.418,-3.902 0.359,-4.047 -0.054,-0.148 -0.207,-0.308 -0.332,-0.355 -0.128,-0.051 -1.843,0.656 -3.812,1.574 -1.969,0.914 -3.656,1.664 -3.75,1.664 -0.098,0 -1.774,-0.746 -3.731,-1.656 -1.953,-0.906 -3.644,-1.652 -3.761,-1.652 z m 0.476,0.828 c 0.125,0 1.629,0.66 3.34,1.465 1.711,0.804 3.262,1.511 3.445,1.566 0.223,0.07 1.418,-0.402 3.7,-1.465 1.851,-0.863 3.48,-1.566 3.617,-1.566 0.211,0 0.234,0.187 0.144,1.199 -0.058,0.656 -0.261,2.406 -0.449,3.887 l -0.344,2.687 0.715,0.817 c 0.395,0.445 1.59,1.738 2.66,2.867 1.067,1.133 1.942,2.144 1.942,2.25 0,0.105 -0.094,0.226 -0.207,0.265 -0.113,0.043 -1.805,0.375 -3.754,0.743 -2.039,0.378 -3.652,0.765 -3.789,0.898 -0.129,0.129 -1.031,1.672 -2.008,3.43 -0.977,1.757 -1.871,3.195 -1.992,3.195 -0.117,0 -1.012,-1.434 -1.985,-3.184 -0.972,-1.754 -1.851,-3.289 -1.957,-3.414 -0.109,-0.129 -1.742,-0.523 -3.902,-0.937 -2.047,-0.391 -3.805,-0.766 -3.914,-0.836 -0.133,-0.078 0.496,-0.863 1.859,-2.324 1.133,-1.211 2.375,-2.555 2.762,-2.985 0.637,-0.707 0.695,-0.847 0.606,-1.406 -0.051,-0.344 -0.266,-2.035 -0.469,-3.766 -0.207,-1.726 -0.348,-3.195 -0.309,-3.265 0.035,-0.067 0.168,-0.121 0.289,-0.121 z"
         style="fill:#000000;fill-opacity:1;fill-rule:nonzero;stroke:none"
         id="path206"
         inkscape:connector-curvature="0" /><path
         inkscape:connector-curvature="0"
         id="path216"
         style="fill:url(#linearGradient4152);fill-opacity:1;fill-rule:nonzero;stroke:none"
         d="m 88.09,68.387 0.742,8.226 -5.465,6.387 8.063,1.797 4.324,6.82 4.273,-6.785 7.875,-2.027 -5.132,-6.117 0.324,-8.063 -7.461,3.02 -7.543,-3.258 z" /><g
         id="g218"><g
           id="g220" /><g
           id="g242"
           mask="url(#mask232)"><g
             id="g244" /><g
             id="g256"><g
               clip-path="url(#clipPath246)"
               id="g258"><g
                 id="g260"><g
                   transform="matrix(1,0,0,-1,0,192)"
                   id="g262"><path
                     d="m 88.09,123.613 0.742,-8.226 -5.465,-6.387 8.063,-1.797 4.324,-6.82 4.273,6.785 7.875,2.027 -5.132,6.117 0.324,8.063 -7.461,-3.02 -7.543,3.258 z"
                     style="fill:none;stroke:url(#linearGradient4167);stroke-width:0.165344;stroke-linecap:butt;stroke-linejoin:miter;stroke-miterlimit:4;stroke-opacity:1;stroke-dasharray:none"
                     id="path264"
                     inkscape:connector-curvature="0" /></g></g></g></g></g></g><path
         d="m 88.215,68.102 c -0.117,0 -0.262,0.05 -0.32,0.109 -0.063,0.062 -0.114,0.34 -0.114,0.621 -0.004,0.281 0.196,2.129 0.442,4.109 0.441,3.567 0.441,3.606 0.125,3.997 -0.172,0.218 -1.414,1.566 -2.754,2.996 -1.364,1.449 -2.442,2.738 -2.442,2.91 0,0.172 0.168,0.375 0.375,0.449 0.203,0.074 2.032,0.453 4.067,0.844 l 3.695,0.707 c 0.836,1.402 1.629,2.832 2.426,4.258 1.371,2.449 1.68,2.894 2.004,2.894 0.328,0 0.656,-0.492 2.25,-3.359 1.023,-1.852 1.945,-3.461 2.047,-3.582 0.101,-0.121 1.796,-0.528 3.855,-0.922 2.02,-0.383 3.84,-0.801 4.043,-0.93 0.203,-0.125 0.371,-0.332 0.371,-0.457 0,-0.125 -1.172,-1.473 -2.605,-2.988 -1.43,-1.52 -2.672,-2.906 -2.754,-3.082 -0.102,-0.211 0.008,-1.606 0.312,-4.102 0.254,-2.078 0.418,-3.902 0.364,-4.047 -0.059,-0.148 -0.207,-0.308 -0.336,-0.355 -0.129,-0.051 -1.844,0.656 -3.813,1.574 -1.965,0.914 -3.656,1.664 -3.75,1.664 -0.098,0 -1.773,-0.746 -3.726,-1.656 -1.957,-0.906 -3.649,-1.652 -3.762,-1.652 z m 0.473,0.828 c 0.124,0 1.628,0.66 3.339,1.465 1.711,0.804 3.262,1.511 3.446,1.566 0.222,0.07 1.418,-0.402 3.699,-1.465 1.851,-0.863 3.48,-1.566 3.617,-1.566 0.215,0 0.234,0.187 0.145,1.199 -0.059,0.656 -0.262,2.406 -0.45,3.887 l -0.343,2.687 0.718,0.817 c 0.391,0.445 1.59,1.738 2.657,2.867 1.07,1.133 1.941,2.144 1.941,2.25 0,0.105 -0.09,0.226 -0.203,0.265 -0.117,0.043 -1.805,0.375 -3.758,0.743 -2.039,0.378 -3.652,0.765 -3.785,0.898 -0.133,0.129 -1.035,1.672 -2.012,3.43 -0.976,1.757 -1.871,3.195 -1.988,3.195 -0.121,0 -1.016,-1.434 -1.988,-3.184 -0.973,-1.754 -1.852,-3.289 -1.957,-3.414 -0.11,-0.129 -1.743,-0.523 -3.903,-0.937 -2.043,-0.391 -3.804,-0.766 -3.914,-0.836 -0.133,-0.078 0.496,-0.863 1.86,-2.324 1.132,-1.211 2.375,-2.555 2.761,-2.985 0.637,-0.707 0.696,-0.847 0.61,-1.406 -0.055,-0.344 -0.266,-2.035 -0.473,-3.766 -0.207,-1.726 -0.348,-3.195 -0.309,-3.265 0.036,-0.067 0.168,-0.121 0.29,-0.121 z"
         style="fill:#000000;fill-opacity:1;fill-rule:nonzero;stroke:none"
         id="path266"
         inkscape:connector-curvature="0" /><path
         inkscape:connector-curvature="0"
         id="path276"
         style="fill:url(#linearGradient4142);fill-opacity:1;fill-rule:nonzero;stroke:none"
         d="m 59.691,68.387 0.739,8.226 -5.461,6.387 8.058,1.797 4.328,6.82 4.274,-6.785 7.871,-2.027 -5.129,-6.117 0.32,-8.063 -7.461,3.02 -7.539,-3.258 z" /><g
         id="g278"><g
           id="g280" /><g
           id="g302"
           mask="url(#mask292)"><g
             id="g304" /><g
             id="g316"><g
               clip-path="url(#clipPath306)"
               id="g318"><g
                 id="g320"><g
                   transform="matrix(1,0,0,-1,0,192)"
                   id="g322"><path
                     d="m 59.691,123.613 0.739,-8.226 -5.461,-6.387 8.058,-1.797 4.328,-6.82 4.274,6.785 7.871,2.027 -5.129,6.117 0.32,8.063 -7.461,-3.02 -7.539,3.258 z"
                     style="fill:none;stroke:url(#linearGradient4169);stroke-width:0.165344;stroke-linecap:butt;stroke-linejoin:miter;stroke-miterlimit:4;stroke-opacity:1;stroke-dasharray:none"
                     id="path324"
                     inkscape:connector-curvature="0" /></g></g></g></g></g></g><path
         d="m 59.812,68.102 c -0.113,0 -0.257,0.05 -0.32,0.109 -0.058,0.062 -0.109,0.34 -0.113,0.621 0,0.281 0.199,2.129 0.445,4.109 0.442,3.567 0.442,3.606 0.125,3.997 -0.176,0.218 -1.414,1.566 -2.758,2.996 -1.359,1.449 -2.437,2.738 -2.437,2.91 0,0.172 0.164,0.375 0.371,0.449 0.203,0.074 2.035,0.453 4.066,0.844 l 3.7,0.707 c 0.832,1.402 1.625,2.832 2.425,4.258 1.372,2.449 1.676,2.894 2.004,2.894 0.328,0 0.657,-0.492 2.246,-3.359 1.028,-1.852 1.946,-3.461 2.047,-3.582 0.102,-0.121 1.801,-0.528 3.856,-0.922 2.019,-0.383 3.84,-0.801 4.047,-0.93 0.203,-0.125 0.371,-0.332 0.371,-0.457 0,-0.125 -1.172,-1.473 -2.606,-2.988 -1.433,-1.52 -2.672,-2.906 -2.754,-3.082 -0.101,-0.211 0.004,-1.606 0.313,-4.102 0.254,-2.078 0.418,-3.902 0.359,-4.047 -0.054,-0.148 -0.207,-0.308 -0.336,-0.355 -0.125,-0.051 -1.84,0.656 -3.808,1.574 -1.969,0.914 -3.657,1.664 -3.754,1.664 -0.094,0 -1.774,-0.746 -3.727,-1.656 -1.953,-0.906 -3.644,-1.652 -3.762,-1.652 z m 0.477,0.828 c 0.125,0 1.625,0.66 3.34,1.465 1.711,0.804 3.262,1.511 3.441,1.566 0.227,0.07 1.422,-0.402 3.7,-1.465 1.855,-0.863 3.484,-1.566 3.621,-1.566 0.211,0 0.234,0.187 0.144,1.199 -0.058,0.656 -0.262,2.406 -0.449,3.887 l -0.344,2.687 0.715,0.817 c 0.395,0.445 1.59,1.738 2.66,2.867 1.067,1.133 1.942,2.144 1.942,2.25 0,0.105 -0.094,0.226 -0.207,0.265 -0.114,0.043 -1.805,0.375 -3.758,0.743 -2.035,0.378 -3.649,0.765 -3.785,0.898 -0.129,0.129 -1.032,1.672 -2.008,3.43 -0.977,1.757 -1.871,3.195 -1.992,3.195 -0.118,0 -1.012,-1.434 -1.985,-3.184 -0.972,-1.754 -1.855,-3.289 -1.957,-3.414 -0.109,-0.129 -1.742,-0.523 -3.906,-0.937 -2.043,-0.391 -3.805,-0.766 -3.91,-0.836 -0.133,-0.078 0.496,-0.863 1.859,-2.324 1.133,-1.211 2.375,-2.555 2.762,-2.985 0.633,-0.707 0.695,-0.847 0.605,-1.406 -0.05,-0.344 -0.265,-2.035 -0.472,-3.766 -0.203,-1.726 -0.344,-3.195 -0.309,-3.265 0.039,-0.067 0.168,-0.121 0.293,-0.121 z"
         style="fill:#000000;fill-opacity:1;fill-rule:nonzero;stroke:none"
         id="path326"
         inkscape:connector-curvature="0" /></g></g></svg>