<?xml version="1.0" encoding="UTF-8" standalone="no"?>
<!-- Created with Inkscape (http://www.inkscape.org/) -->

<svg
   xmlns:dc="http://purl.org/dc/elements/1.1/"
   xmlns:cc="http://creativecommons.org/ns#"
   xmlns:rdf="http://www.w3.org/1999/02/22-rdf-syntax-ns#"
   xmlns:svg="http://www.w3.org/2000/svg"
   xmlns="http://www.w3.org/2000/svg"
   xmlns:sodipodi="http://sodipodi.sourceforge.net/DTD/sodipodi-0.dtd"
   xmlns:inkscape="http://www.inkscape.org/namespaces/inkscape"
   width="57.744843"
   height="63.197823"
   id="svg5088"
   version="1.1"
   inkscape:version="0.48.2 r9819"
   sodipodi:docname="V_checked.svg">
  <defs
     id="defs5090">
    <filter
       id="filter3818"
       inkscape:label="Drop shadow"
       width="1.5"
       height="1.5"
       x="-0.25"
       y="-0.25"
       color-interpolation-filters="sRGB">
      <feGaussianBlur
         id="feGaussianBlur3820"
         in="SourceAlpha"
         stdDeviation="2.2"
         result="blur" />
      <feColorMatrix
         id="feColorMatrix3822"
         result="bluralpha"
         type="matrix"
         values="1 0 0 0 0 0 1 0 0 0 0 0 1 0 0 0 0 0 0.5 0 " />
      <feOffset
         id="feOffset3824"
         in="bluralpha"
         dx="4.57967e-15"
         dy="6"
         result="offsetBlur" />
      <feMerge
         id="feMerge3826">
        <feMergeNode
           id="feMergeNode3828"
           in="offsetBlur" />
        <feMergeNode
           id="feMergeNode3830"
           in="SourceGraphic" />
      </feMerge>
    </filter>
  </defs>
  <sodipodi:namedview
     id="base"
     pagecolor="#ffffff"
     bordercolor="#666666"
     borderopacity="1.0"
     inkscape:pageopacity="0.0"
     inkscape:pageshadow="2"
     inkscape:zoom="0.55048947"
     inkscape:cx="683.87928"
     inkscape:cy="-507.08573"
     inkscape:current-layer="layer1"
     inkscape:document-units="px"
     showgrid="false"
     inkscape:window-width="1630"
     inkscape:window-height="1000"
     inkscape:window-x="207"
     inkscape:window-y="27"
     inkscape:window-maximized="0"
     fit-margin-top="0"
     fit-margin-left="0"
     fit-margin-right="0"
     fit-margin-bottom="0" />
  <metadata
     id="metadata5093">
    <rdf:RDF>
      <cc:Work
         rdf:about="">
        <dc:format>image/svg+xml</dc:format>
        <dc:type
           rdf:resource="http://purl.org/dc/dcmitype/StillImage" />
        <dc:title></dc:title>
      </cc:Work>
    </rdf:RDF>
  </metadata>
  <g
     id="layer1"
     inkscape:label="Layer 1"
     inkscape:groupmode="layer"
     transform="translate(-32.789194,-27.935534)">
    <g
       id="g3050"
       transform="translate(-555.86894,-535.88673)">
      <path
         sodipodi:nodetypes="cscscscccccsccscc"
         inkscape:connector-curvature="0"
         d="m 603.16611,564.86532 c 4.89458,7.76185 10.09104,15.35042 14.48938,23.41482 3.31635,6.08053 3.97667,7.87697 6.73266,14.05642 2.26489,4.43496 1.08704,11.00197 3.83297,15.20854 0.34111,0.52256 -1.67011,0.33451 -1.04763,0.29025 0.5033,-0.0358 3.17592,-0.56422 2.69632,-0.40746 -4.41504,1.44311 -6.1851,2.20063 -10.44786,4.04562 0.24901,-6.61403 -0.29678,-13.22762 -0.67262,-19.82559 l 11.1147,-7.38755 0.42553,0 c 0.50776,6.5667 -1.06737,15.25625 0.75791,21.81956 -4.52246,3.78044 -6.45073,6.39766 -11.22695,9.85195 -1.15882,0.83808 -2.61135,-2.12959 -2.6794,-2.26117 -2.32742,-4.49977 -3.53033,-9.50231 -5.60354,-14.10811 -0.95703,-2.26006 -1.83735,-4.55417 -2.8711,-6.78019 -4.97883,-10.72127 -11.54653,-20.70993 -19.06902,-29.80735 z"
         id="path4005"
         style="color:#000000;fill:#000000;fill-opacity:1;fill-rule:nonzero;stroke:#000000;stroke-width:1.87865269;stroke-linecap:butt;stroke-linejoin:miter;stroke-miterlimit:4;stroke-opacity:1;stroke-dasharray:none;marker:none;visibility:visible;display:inline;overflow:visible;enable-background:accumulate" />
      <path
         sodipodi:nodetypes="cscccccscc"
         inkscape:connector-curvature="0"
         d="m 618.34694,609.83055 c 0.26614,-4.975 -0.13444,-10.04996 0.90301,-14.9638 0.28892,-1.36844 0.77305,-2.68828 1.15958,-4.03242 2.71043,-7.042 6.17072,-13.89561 10.70652,-19.94598 l 14.3476,-6.12676 0,0 c -4.89732,5.69993 -8.32403,12.59734 -11.1719,19.50559 -0.40076,1.25861 -0.90646,2.4885 -1.20229,3.77582 -1.09558,4.76756 -2.78236,9.94763 -2.70499,14.78279 z"
         id="path4007"
         style="color:#000000;fill:#000000;fill-opacity:1;fill-rule:nonzero;stroke:#000000;stroke-width:1.87865269;stroke-linecap:butt;stroke-linejoin:miter;stroke-miterlimit:4;stroke-opacity:1;stroke-dasharray:none;marker:none;visibility:visible;display:inline;overflow:visible;enable-background:accumulate" />
    </g>
  </g>
</svg>
