<?xml version="1.0" encoding="UTF-8" standalone="no"?>
<!-- Generator: Adobe Illustrator 12.0.1, SVG Export Plug-In . SVG Version: 6.00 Build 51448)  -->

<svg
   xmlns:dc="http://purl.org/dc/elements/1.1/"
   xmlns:cc="http://creativecommons.org/ns#"
   xmlns:rdf="http://www.w3.org/1999/02/22-rdf-syntax-ns#"
   xmlns:svg="http://www.w3.org/2000/svg"
   xmlns="http://www.w3.org/2000/svg"
   xmlns:sodipodi="http://sodipodi.sourceforge.net/DTD/sodipodi-0.dtd"
   xmlns:inkscape="http://www.inkscape.org/namespaces/inkscape"
   version="1.1"
   width="128"
   height="128"
   viewBox="0 0 128 128"
   overflow="visible"
   enable-background="new 0 0 223.17236 207.59424"
   xml:space="preserve"
   id="svg3123"
   inkscape:version="0.48.1 r9760"
   sodipodi:docname="icecube.svg"
   style="overflow:visible"
   inkscape:export-filename="/Users/andrew/Downloads/icecube.png"
   inkscape:export-xdpi="90"
   inkscape:export-ydpi="90"><metadata
   id="metadata3183"><rdf:RDF><cc:Work
       rdf:about=""><dc:format>image/svg+xml</dc:format><dc:type
         rdf:resource="http://purl.org/dc/dcmitype/StillImage" /><dc:title></dc:title></cc:Work></rdf:RDF></metadata><defs
   id="defs3181">
	
	
	
	
	
	
	
	
	
	
	
	

</defs><sodipodi:namedview
   pagecolor="#ffffff"
   bordercolor="#666666"
   borderopacity="1"
   objecttolerance="10"
   gridtolerance="10"
   guidetolerance="10"
   inkscape:pageopacity="0"
   inkscape:pageshadow="2"
   inkscape:window-width="1280"
   inkscape:window-height="671"
   id="namedview3179"
   showgrid="false"
   inkscape:zoom="3.5390625"
   inkscape:cx="64"
   inkscape:cy="64"
   inkscape:window-x="0"
   inkscape:window-y="0"
   inkscape:window-maximized="1"
   inkscape:current-layer="svg3123" />
<g
   id="g3284"
   transform="matrix(1.0523772,0,0,1.0523772,1.2654022e-6,-3.0851222)"><path
     d="m 68.891137,4.467262 50.167053,15.016173 c 0,0 2.33061,63.202415 -0.28509,88.316465 -20.381714,-6.22222 -55.665063,-20.550303 -55.665063,-20.550303 0,0 -54.035994,26.744533 -58.5986225,22.822103 C -0.05349505,106.14927 1.5007999,14.695368 1.5007999,14.695368 L 68.891137,4.467262 z"
     id="path3126"
     inkscape:connector-curvature="0"
     style="fill:#30eefb" /><g
     transform="matrix(0.57354904,0,0,0.57354904,-1.3054395e-7,4.467262)"
     id="g3134">
		<g
   id="g3136">
			<path
   d="m 123.84619,35.54297 c -1.50098,45.99951 -2.88574,67.85693 -5.45508,111.79639"
   id="path3138"
   inkscape:connector-curvature="0"
   style="fill:none" />
			<path
   d="m 118.84619,35.54297 c -1.22461,37.30029 -3.27539,74.5415 -5.45508,111.79639 -0.16504,2.82422 0.94238,10 5,10 4.28125,0 4.83398,-7.16797 5,-10 2.17969,-37.25488 4.23047,-74.49609 5.45508,-111.79639 0.0928,-2.8291 -0.89355,-10 -5,-10 -4.23242,0 -4.90723,7.1665 -5,10 l 0,0 z"
   id="path3140"
   inkscape:connector-curvature="0"
   style="fill:#3ec3f7" />
		</g>
	</g><path
     d="M 69.238404,4.5714414 C 77.676406,7.4624326 120.27475,16.046902 120.05294,19.460471 119.89668,21.846526 72.022136,30.469922 68.747194,29.429808 48.643009,23.044871 21.401111,15.774971 -1.3054395e-7,15.789814 L 69.238404,4.5714414 z"
     id="path3142"
     inkscape:connector-curvature="0"
     style="opacity:0.65;fill:#d8fcfd" /><path
     d="m 64.344752,86.397676 c 0,0 54.428348,17.568304 54.428348,21.402224 0,3.83393 -50.559135,15.22538 -50.559135,15.22538 0,0 -49.825111,-8.05769 -62.8775502,-13.73941 C -7.7157489,103.60415 64.344752,86.397676 64.344752,86.397676 z"
     id="path3144"
     inkscape:connector-curvature="0"
     style="fill:#3ec3f7" /><g
     transform="matrix(0.57354904,0,0,0.57354904,-1.3054395e-7,4.467262)"
     id="g3146"
     style="opacity:0.4">
		<path
   clip-rule="evenodd"
   d="m 205.64111,28.13721 c -9.2627,2.87549 -81.55078,13.56494 -81.83887,18.68457 -1.55371,27.63086 -2.58984,55.31738 -2.74609,82.99121 -0.0889,15.78906 -0.11523,31.72559 1.58105,47.44824 0.10645,0.98145 3.99609,23.65723 8.45996,15.81152 6.12598,-10.76953 -1.87012,-33.44336 -3.71191,-44.72363 -2.37598,-14.57422 2.01367,-27.80859 7.21777,-41.61133 8.33203,-22.09717 27.69141,-8.30957 26.77832,11.21777 -0.65039,13.9043 -9.77051,31.88672 -12.56543,46.04199 -1.85156,9.38379 -4.27734,25.07422 2.73926,33.36426 6.22559,7.35645 35.44727,-10.54102 41.3584,-13.68555 26.00391,-13.83105 18.03613,-39.94141 17.88574,-66.20508 -0.10449,-18.41895 -0.3877,-36.8457 -1.20508,-55.24805 -0.32323,-7.30565 1.87306,-28.19774 -3.95312,-34.08592"
   id="path3148"
   inkscape:connector-curvature="0"
   style="fill:#d8fcfd;fill-rule:evenodd" />
	</g><g
     transform="matrix(0.57354904,0,0,0.57354904,-1.3054395e-7,4.467262)"
     id="g3150"
     style="opacity:0.4">
		<path
   clip-rule="evenodd"
   d="m 87.51367,13.68896 c 28.32568,8.12988 47.3833,33.41992 77.75146,19.35693 C 152.87939,22.24854 111.51123,10.19678 87.51367,13.68896 z"
   id="path3152"
   inkscape:connector-curvature="0"
   style="fill:#cafcfc;fill-rule:evenodd" />
		<g
   id="g3154">
			<path
   d="m 87.51367,13.68896 c 28.32568,8.12988 47.3833,33.41992 77.75146,19.35693 C 152.87939,22.24854 111.51123,10.19678 87.51367,13.68896 z"
   id="path3156"
   inkscape:connector-curvature="0"
   style="fill:none" />
			<g
   id="g3158">
				<path
   d="m 146.69775,47.47705 c 0.0146,-0.4043 -0.26465,-0.80566 0.18359,-0.99561 1.38477,-0.41699 2.56348,0.98096 3.9707,0.45312 l 0.0537,-0.65869 c 1.10254,0.19775 2.27734,0.46289 3.47559,0.5708 2.125,-0.38281 4.17871,-0.99805 6.11816,-1.76709 -0.11621,-0.21484 -0.19727,-0.41895 -0.0244,-0.55957 0.7666,-0.41113 1.98828,-0.4834 3.13965,-0.85107 l 0.46582,-0.28613 c 0.082,-0.17871 0.0381,-0.40674 0.0107,-0.54639 0.51758,-0.16162 0.99316,-0.2666 1.44043,-0.354 l 1.82129,-1.30225 0.89648,-0.66113 0.22266,-0.16602 0.11133,-0.08301 0.0137,-0.01025 0.003,-0.0024 c 0.84082,-5.8877 -1.875,13.1748 1.88477,-13.2002 l -0.009,-0.0044 -0.0342,-0.01709 -0.0693,-0.03418 -0.55371,-0.27051 c -1.4707,-0.67188 -2.9668,-1.49658 -4.39355,-1.8916 -2.88379,-1.02539 -5.74023,-1.6792 -8.65723,-2.28369 -1.36328,0.03223 -2.70312,0.07812 -3.8584,-0.15186 -1.65332,-0.45166 -3.49805,-1.62695 -5.00488,-2.33057 -0.60742,2.21777 -4.69824,1.95264 -4.74219,4.4126 -0.97461,-0.40186 -2.43945,-1.021 -2.72852,-0.41895 -0.85938,1.77832 -2.35059,3.6709 -5.26855,3.97412 -1.07617,-0.07617 -2.41113,-1.30225 -2.88477,-1.02148 -0.7373,0.44434 0.93066,1.69531 0.18945,2.13818 7.20117,2.84912 14.57031,4.70117 20.86914,8.10107 0.71582,0.04102 1.98633,0.58984 3.61816,1.39648 0.45117,0.19824 0.70215,0.4248 1.09277,0.65186 l 0.55762,0.35107 0.28809,0.17969 0.14648,0.09082 0.0732,0.0459 0.0371,0.02295 0.0186,0.01123 0.01,0.0059 0.005,0.0029 c -0.47363,3.34229 4.14746,-29.0957 2.1875,-15.36328 -0.99316,0.46582 -2.03906,1.06836 -3.12305,1.45752 -4.31445,1.88232 -8.96094,2.23828 -10.83398,1.97266 l -0.34082,0.03662 c -2.05078,-0.14404 -4.53516,-0.29053 -6.55078,0.16846 -0.95117,0.3501 -1.98535,0.79004 -3.05078,1.13477 l 0.85254,1.41602 c -0.91992,-0.31299 -1.83105,-0.60254 -2.3125,-0.32227 -2.29297,0.2876 -1.56348,1.73975 -1.19336,3.5127 0.39941,0.84375 -0.7373,1.61133 0.0332,2.55713 -0.69922,-0.22021 -1.03125,-0.37598 -1.71973,-0.62842 -0.2832,0.60693 2.24316,0.36816 1.4541,1.23145 -0.61523,-0.4292 -1.48145,-0.31592 -2.18066,-0.57178 -0.0391,0.9248 2.34863,1.11572 2.00391,1.89307 -0.47559,0.10303 -1.65918,-1.76855 -2.13672,-0.77539 -0.0967,0.19824 0.61328,0.46436 0.96875,0.59863 -2.30859,-0.3877 -3.91699,0.104 -2.23828,1.95801 -0.73047,-0.26367 -1.56055,-1.09131 -2.36719,-1.22314 l -9.8e-4,0.01855 c 0.36133,0.17285 0.93066,0.625 1.27441,0.76758 l -1.26367,-0.53076 0.0635,0.50781 c 0.27441,0.24463 0.56152,0.46533 0.89258,0.60596 l -0.84692,-0.356 c 0.0898,0.41162 0.2207,0.82373 0.38574,1.22754 0.77832,1.05615 1.52832,2.34668 2.1084,2.57227 4.61721,2.04687 9.96194,3.41552 15.44631,3.59374 z"
   id="path3160"
   inkscape:connector-curvature="0"
   style="fill:#d6eef4" />
			</g>
		</g>
	</g><path
     clip-rule="evenodd"
     d="M 8.4699312,102.29574 C 6.9268377,83.862635 6.7540445,62.213395 7.9501524,37.352511 19.780439,12.186928 19.953794,33.836168 8.4699312,102.29574 z"
     id="path3162"
     inkscape:connector-curvature="0"
     style="opacity:0.5;fill:#d8fcfd;fill-rule:evenodd" /><g
     transform="matrix(0.57354904,0,0,0.57354904,-1.3054395e-7,4.467262)"
     id="g3164"
     style="opacity:0.65">
		<path
   clip-rule="evenodd"
   d="M 122.45752,46.8501 C 117.43604,31.20655 30.69678,21.91016 14.34473,21.16114 c -8.69824,-0.39746 -7.396,97.7876 -7.37256,106.81494 0.04297,16.79492 -0.22363,33.86133 1.70752,50.58398 1.88818,16.35547 29.48389,14.19727 43.17676,16.3457 6.24951,0.98242 50.11523,12.59375 42.5752,-2.03711 -8.08252,-15.68555 -16.54004,-12.35156 -31.92773,-11.30664 -3.78174,0.25586 -28.06787,-8.11328 -27.92871,-10.96484 0.04395,-0.91406 15.56152,-7.55664 17.03711,-8.76172 8.35059,-6.82422 8.72998,-15.99414 7.68213,-25.54688 -2.17285,-19.81445 2.98828,-56.21484 8.08203,-71.2085 4.21387,-12.4043 18.42041,32.79883 18.42041,32.79883 0,0 -10.23633,28.68701 -4.43555,47.73975 1.93018,6.33789 6.40674,34.34961 17.83154,32.28711 14.87695,-2.68555 16.0752,-17.03711 17.04297,-27.7832 1.72754,-19.19922 3.30762,-38.41406 4.66016,-57.63916 0.93358,-13.26319 5.74706,-32.59375 1.56151,-45.6333"
   id="path3166"
   inkscape:connector-curvature="0"
   style="fill:#d8fcfd;fill-rule:evenodd" />
	</g><g
     transform="matrix(0.57354904,0,0,0.57354904,-1.3054395e-7,4.467262)"
     id="g3168"
     style="opacity:0.45">
		<g
   id="g3170">
			<path
   d="m 100.76514,47.06055 c 6.03027,21.68359 12.05957,81.31787 -2.0083,113.06787"
   id="path3172"
   inkscape:connector-curvature="0"
   style="fill:none" />
			<g
   id="g3174">
				<path
   d="m 95.31689,75.17334 c 0.40283,-0.03271 0.76172,-0.44336 1.0127,0.10254 0.60693,1.74414 -0.60889,3.32227 -0.06934,5.07373 l 0.66113,0.06787 c -0.15039,1.41504 -0.37988,2.89014 -0.55127,4.38623 0.26123,2.70996 0.61523,5.40332 0.979,8.08887 0.23535,-0.08203 0.45264,-0.12695 0.55029,0.13867 0.21631,1.11523 0.04541,2.68262 0.0376,4.29688 l 0.14014,0.70703 c 0.14746,0.17871 0.37891,0.21973 0.52051,0.24512 0.0019,0.73047 -0.02539,1.38281 -0.0874,1.98438 1.42725,7.89307 2.78613,15.99268 3.53613,24.88916 0.4082,1.89844 0.81543,3.82227 0.90283,5.65234 -0.0698,2.68359 -1.06006,5.97656 -1.52051,8.51953 2.35986,-0.0156 2.11719,6.5293 4.65723,5.79883 -0.36475,1.76562 -1.17627,4.36328 -0.6084,4.66797 1.70996,0.92188 3.69043,2.88281 3.10547,8.19531 -0.47607,2.03125 -2.37939,4.66211 -2.27832,5.48633 0.15332,1.31055 2.24219,-1.94336 2.40283,-0.64258 6.57715,-14.46094 7.47461,-28.69531 8.39062,-43.01172 -0.13867,-5.05664 -1.32812,-37.54736 -2.40625,-45.85742 l -0.11719,-0.75244 c -0.37305,-4.55225 -1.3125,-10.05371 -2.84473,-13.74854 -0.8584,-1.67285 -1.75977,-3.33057 -2.77197,-4.98486 -0.19287,0.89941 -0.42236,1.729 -0.68604,2.45264 -0.25195,-1.79639 -0.62549,-3.60645 -1.16016,-4.20605 -1.75439,-3.59717 -2.42578,-1.16113 -3.66699,0.5874 -0.46045,1.16602 -1.77686,0.0063 -2.1333,1.73682 -0.20508,-1.14844 -0.30762,-1.72461 -0.51123,-2.87988 -0.6665,0.0093 1.05664,3.45654 -0.15479,2.87988 0.01,-1.14502 -0.6123,-2.2998 -0.84668,-3.42969 -0.75049,0.57812 0.49756,4.00293 -0.38379,3.99951 -0.32373,-0.56006 0.50293,-3.43066 -0.60596,-3.41064 -0.21826,0.0039 -0.01904,1.14062 0.08154,1.70752 -1.06006,-3.41504 -2.60449,-4.90576 -2.97168,-1.61865 -0.23047,-1.05078 -0.15576,-2.65186 -0.57715,-3.72656 l -0.01465,0.01318 c 0.10352,0.56494 0.12354,1.57764 0.23682,2.09082 l -0.41406,-1.90234 -0.35596,0.44922 c -0.0127,0.50293 0,0.99854 0.10596,1.48926 l -0.27295,-1.25391 -0.72021,1.31299 c -0.30908,1.63574 -0.96582,3.23486 -0.8418,4.07178 0.89505,6.62107 1.57571,13.50534 2.25198,20.33347 z"
   id="path3176"
   inkscape:connector-curvature="0"
   style="fill:#ddfcfd" />
			</g>
		</g>
	</g></g>

</svg>