<?xml version="1.0" standalone="no"?>
<!DOCTYPE svg PUBLIC "-//W3C//DTD SVG 1.1//EN" "http://www.w3.org/Graphics/SVG/1.1/DTD/svg11.dtd" >
<svg xmlns="http://www.w3.org/2000/svg">
<metadata></metadata>
<defs>
<font id="oregon_ldoregular" horiz-adv-x="688" >
<font-face units-per-em="2048" ascent="1638" descent="-410" />
<missing-glyph horiz-adv-x="569" />
<glyph horiz-adv-x="2048" />
<glyph horiz-adv-x="2048" />
<glyph unicode="&#xd;" horiz-adv-x="569" />
<glyph unicode=" "  horiz-adv-x="569" />
<glyph unicode="&#x09;" horiz-adv-x="569" />
<glyph unicode="&#xa0;" horiz-adv-x="569" />
<glyph unicode="!" horiz-adv-x="356" d="M59 92q0 47 35 82t82 35t82 -35t35 -82t-35 -82t-82 -35t-82 35t-35 82zM76 1329q0 55 30.5 78t69.5 23t69.5 -23t30.5 -78q0 -10 -4 -60t-10 -127t-13 -173.5t-16.5 -201.5t-18.5 -213l-17 -204h-41q-8 96 -17.5 204t-18.5 213t-16.5 201.5t-13.5 173.5t-10 126t-4 61z " />
<glyph unicode="&#x22;" horiz-adv-x="591" d="M88 840v590h107v-590h-107zM393 840v590h107v-590h-107z" />
<glyph unicode="#" horiz-adv-x="905" d="M31 291q16 33 27.5 83t11.5 85h149l88 426h-153q16 33 27.5 83t11.5 85h149q16 78 26.5 129t16.5 84.5t10 52t6 31.5q20 -6 43 -7q20 0 43 7q-6 -12 -10 -24.5t-11 -42.5t-19.5 -84t-30.5 -146h233q16 78 26.5 129t16.5 84.5t10.5 52t6.5 31.5q20 -6 43 -7q20 0 43 7 q-6 -12 -10.5 -24.5t-11.5 -42.5t-19.5 -84t-30.5 -146h151q-14 -33 -26 -84t-12 -84h-150l-88 -426h154q-14 -33 -26.5 -84t-12.5 -84h-150q-16 -82 -27.5 -134.5t-17.5 -85t-9 -49t-5 -28.5q-10 2 -21.5 4t-21.5 2t-21.5 -2t-21.5 -4q4 12 8 24.5t12 42t19.5 84 t31.5 146.5h-233q-16 -82 -27.5 -134.5t-17.5 -85t-9 -49t-5 -28.5q-10 2 -21.5 4t-21.5 2t-21.5 -2t-21.5 -4q4 12 8 24.5t12 42t19.5 84t31.5 146.5h-151zM291 459h235l88 426h-235z" />
<glyph unicode="$" horiz-adv-x="905" d="M31 80q18 45 25 82t14 92h24q37 -66 77 -107t83 -64.5t86 -31.5t84 -8v580q-92 35 -158.5 70.5t-111.5 79.5t-66.5 100.5t-21.5 130.5q0 150 96 249t262 119q0 41 -3 83t-13 77q31 -10 53 -10q23 0 53 10q-10 -37 -12 -77t-2 -79q68 0 117 -9t85.5 -23.5t63.5 -31 t47 -30.5q-18 -35 -30.5 -71.5t-24.5 -92.5h-25q-10 27 -26.5 57.5t-44 57.5t-67.5 46t-95 21v-524q88 -35 156.5 -68.5t116.5 -75.5t72.5 -95.5t24.5 -126.5q0 -76 -24.5 -146.5t-72.5 -128t-116.5 -98.5t-156.5 -57q0 -59 2 -116t12 -114q-31 10 -53 10q-23 0 -53 -10 q10 47 13 104.5t3 114.5q-18 -2 -29.5 -2h-25.5q-96 0 -179.5 26.5t-158.5 86.5zM225 1059q0 -96 50.5 -156.5t148.5 -97.5v491q-88 -14 -143.5 -78.5t-55.5 -158.5zM500 55q100 23 155.5 102t55.5 179q0 33 -6.5 64.5t-29 63.5t-64.5 63.5t-111 66.5v-539z" />
<glyph unicode="%" horiz-adv-x="1742" d="M47 1036q0 74 23.5 135.5t66.5 107.5t104.5 71.5t135.5 25.5t135 -25.5t104 -71.5t67 -107.5t24 -135.5t-24 -135t-67 -107t-104 -72t-135 -26t-135.5 26t-104.5 72t-66.5 107t-23.5 135zM199 1036q0 -57 10 -109.5t32.5 -92t55.5 -64.5t80 -25q45 0 78.5 25t56.5 64.5 t33 92t10 109.5t-10 109.5t-33 92.5t-56.5 64.5t-78.5 24.5q-47 0 -80 -24.5t-55.5 -64.5t-32.5 -92.5t-10 -109.5zM438 -80l764 1503q27 -10 49 -10q20 0 47 10l-763 -1503q-27 10 -48 10q-23 0 -49 -10zM1036 307q0 74 23.5 135.5t66.5 107.5t104.5 71.5t135.5 25.5 t135.5 -25.5t104.5 -71.5t66.5 -107.5t23.5 -135.5t-23.5 -135t-66.5 -107.5t-104.5 -72t-135.5 -25.5t-135.5 25.5t-104.5 72t-66.5 107.5t-23.5 135zM1188 307q0 -57 10 -109.5t32.5 -92t55.5 -64.5t80 -25q45 0 79 25t56.5 64.5t32.5 92t10 109.5t-10 109.5t-32.5 92.5 t-56.5 64.5t-79 24.5q-47 0 -80 -24.5t-55.5 -64.5t-32.5 -92.5t-10 -109.5z" />
<glyph unicode="&#x26;" horiz-adv-x="1312" d="M51 309q0 68 29 132.5t79 122t117.5 105.5t147.5 81q-59 86 -98 163.5t-39 155.5q0 63 23.5 119.5t65.5 98.5t99 65.5t127 23.5q119 0 195.5 -58t76.5 -171q0 -59 -26.5 -111.5t-68.5 -98.5t-91 -84t-94 -65q92 -119 181 -232.5t179 -213.5q74 102 134.5 199.5 t109.5 206.5q12 -27 33.5 -46.5t44.5 -35.5q-63 -98 -128 -190.5t-149 -190.5l263 -295q-33 4 -66 7t-66 3q-29 0 -58.5 -3t-57.5 -7q-16 29 -50 75t-79 99q-90 -90 -193.5 -145.5t-249.5 -55.5q-80 0 -150.5 22.5t-123.5 65.5t-85 107.5t-32 150.5zM219 346 q0 -55 22.5 -107.5t62.5 -92.5t95.5 -63.5t120.5 -23.5q104 0 178 38t146 110q-102 123 -197.5 243.5t-187.5 249.5q-113 -68 -176.5 -147.5t-63.5 -206.5zM430 1126q0 -31 10.5 -67.5t26.5 -75.5t39.5 -78t52.5 -74q104 66 156.5 153t52.5 165q0 74 -44 122t-120 48 q-80 0 -127 -55.5t-47 -137.5z" />
<glyph unicode="'" horiz-adv-x="294" d="M88 840v590h107v-590h-107z" />
<glyph unicode="(" horiz-adv-x="440" d="M25 575q0 113 21.5 228t63.5 224.5t103 211.5t143 191l41 -37q-78 -98 -125 -194.5t-74.5 -196t-36.5 -205t-9 -222.5t9 -222t36.5 -204.5t74.5 -195.5t125 -195l-41 -37q-164 176 -247.5 397.5t-83.5 456.5z" />
<glyph unicode=")" horiz-adv-x="440" d="M41 -242q76 98 124 194.5t75.5 196t37 205t9.5 221.5q0 117 -9.5 222.5t-37 205t-75.5 195.5t-124 195l41 37q164 -176 248 -397.5t84 -457.5q0 -113 -21.5 -227.5t-63.5 -224t-103.5 -211.5t-143.5 -191z" />
<glyph unicode="*" horiz-adv-x="749" d="M27 1165q20 16 39.5 46t19.5 61l258 -189l-29 318q25 -8 60 -8t59 8l-33 -318l256 189q4 -33 20.5 -61.5t41.5 -45.5l-291 -131l289 -135q-20 -16 -37.5 -43t-22.5 -59l-258 180l35 -311q-14 4 -27.5 6t-31.5 2t-31.5 -2t-28.5 -6l29 311l-250 -182q-4 35 -20.5 61.5 t-38.5 42.5l287 133z" />
<glyph unicode="+" horiz-adv-x="1048" d="M6 465v106h465v465h107v-465h464v-106h-464v-465h-107v465h-465z" />
<glyph unicode="," horiz-adv-x="360" d="M25 -344l157 498q8 27 28.5 52t61.5 25q25 0 50.5 -16t25.5 -53q0 -25 -10 -45.5t-21 -40.5l-256 -434z" />
<glyph unicode="-" d="M88 410v127h510v-127h-510z" />
<glyph unicode="." horiz-adv-x="360" d="M61 92q0 47 35 82t82 35t82 -35t35 -82t-35 -82t-82 -35t-82 35t-35 82z" />
<glyph unicode="/" horiz-adv-x="684" d="M6 -47l565 1487q31 -10 54 -10t53 10l-565 -1487q-31 10 -54 10t-53 -10z" />
<glyph unicode="0" horiz-adv-x="1093" d="M68 672q0 143 24.5 272t80.5 224.5t148.5 151.5t225.5 56q147 0 240.5 -56t146.5 -151.5t72.5 -224.5t19.5 -272q0 -139 -28.5 -267.5t-87 -225.5t-148.5 -154.5t-215 -57.5q-147 0 -240.5 56.5t-147 151.5t-72.5 223.5t-19 273.5zM236 672q0 -135 15 -252t52 -203 t96.5 -135t147.5 -49t147.5 49t96 135t52 203t15.5 252t-15.5 251.5t-52 202.5t-96 135.5t-147.5 49.5t-147.5 -45t-96.5 -129t-52 -202t-15 -263z" />
<glyph unicode="1" horiz-adv-x="569" d="M0 1176v14q117 47 238.5 103.5t228.5 109.5l14 -10q-8 -135 -12 -267.5t-4 -267.5v-342q0 -133 4 -264t12 -262q-25 4 -48 7t-48 3t-48.5 -3t-47.5 -7q10 133 13 263t3 263v729l-244 -135q-10 18 -26.5 35.5t-34.5 30.5z" />
<glyph unicode="2" horiz-adv-x="983" d="M49 -10v30q215 211 346 352.5t202 246t94.5 192.5t23.5 193q0 152 -68.5 224t-161.5 72q-66 0 -112.5 -23.5t-77.5 -57t-47.5 -72.5t-22.5 -70l-14 -4l-72 101q66 104 156 153t219 49q80 0 151.5 -20.5t124 -65.5t83 -113.5t30.5 -162.5q0 -70 -16.5 -130.5t-48 -117.5 t-80.5 -115.5t-113 -124.5l-90 -90t-103.5 -105.5t-99.5 -107.5t-80 -98h195q147 0 261 5t200 11q-10 -41 -10 -75q0 -35 10 -76q-111 4 -219.5 7t-219.5 3t-220 -3t-220 -7z" />
<glyph unicode="3" horiz-adv-x="940" d="M51 39q8 16 15.5 54t9.5 69l12 8q18 -23 45 -46.5t62.5 -44t77.5 -33.5t92 -13q154 0 241.5 95t87.5 247q0 84 -21.5 142t-59.5 94t-91 52.5t-116 16.5q-23 0 -48.5 -4t-44.5 -8q2 10 3 21t1 22q0 10 -1 21t-3 22q23 -4 45.5 -6.5t47.5 -2.5q72 0 116.5 30t70 76 t35 101.5t9.5 106.5q0 66 -19.5 114t-50 78.5t-69.5 45t-80 14.5q-84 0 -145.5 -50.5t-84.5 -113.5l-14 -4l-47 110q20 20 49 42t66 40.5t82 29.5t102 11q80 0 151.5 -18.5t125 -55t84 -94t30.5 -137.5q0 -74 -26.5 -132t-66.5 -100t-89 -69t-94 -39v-12q51 -4 111.5 -19.5 t111.5 -51.5t85 -95t34 -152q0 -92 -38 -171.5t-106.5 -138t-165 -91.5t-213.5 -33q-106 0 -180 22.5t-129 49.5z" />
<glyph unicode="4" horiz-adv-x="1040" d="M6 367v36q90 127 187.5 264.5t188.5 266.5t168 240.5t126 189.5q37 -10 69 -10q31 0 66 10q-4 -90 -7 -196.5t-5 -221.5t-2 -232.5v-226.5q59 0 112.5 5.5t87.5 11.5q-10 -37 -10 -68t10 -67q-35 6 -88 9t-112 3v-86q0 -80 4 -165t8 -140q-23 4 -45.5 7t-44.5 3 q-23 0 -45.5 -3t-44.5 -7q4 59 10 143t6 162v86q-47 0 -136 -2t-186.5 -4t-185.5 -4t-131 -4zM168 487h477v689h-4q-43 -59 -109.5 -152.5t-135 -193t-131 -192.5t-97.5 -151z" />
<glyph unicode="5" horiz-adv-x="944" d="M53 49v17q10 27 18.5 60.5t12.5 57.5h14q18 -37 51 -65.5t72 -48t83 -28.5t85 -9q61 0 117.5 22.5t99.5 69.5t69.5 118.5t26.5 168.5q0 86 -24.5 147.5t-64.5 100t-91 56t-106 17.5q-86 0 -139.5 -27.5t-71.5 -39.5l-23 14q14 80 17.5 169t3.5 177q0 86 -3 177t-14 161 l19 12q33 -6 114 -12q88 -6 250 -6q96 0 173 1t114 3l10 -8q-8 -27 -11 -56.5t-3 -58.5q0 -25 2 -35q-45 8 -120 13.5t-156.5 8.5t-157.5 4t-123 1l-29 -465q41 23 89.5 38t140.5 15q90 0 162.5 -30.5t124 -84t79 -123t27.5 -147.5q0 -96 -37 -181t-104.5 -148.5 t-161.5 -100.5t-207 -37q-92 0 -177 18.5t-151 63.5z" />
<glyph unicode="6" horiz-adv-x="1005" d="M61 557q0 170 39 320.5t117 262t191.5 175t261.5 61.5q35 0 52 -1t34 -5l30 -65l-10 -9q-23 6 -47 10.5t-59 4.5q-80 0 -143.5 -34t-112.5 -90.5t-84 -129t-57.5 -150.5t-33 -153.5t-10.5 -137.5h4q20 35 49 70t69 63.5t92.5 47t119.5 18.5q53 0 123 -16.5t132.5 -59.5 t105.5 -117.5t43 -191.5q0 -102 -32 -187t-91.5 -146.5t-143.5 -95.5t-188 -34q-88 0 -170 32t-144.5 102.5t-99.5 182t-37 273.5zM242 387q0 -78 20.5 -143.5t57 -112.5t86 -72.5t108.5 -25.5q63 0 114.5 25.5t86.5 72.5t53 112.5t18 143.5q0 156 -64.5 254t-195.5 98 q-59 0 -111.5 -25.5t-91 -72.5t-60 -111.5t-21.5 -142.5z" />
<glyph unicode="7" horiz-adv-x="950" d="M59 -10q96 154 202 328t204 338.5t182 308t137 237.5q-92 0 -272 -2t-442 -18q4 23 6 46t2 46t-2 45t-6 45q84 -6 151.5 -10t124.5 -6q31 0 80 -1t103.5 -2.5t107.5 -1.5h96q63 0 110.5 1.5t100.5 1.5v-33q-184 -313 -374.5 -652t-358.5 -671q-18 4 -36.5 7t-41.5 3 q-33 0 -74 -10z" />
<glyph unicode="8" horiz-adv-x="1034" d="M59 367q0 125 69 229t228 158v14q-39 8 -78.5 31.5t-72.5 59.5t-53.5 84t-20.5 108q0 63 27.5 122.5t78 104.5t121 71.5t158.5 26.5q100 0 175 -25.5t122 -66.5t70.5 -96t23.5 -113q0 -47 -14 -94t-44 -87t-73 -70.5t-98 -49.5v-14q35 -6 86 -25.5t97 -59.5t79 -103.5 t33 -157.5q0 -102 -36 -184.5t-98.5 -140.5t-145.5 -90t-177 -32q-96 0 -180 26.5t-145.5 78t-96.5 125.5t-35 170zM240 377q0 -76 19.5 -138.5t55 -108.5t87 -71.5t114.5 -25.5t114.5 25.5t87.5 71.5t55.5 108.5t19.5 138.5t-19.5 138.5t-55.5 108.5t-87 71.5t-115 25.5 q-63 0 -114.5 -25.5t-87 -71.5t-55 -108.5t-19.5 -138.5zM299 1049q0 -53 12.5 -100.5t39 -83.5t68.5 -57.5t99 -21.5t99 21.5t70 57.5t40 83.5t12 100.5t-12 100t-40 83t-70 57.5t-99 21.5t-99 -21.5t-68.5 -57.5t-39 -83t-12.5 -100z" />
<glyph unicode="9" horiz-adv-x="1019" d="M47 938q0 94 32 174t91 138.5t143 92t189 33.5q92 0 175 -31.5t145.5 -102.5t100.5 -182.5t38 -273.5q0 -170 -41 -319.5t-119 -260t-189.5 -175t-255.5 -64.5q-53 0 -96 9.5t-65 19.5q-6 27 -17.5 59.5t-23.5 55.5l10 6q43 -39 94 -61.5t109 -22.5q111 0 189.5 61.5 t127.5 160.5t72.5 222t23.5 246h-4q-47 -86 -128 -139.5t-204 -53.5q-184 0 -290.5 106.5t-106.5 301.5zM227 938q0 -176 67.5 -254t184.5 -78q70 0 125 33t92 86t56.5 122.5t19.5 143.5q0 141 -74.5 230.5t-197.5 89.5q-121 0 -197 -100.5t-76 -272.5z" />
<glyph unicode=":" horiz-adv-x="378" d="M70 92q0 47 34.5 82t81.5 35t82 -35t35 -82t-35 -82t-82 -35t-81.5 35t-34.5 82zM70 842q0 47 34.5 81.5t81.5 34.5t82 -34.5t35 -81.5t-35 -82t-82 -35t-81.5 35t-34.5 82z" />
<glyph unicode=";" horiz-adv-x="393" d="M33 -344l157 498q8 27 29 52t62 25q25 0 50 -16t25 -53q0 -25 -10 -45.5t-20 -40.5l-256 -434zM139 842q0 47 35 81.5t82 34.5t82 -34.5t35 -81.5t-35 -82t-82 -35t-82 35t-35 82z" />
<glyph unicode="&#x3c;" horiz-adv-x="1124" d="M4 467v106l1036 484v-107l-940 -432l940 -432v-106z" />
<glyph unicode="=" horiz-adv-x="1144" d="M88 266v107h1036v-107h-1036zM88 664v106h1036v-106h-1036z" />
<glyph unicode="&#x3e;" horiz-adv-x="1122" d="M82 -20v106l940 432l-940 432v107l1036 -488v-106z" />
<glyph unicode="?" horiz-adv-x="585" d="M41 1362q41 25 90 46.5t121 21.5q74 0 130 -22t95 -58.5t58.5 -86t19.5 -104.5q0 -72 -26.5 -132t-67.5 -111.5t-88 -97.5t-88 -91t-68 -92t-27 -100q0 -41 27 -81t80 -40q25 0 43 7t27 11l12 -8q-8 -10 -15.5 -26.5t-9.5 -30.5q-27 -10 -71 -11q-25 0 -63 12.5t-72.5 39 t-59.5 69.5t-25 107q0 68 26 124t66 104t85 91t85 87t65.5 92t25.5 104q0 39 -15.5 70.5t-40 53t-56.5 33t-64 11.5q-55 0 -103.5 -27t-83.5 -67zM133 92q0 47 35 82t82 35t82 -35t35 -82t-35 -82t-82 -35t-82 35t-35 82z" />
<glyph unicode="@" horiz-adv-x="1402" d="M61 692q0 121 49.5 236.5t141.5 206t222 145.5t292 55q168 0 278.5 -42t177 -110.5t94 -156.5t27.5 -178q0 -111 -36.5 -202t-94 -155.5t-127 -100.5t-135.5 -36q-86 0 -109.5 40t-23.5 108h-4q-18 -27 -40.5 -53.5t-51.5 -47t-62.5 -34t-70.5 -13.5q-109 0 -165 69 t-56 206q0 100 28.5 185t78.5 146.5t116.5 95.5t142.5 34q63 0 109.5 -31t52.5 -101h4l21 111h106q-41 -190 -63.5 -301t-32.5 -169t-13.5 -79.5t-3.5 -36.5q0 -35 18.5 -53t49.5 -18q41 0 87 29.5t86 83t66.5 126t26.5 156.5q0 100 -23.5 185t-80 146.5t-150.5 96.5 t-235 35q-123 0 -227.5 -50.5t-180.5 -137.5t-119 -204.5t-43 -252.5q0 -123 39 -215.5t106.5 -153.5t162 -92t204.5 -31q74 0 141.5 15.5t126 40t108.5 54t89 58.5l-6 -65q-27 -25 -73 -55.5t-110.5 -58.5t-146 -46.5t-178.5 -18.5q-100 0 -204.5 38t-190.5 117 t-140.5 197.5t-54.5 282.5zM494 621q0 -94 25.5 -142.5t98.5 -48.5q59 0 104.5 48t75 118t45 145.5t15.5 128.5q0 66 -23.5 110t-101.5 44q-59 0 -103 -40t-75 -99.5t-46 -131t-15 -132.5z" />
<glyph unicode="A" horiz-adv-x="1355" d="M29 -10q166 362 324.5 718.5t316.5 721.5h39q51 -119 108 -256.5t116.5 -279.5t118 -280.5t109.5 -259.5t94 -215t70 -149q-29 4 -54.5 7t-53.5 3q-29 0 -54.5 -3t-54.5 -7q-14 53 -39 119.5t-53.5 139.5t-60 147.5t-58.5 142.5q-66 2 -133.5 3t-134.5 1q-63 0 -125 -1 t-125 -3q-66 -160 -119 -305.5t-80 -243.5q-20 4 -38.5 7t-37.5 3q-18 0 -36.5 -3t-38.5 -7zM418 633q53 0 110.5 -2t110.5 -2q57 0 114.5 1t114.5 3l-227 520z" />
<glyph unicode="B" horiz-adv-x="1064" d="M86 -10q6 135 11 267t5 265v352q0 133 -5 265.5t-11 263.5q53 -4 108.5 -7t108.5 -3t108.5 5t108.5 5q88 0 166 -13.5t137.5 -47t94 -91t34.5 -143.5q0 -152 -95 -238t-249 -120v-5q92 -4 165 -25.5t123 -63.5t77.5 -104.5t27.5 -150.5q0 -115 -47 -192.5t-122.5 -126.5 t-168 -70.5t-180.5 -21.5q-49 0 -99 5t-99 5t-99.5 -3t-99.5 -7zM270 489q0 -104 4.5 -206.5t8.5 -206.5q39 -4 92 -7t108 -3q66 0 126.5 22.5t105.5 66.5t71.5 107.5t26.5 147.5q0 88 -31.5 143t-91 88t-142.5 45t-186 12h-92v-209zM270 774h111q72 0 142.5 14.5t126 48 t89 90t33.5 142.5q0 82 -30.5 133t-78 79t-107.5 37t-118 9q-53 0 -90 -3t-65 -7q-4 -98 -8.5 -194.5t-4.5 -194.5v-154z" />
<glyph unicode="C" horiz-adv-x="1341" d="M57 696q0 174 56.5 310.5t158 230.5t242.5 143.5t311 49.5q133 0 247 -28t198 -67q-16 -29 -26.5 -78t-16.5 -81l-13 -5q-23 25 -58.5 55.5t-84.5 59.5t-111.5 48.5t-134.5 19.5q-121 0 -224 -39t-180 -120t-120 -205t-43 -294t43 -293.5t120 -204.5t180.5 -120 t223.5 -39q74 0 136.5 18.5t114.5 44t94 55t71 52.5l8 -8l-18 -121q-18 -16 -59.5 -35.5t-96.5 -38t-124.5 -31t-145.5 -12.5q-162 0 -299 49t-236.5 143.5t-156 230.5t-56.5 310z" />
<glyph unicode="D" horiz-adv-x="1445" d="M88 -10q6 133 11 265t5 265v352q0 133 -5 265.5t-11 265.5q78 -4 154.5 -7t154.5 -3t155 5t155 5q180 0 308 -47t210 -134t119.5 -213t37.5 -284q0 -205 -70.5 -345t-180 -227t-241.5 -125t-253 -38q-70 0 -137.5 5t-137.5 5t-137 -3t-137 -7zM272 520q0 -223 13 -434 q43 -10 116.5 -15t151.5 -5q113 0 225.5 26.5t201.5 100t145.5 201.5t56.5 331q0 178 -44 293t-121 181.5t-184.5 92t-232.5 25.5q-92 0 -172 -6t-143 -15q-6 -98 -9.5 -205.5t-3.5 -218.5v-352z" />
<glyph unicode="E" horiz-adv-x="851" d="M86 -10q6 135 11 267t5 265v352q0 133 -5 265.5t-11 263.5q92 -4 183 -7t184 -3q92 0 182 3t182 7q-6 -31 -6 -62t6 -61q-66 4 -120 9t-114.5 9.5t-132 6.5t-171.5 2q-2 -66 -5.5 -125.5t-3.5 -134.5q0 -80 1 -156t1 -115q180 0 294 6t204 15q-6 -31 -6 -64q0 -31 6 -61 q-53 6 -124 9t-141.5 5t-133 3t-99.5 1q0 -18 -1 -39.5t-1 -53.5v-81v-123q0 -117 1 -192.5t3 -114.5q68 0 145 1t151.5 3t141 7t115.5 16q-4 -14 -5 -32t-1 -32q0 -33 6 -59q-92 4 -183 7t-185 3t-186.5 -3t-186.5 -7z" />
<glyph unicode="F" horiz-adv-x="845" d="M86 -10q6 133 11 265t5 265v352q0 133 -5 265.5t-11 265.5q92 -4 183 -7t184 -3q92 0 186 3t205 7q-6 -31 -6 -62t6 -61q-55 6 -133 10t-159 8.5t-155.5 6.5t-124.5 2q-2 -72 -3 -137.5t-1 -131.5q0 -72 1 -132t1 -126q133 0 266.5 4t262.5 17q-4 -16 -6 -30.5t-2 -31.5 q0 -16 2 -30.5t6 -30.5q-51 6 -116 9t-134.5 4t-141 2t-137.5 1v-174q0 -133 5.5 -265t11.5 -265q-27 4 -51.5 7t-49.5 3t-49 -3t-51 -7z" />
<glyph unicode="G" horiz-adv-x="1460" d="M59 696q0 174 57.5 310.5t162 230.5t252 143.5t329.5 49.5q104 0 185 -11.5t143.5 -29t110 -39t83.5 -39.5q-16 -29 -29.5 -74t-17.5 -84h-24q-31 37 -77 74t-102.5 64.5t-125 45t-146.5 17.5q-127 0 -236.5 -39t-190.5 -120t-127 -205t-46 -294q0 -152 41 -271.5 t120 -202.5t191.5 -128t257.5 -45q88 0 181.5 16.5t146.5 49.5q2 61 3 122.5t1 124.5q0 72 -3 144t-7 137q45 -10 98 -10q23 0 45.5 2t42.5 8q-4 -47 -6 -148.5t-2 -267.5q0 -41 1 -83t1 -83q-43 -16 -107.5 -32.5t-137 -31.5t-145.5 -24.5t-132 -9.5q-182 0 -328.5 47 t-249 139.5t-158 229.5t-55.5 317z" />
<glyph unicode="H" horiz-adv-x="1398" d="M86 -10q6 133 11 265t5 265v352q0 133 -5 265.5t-11 265.5q27 -4 51.5 -7t48.5 -3q25 0 49.5 3t51.5 7q-6 -133 -11.5 -265t-5.5 -266v-71q109 -2 214.5 -4t213.5 -2q109 0 214.5 2t213.5 4v71q0 133 -5 265.5t-11 265.5q27 -4 51.5 -7t48.5 -3q25 0 49.5 3t51.5 7 q-6 -133 -11.5 -265t-5.5 -266v-352q0 -133 5.5 -265t11.5 -265q-27 4 -51.5 7t-49.5 3t-49 -3t-51 -7q6 133 11 265t5 265v185q-109 2 -214 3t-214 1t-214 -1t-214 -3v-185q0 -133 5.5 -265t11.5 -265q-27 4 -51.5 7t-49.5 3t-49 -3t-51 -7z" />
<glyph unicode="I" horiz-adv-x="370" d="M82 -10q6 133 11 265t5 265v352q0 133 -5 265.5t-11 265.5q27 -4 51.5 -7t48.5 -3q25 0 49.5 3t51.5 7q-6 -133 -11.5 -265t-5.5 -266v-352q0 -133 5 -265t12 -265q-27 4 -51.5 7t-49.5 3t-49 -3t-51 -7z" />
<glyph unicode="J" horiz-adv-x="585" d="M63 -508q90 0 142.5 40t79 111.5t34 173t7.5 222.5l10 833q0 133 -5 265.5t-12 265.5q27 -4 51.5 -7t49.5 -3t49.5 3t50.5 7q-6 -133 -11 -265t-5 -266v-145t-1 -179t-1 -193.5t-1 -189.5t-1 -167v-125q0 -92 -30 -172t-85 -139.5t-133 -93t-172 -33.5z" />
<glyph unicode="K" horiz-adv-x="1189" d="M86 -10q6 133 11 265t5 265v352q0 133 -5 265.5t-11 265.5q27 -4 51.5 -7t48.5 -3q25 0 49.5 3t51.5 7q-6 -133 -11.5 -265t-5.5 -266v-112q0 -16 13 -17q8 0 28 19q72 61 150 139t157.5 162t158.5 171t151 169q45 -10 84 -10q25 0 49 3t49 7q-72 -61 -162 -145 t-181 -172.5t-174 -173.5t-138 -148q166 -186 334.5 -381t343.5 -393q-31 4 -62 7t-61 3q-29 0 -56.5 -3t-56.5 -7q-74 90 -163 198.5t-173 210t-153.5 182.5t-102.5 113q-16 16 -24 17q-10 0 -11 -13v-178q0 -133 5.5 -265t11.5 -265q-27 4 -51.5 7t-49.5 3t-49 -3t-51 -7z " />
<glyph unicode="L" horiz-adv-x="841" d="M86 -10q6 133 11 265t5 265v352q0 133 -5 265.5t-11 265.5q27 -4 51.5 -7t48.5 -3q25 0 49.5 3t51.5 7q-6 -133 -11.5 -265t-5.5 -266q0 -258 2 -447t4 -339q145 0 278.5 3t287.5 24q-10 -35 -11 -62q0 -27 11 -61q-94 4 -188.5 7t-188.5 3q-96 0 -189.5 -3t-189.5 -7z " />
<glyph unicode="M" horiz-adv-x="1767" d="M70 -10q27 170 55.5 355t54 371.5t49 368t39.5 345.5h35q141 -291 285.5 -565.5t302.5 -563.5q20 39 59 112.5t90.5 167t110.5 203t119.5 221t119 221t109.5 204.5h27q23 -197 43 -380.5t39.5 -360.5t40 -350t45.5 -349q-25 4 -48.5 7t-48.5 3t-48 -3t-48 -7 q-23 276 -45 534t-55 523h-4q-141 -258 -277.5 -513t-259.5 -534h-18q-121 256 -256 517t-271 530h-4q-14 -127 -31.5 -275.5t-32 -293t-24.5 -273.5t-10 -215q-18 4 -35.5 7t-36.5 3q-18 0 -35.5 -3t-35.5 -7z" />
<glyph unicode="N" horiz-adv-x="1386" d="M80 -10q4 25 9 81t9 133t9.5 167t8.5 180t5 176t2 154q0 195 -1 337t-5 212h33q125 -135 267 -290t282.5 -305.5t266.5 -284.5t220 -228v279t-2 280.5t-5 270.5t-10 251q37 -10 70 -10q29 0 66 10q-4 -45 -10.5 -135t-11.5 -192.5t-8 -201t-3 -157.5q0 -78 1 -192.5 t2 -228.5t2 -206t1 -127h-29q-236 276 -503 564t-531 569q-2 -57 -4 -154.5t-2 -261.5q0 -43 1 -106.5t2 -133t2 -141.5t3 -133.5t5 -108.5t5 -67q-37 10 -71 10q-18 0 -37 -3t-39 -7z" />
<glyph unicode="O" horiz-adv-x="1660" d="M63 696q0 174 56.5 310.5t158 230.5t241.5 143.5t310 49.5t311.5 -49.5t243 -143.5t157.5 -230.5t56 -310.5t-56 -310t-157.5 -230.5t-243 -143.5t-311.5 -49t-310 49t-241.5 143.5t-158 230.5t-56.5 310zM264 696q0 -170 43 -293.5t120 -204.5t179.5 -120t222.5 -39 q121 0 224.5 39t180.5 120t120 204.5t43 293.5t-43 294t-120 205t-180.5 120t-224.5 39t-223 -39t-179 -120t-120 -205t-43 -294z" />
<glyph unicode="P" horiz-adv-x="1001" d="M86 -10q6 133 11 265t5 265v352q0 133 -5 265.5t-11 265.5q49 -4 99.5 -7t99.5 -3q25 0 59.5 2t70.5 3t68.5 3t55.5 2q31 0 75.5 -2t95 -12.5t99.5 -31t89 -59t64.5 -97t24.5 -144.5q0 -135 -58.5 -219t-143.5 -131.5t-180 -63.5t-169 -16q-47 0 -86 1t-80 5v-113 q0 -133 5.5 -265t11.5 -265q-27 4 -51.5 7t-49.5 3t-49 -3t-51 -7zM270 719q33 -8 72 -12.5t74 -4.5q63 0 130.5 14.5t124 52.5t92.5 104.5t36 170.5q0 88 -24.5 143.5t-68.5 86.5t-107.5 42t-143.5 11h-185v-608z" />
<glyph unicode="Q" horiz-adv-x="1699" d="M27 696q0 174 56 310.5t157.5 230.5t242 143.5t310.5 49.5t311 -49.5t242.5 -143.5t158 -230.5t56.5 -310.5q0 -143 -39 -261t-110 -208t-170 -150.5t-222 -88.5q55 -43 135 -106.5t168 -129t173 -129t146 -106.5q-53 -4 -98 -31t-61 -53q-55 51 -137 121.5t-170.5 144.5 t-174.5 143.5t-149 122.5q-16 -2 -29.5 -2h-29.5q-170 0 -310.5 49t-242 143.5t-157.5 230.5t-56 310zM227 696q0 -170 43 -293.5t120 -204.5t179.5 -120t223.5 -39t224 39t180 120t120 204.5t43 293.5t-43 294t-120 205t-180.5 120t-223.5 39q-121 0 -223.5 -39 t-179.5 -120t-120 -205t-43 -294z" />
<glyph unicode="R" horiz-adv-x="1169" d="M86 -10q6 133 11 265t5 265v352q0 133 -5 265.5t-11 265.5q59 -4 116.5 -7t116.5 -3t117 5t117 5q86 0 164 -16.5t136 -54.5t92 -99.5t34 -153.5q0 -98 -44 -168.5t-107.5 -118t-137.5 -72t-131 -32.5q25 -31 68 -86t96 -121.5t110.5 -138.5t110.5 -139.5t99.5 -123.5 t76.5 -89q-31 4 -61.5 7t-61.5 3q-29 0 -59.5 -3t-58.5 -7q-31 47 -93.5 134t-137.5 186.5t-154.5 195.5t-145.5 164h-78v-150q0 -133 5.5 -265t11.5 -265q-27 4 -51.5 7t-49.5 3t-49 -3t-51 -7zM270 756q29 -6 63 -8.5t75 -2.5q63 0 131.5 14.5t126 50.5t95.5 96.5 t38 152.5q0 80 -30 132t-77 83t-103.5 42t-107.5 11q-72 0 -119 -3t-79 -7q-4 -113 -8.5 -223.5t-4.5 -221.5v-116z" />
<glyph unicode="S" horiz-adv-x="960" d="M61 80q18 47 25.5 85t13.5 97h25q16 -37 44 -74.5t67.5 -68.5t93 -50.5t119.5 -19.5q68 0 122 23.5t91.5 63.5t58 94.5t20.5 115.5q0 94 -48 149.5t-119.5 92.5t-154.5 67.5t-154.5 76.5t-120 118t-48.5 192q0 86 31 157t89 122t140 80t185 29q98 0 169.5 -24t133.5 -73 q-18 -35 -30.5 -73.5t-25.5 -98.5h-24q-10 29 -28.5 62.5t-47.5 62.5t-69.5 48.5t-98.5 19.5q-57 0 -105 -18.5t-84 -52.5t-55.5 -81t-19.5 -102q0 -96 48 -151.5t120 -93.5t155 -67.5t154.5 -72.5t119.5 -110.5t48 -180.5q0 -94 -33.5 -178t-98 -146.5t-158 -99.5 t-212.5 -37q-127 0 -205.5 37t-132.5 80z" />
<glyph unicode="T" horiz-adv-x="1097" d="M20 1274q10 35 11 65q0 27 -11 64q133 -4 264.5 -7t264.5 -3t264 3t264 7q-10 -37 -10 -66t10 -63q-43 6 -97 10t-112.5 7t-117 4t-111.5 1q-6 -213 -6 -424v-352q0 -133 5 -265t11 -265q-27 4 -51.5 7t-48.5 3q-25 0 -49.5 -3t-50.5 -7q6 133 11 265t5 265v352 q0 211 -6 424q-53 0 -111.5 -1t-117 -4t-113 -7t-97.5 -10z" />
<glyph unicode="U" horiz-adv-x="1359" d="M80 1403q25 -4 53.5 -7t52.5 -3q43 0 88 10q-4 -45 -9 -118t-8 -165t-5 -199.5t-2 -220.5q0 -70 2 -144.5t14.5 -145t40 -135t78.5 -112.5t129 -76t193 -28q113 0 189.5 33t125.5 86t76.5 123t40 145.5t14.5 150t2 140.5q0 291 -2 448.5t-10 217.5q45 -10 84 -10 q31 0 61 10q-6 -72 -12 -171t-11 -213t-8.5 -233.5t-5.5 -232.5q-2 -135 -41 -244.5t-113.5 -186.5t-183 -118t-245.5 -41q-305 0 -445.5 143.5t-140.5 442.5q0 96 5 171t5 152q0 170 -4 305.5t-8 225.5z" />
<glyph unicode="V" horiz-adv-x="1359" d="M33 1403q57 -10 106 -10t107 10q45 -135 99 -283.5t114.5 -302t124 -311.5t129.5 -313q37 84 80 186t88 215t89 227.5t83 222t70.5 199.5t54.5 160q41 -10 75 -10q35 0 76 10q-319 -707 -590 -1413q-37 10 -67 10q-37 0 -68 -10q-47 127 -113.5 297t-143.5 359.5 t-159 385t-155 371.5z" />
<glyph unicode="W" horiz-adv-x="2105" d="M57 1403q27 -4 51.5 -7t51.5 -3t51.5 3t50.5 7q39 -156 76 -292t79 -276.5t90 -295t109 -349.5h5q18 55 51 152.5t71.5 215.5t80.5 245t80 242.5t66.5 210t41.5 147.5q37 -10 67 -10q31 0 68 10q14 -55 45 -151.5t67.5 -213t78.5 -244.5t80 -244t70 -211t50 -149h4 q14 45 45 140.5t69 215.5t78 252t75.5 251.5t62 214t37.5 139.5q18 -4 35.5 -7t35.5 -3t36 3t36 7q-20 -47 -59 -155.5t-87 -248t-101.5 -294t-100.5 -296t-85 -254t-56 -165.5q-37 10 -70 10t-70 -10q-90 289 -182 578.5t-194 594.5h-5q-16 -47 -43.5 -126t-61.5 -177 t-72 -210.5t-76.5 -227.5t-76.5 -225.5t-69 -206.5q-18 4 -35.5 7t-36.5 3q-18 0 -35.5 -3t-35.5 -7q-16 55 -50 166.5t-77 251t-90 292t-90 290.5t-79 248t-57 165z" />
<glyph unicode="X" horiz-adv-x="1228" d="M63 -10q123 174 240 350t234 354q-106 178 -214 354.5t-221 354.5q29 -4 55.5 -7t55.5 -3t55.5 3t55.5 7q68 -137 145.5 -271t171.5 -290q94 139 175 271t167 290q41 -10 76 -10t76 10q-117 -162 -229.5 -317.5t-217.5 -321.5q117 -197 234.5 -389.5t240.5 -384.5 q-29 4 -57.5 7t-56.5 3q-29 0 -57.5 -3t-57.5 -7q-82 156 -163 310.5t-185 309.5q-104 -156 -195.5 -310.5t-175.5 -309.5q-41 10 -76 10t-76 -10z" />
<glyph unicode="Y" horiz-adv-x="1218" d="M29 1403q29 -4 56.5 -7t55.5 -3q29 0 56.5 3t56.5 7q90 -176 186.5 -350t202.5 -359q47 74 98.5 162t101.5 180t98 185.5t89 181.5q45 -10 80 -10t80 10q-98 -150 -175 -270.5t-137.5 -219t-105.5 -177.5t-78 -142q0 -76 1 -162t3 -168t5.5 -154.5t7.5 -119.5 q-27 4 -51.5 7t-49.5 3t-49 -3t-51 -7q12 111 14 263t2 318q-20 35 -59 101.5t-87 148.5t-101.5 171t-101.5 169t-88 144.5t-60 97.5z" />
<glyph unicode="Z" horiz-adv-x="1247" d="M41 -10v35q80 111 170 236.5t180 254.5t175 253t157 228.5t125 184.5t80 121q-37 2 -74 3t-70 1q-74 0 -164 -2t-181 -7.5t-174 -10.5t-140 -11q10 35 10 63q0 29 -10 64q100 -8 318.5 -9t535.5 -1q55 0 110.5 3t108.5 7v-37q-31 -33 -80 -97.5t-110.5 -148.5t-132 -182 t-141 -200.5t-138.5 -202t-126 -185.5t-101 -153.5t-66 -104.5q49 -4 89 -5t81 -1q78 0 181.5 3t206 8t193.5 12.5t144 13.5q-4 -18 -7 -34.5t-3 -33.5q0 -29 10 -65q-74 2 -136.5 4t-119.5 3t-112.5 2t-112.5 1q-80 0 -181.5 -1t-198.5 -2t-177 -3t-119 -4z" />
<glyph unicode="[" horiz-adv-x="423" d="M84 -248q12 279 12 565v517q0 285 -12 565q45 -6 104 -6q25 0 56.5 1t63.5 2t60.5 2t49.5 1q-2 -8 -3 -14.5t-1 -14.5q0 -10 4 -31q-43 2 -91 3t-96 1q-8 -127 -12 -253.5t-4 -255.5v-517q0 -129 4 -256t12 -254q47 0 95.5 1.5t91.5 3.5q-4 -20 -4 -31q0 -8 1 -14.5 t3 -14.5q-20 0 -49 1t-61 2t-63.5 2t-56.5 1q-59 0 -104 -6z" />
<glyph unicode="\" horiz-adv-x="686" d="M6 1440q31 -10 53 -10q23 0 54 10l565 -1487q-31 10 -53 10q-23 0 -54 -10z" />
<glyph unicode="]" horiz-adv-x="428" d="M6 -188q43 -2 91 -3.5t96 -1.5q8 127 12 254t4 256v517q0 129 -4 256t-12 253q-47 0 -95.5 -1t-91.5 -3q4 20 4 31q0 8 -1 14.5t-3 14.5q20 0 49 -1t60.5 -2t63.5 -2t57 -1q57 0 104 6q-12 -281 -12 -565v-517q0 -287 12 -565q-47 6 -104 6q-25 0 -57 -1t-63.5 -2t-60 -2 t-49.5 -1q2 8 3 14.5t1 14.5q0 10 -4 31z" />
<glyph unicode="^" horiz-adv-x="1136" d="M33 416l483 927h107l479 -927h-107l-428 831l-428 -831h-106z" />
<glyph unicode="_" horiz-adv-x="1202" d="M88 -164h1024v-102h-1024v102z" />
<glyph unicode="`" horiz-adv-x="581" d="M57 1434q0 33 23.5 49t44.5 16q23 0 46.5 -13t45.5 -36l301 -305h-86l-301 192q-25 16 -49.5 38t-24.5 59z" />
<glyph unicode="a" horiz-adv-x="974" d="M59 221q0 123 77 190.5t212 90.5q111 18 173.5 31.5t92 27.5t35.5 33.5t6 50.5q0 51 -12 98.5t-38.5 82t-69.5 56t-105 21.5q-82 0 -152.5 -37t-105.5 -102h-22v106q92 70 169.5 94.5t159.5 24.5q74 0 135.5 -21.5t104.5 -61.5t67.5 -96t24.5 -124q0 -117 -4 -232.5 t-4 -244.5q0 -25 1 -52.5t9 -49t23.5 -36t46.5 -14.5q10 0 21 1t22 8v-46q-23 -10 -56.5 -19t-74.5 -9q-66 0 -101 37t-41 90q-74 -74 -145.5 -112t-175.5 -38q-51 0 -100.5 17.5t-87.5 50.5t-61.5 79t-23.5 105zM227 250q0 -96 55.5 -145.5t123.5 -49.5q78 0 142 43t99 101 l8 307q-53 -18 -126.5 -28.5t-140 -33t-114 -66.5t-47.5 -128z" />
<glyph unicode="b" horiz-adv-x="1038" d="M84 0q4 47 7 117.5t5 149.5t3 160t1 153v370q0 70 -1 152t-3 161.5t-5 152.5t-7 124q51 -10 92 -10q23 0 47.5 3t52.5 7q-6 -41 -9 -130t-6 -198.5t-5 -225.5t-4 -210h4q70 109 154 161t194 52q106 0 184 -40t129.5 -105.5t77 -153.5t25.5 -182q0 -117 -36 -216 t-98.5 -171t-147.5 -112t-183 -40t-177 45t-120 105q-37 -29 -70.5 -58.5t-66.5 -60.5h-37zM246 446q0 -205 75.5 -308t223.5 -103q63 0 116.5 33.5t93.5 97t62.5 151.5t22.5 197q0 94 -23.5 167t-61.5 122t-88.5 74.5t-103.5 25.5q-66 0 -123 -23.5t-100 -77.5 t-68.5 -141.5t-25.5 -214.5z" />
<glyph unicode="c" horiz-adv-x="991" d="M70 479q0 133 45 229.5t117.5 159t167 92t192.5 29.5q113 0 202 -27.5t128 -62.5q-14 -31 -25.5 -64.5t-19.5 -70.5h-17q-14 27 -38.5 54.5t-58.5 51t-75 39t-90 15.5q-92 0 -158.5 -34t-108.5 -93.5t-61.5 -140.5t-19.5 -175q0 -211 91 -318.5t263 -107.5q41 0 84 11.5 t84 31t77 46t62 57.5l11 -6q-8 -49 -13 -101q-61 -49 -153 -87t-189 -38q-90 0 -178 28t-159.5 89t-115.5 158.5t-44 234.5z" />
<glyph unicode="d" horiz-adv-x="1036" d="M18 473q0 131 39 227.5t101.5 161t141.5 96t159 31.5q227 0 315 -205h4v202t-1 207t-3 191.5t-4 155.5q25 -4 47.5 -7t44.5 -3q23 0 44.5 3t47.5 7q-6 -66 -11 -189.5t-8 -273t-4 -307.5t-1 -289q0 -139 2 -253.5t4 -237.5q-23 4 -42.5 7t-37.5 3t-36.5 -3t-41.5 -7 l6 200h-4q-16 -33 -43.5 -70.5t-69.5 -71.5t-99.5 -56.5t-133.5 -22.5q-78 0 -152.5 29t-133 90.5t-94.5 156.5t-36 228zM199 461q0 -123 25.5 -203t65.5 -128t91 -66.5t100 -18.5q80 0 137.5 40t95.5 104.5t55 145.5t17 165q0 195 -75.5 299t-223.5 104q-74 0 -128 -33.5 t-90 -94t-53 -141.5t-17 -173z" />
<glyph unicode="e" horiz-adv-x="1015" d="M61 451q0 250 121 394t348 144q106 0 186.5 -33.5t133.5 -90t78.5 -132.5t25.5 -162q0 -20 -1 -39.5t-3 -39.5q-111 2 -219 4t-219 2q-68 0 -134.5 -2t-133.5 -4q-2 -16 -2 -29.5v-28.5q0 -80 23.5 -149.5t68.5 -119.5t110.5 -80t151.5 -30q41 0 84 11.5t84 31t77 46 t62 57.5l10 -6l-12 -101q-61 -49 -153.5 -87t-188.5 -38q-111 0 -202 37t-157.5 101.5t-102.5 153t-36 190.5zM248 569q63 -2 132 -4t134 -2q68 0 137.5 2t134.5 4q0 55 -9 117t-36.5 115t-76.5 88t-129 35q-76 0 -128.5 -35t-86 -87t-51 -114.5t-21.5 -118.5z" />
<glyph unicode="f" horiz-adv-x="618" d="M20 877q2 10 3.5 20t1.5 21q0 10 -1 20t-4 20q37 0 75 -1t73 -1q0 59 12.5 129t36 137.5t56 128t73.5 101.5q37 37 93.5 65.5t115.5 28.5q23 0 41 -6q-2 -41 -5 -82t-3 -82l-13 -6q-49 31 -112 31q-45 0 -77 -17.5t-52.5 -45t-29.5 -65.5t-9 -77q0 -37 7 -106.5 t17 -133.5q53 0 105.5 1t105.5 1q-2 -10 -3 -20t-1 -20t1 -20.5t3 -20.5q-53 2 -105 4t-106 2q0 -223 1.5 -444.5t7.5 -448.5q-47 10 -88 10q-39 0 -90 -10q14 227 16 447t2 446q-37 0 -74 -2z" />
<glyph unicode="g" horiz-adv-x="1038" d="M63 -260q0 55 19.5 99t50.5 78t70 57.5t80 35.5v4q-63 18 -96 61.5t-33 102.5q0 33 13 62.5t33.5 52t47 37t51.5 18.5v4q-94 41 -147.5 115.5t-53.5 187.5q0 86 31 148.5t85 103.5t125 61.5t150 20.5q39 0 75 -2t91 -6q47 -4 84 -6t60 -2q121 0 166 10q-2 -10 -3 -21.5 t-1 -21.5t1 -21.5t3 -21.5q-59 4 -115.5 9t-112.5 7l-4 -4q63 -35 102 -107.5t39 -150.5q0 -154 -103 -240.5t-277 -86.5q-29 0 -56.5 2t-56.5 2q-37 0 -68.5 -27t-31.5 -68q0 -53 25.5 -77.5t94.5 -26.5q57 -2 112.5 -3t113.5 -3q94 -2 160.5 -22.5t108.5 -56.5t61.5 -82 t19.5 -101q0 -72 -27.5 -145.5t-86 -133t-150.5 -98.5t-221 -39q-199 0 -314 79t-115 216zM195 -238q0 -70 23.5 -119t63.5 -79.5t95 -45t119 -14.5q61 0 120.5 16.5t105.5 49.5t74.5 83t28.5 120q0 121 -72.5 174t-236.5 53q-152 0 -236.5 -53t-84.5 -185zM258 655 q0 -127 56.5 -202.5t174.5 -75.5q57 0 100.5 23.5t71 63.5t41 92.5t13.5 109.5q0 127 -61.5 195.5t-161.5 68.5q-111 0 -172.5 -75t-61.5 -200z" />
<glyph unicode="h" horiz-adv-x="942" d="M86 -10q4 51 7 123.5t5 152.5t3 161t1 153v370q0 70 -1 152t-3 161.5t-5 152.5t-7 124q51 -10 92 -10t92 10q-4 -51 -7 -122.5t-5 -151.5t-3 -159t-1 -146v-156h4q57 88 137 136t191 48q57 0 115.5 -16.5t105.5 -56t76.5 -108.5t29.5 -175q0 -88 -4 -181.5t-4 -197.5 v-133.5t4 -130.5q-23 4 -43 7t-43 3t-42 -3t-42 -7q4 113 9.5 225.5t5.5 230.5v125q0 152 -60.5 232t-163.5 80q-143 0 -209.5 -88t-66.5 -248q0 -59 1 -134t3 -152t5 -148.5t7 -122.5q-51 10 -92 10t-92 -10z" />
<glyph unicode="i" horiz-adv-x="321" d="M55 1325q0 43 31 74t74 31t73.5 -31t30.5 -74t-30.5 -73.5t-73.5 -30.5t-74 30.5t-31 73.5zM68 -10q10 88 13 189.5t3 193.5v213q0 92 -3 193.5t-13 189.5q51 -10 92 -11q41 0 92 11q-10 -88 -13 -189.5t-3 -193.5v-213q0 -92 3 -193.5t13 -189.5q-51 10 -92 10t-92 -10z " />
<glyph unicode="j" horiz-adv-x="503" d="M55 -553q8 -2 15.5 -3t17.5 -1q59 0 95 35t56.5 90t26.5 123.5t6 136.5l-6 676q0 123 -3 250t-13 215q51 -10 92 -11q41 0 92 11q-10 -88 -13 -189.5t-3 -193.5v-213q0 -59 2 -129t5 -140.5t5 -140t2 -129.5q0 -86 -9 -158.5t-56 -142.5q-45 -66 -122 -108.5t-175 -47.5z M238 1325q0 43 30.5 74t73.5 31t73.5 -31t30.5 -74t-30.5 -73.5t-73.5 -30.5t-73.5 30.5t-30.5 73.5z" />
<glyph unicode="k" horiz-adv-x="966" d="M57 -10q4 51 7.5 123.5t5.5 152.5t3 161t1 153v370q0 70 -1 152t-3 161.5t-5.5 152.5t-7.5 124q51 -10 93 -10q41 0 92 10q-4 -51 -7.5 -124t-5.5 -152.5t-3 -161.5t-1 -152v-372q0 -39 25 -39q16 0 35.5 14t44.5 33q18 14 61 55t97.5 95.5t112.5 115.5t106 117 q37 -10 77 -11q23 0 45.5 3.5t57.5 7.5q-129 -104 -247 -205.5t-224 -206.5q117 -141 241.5 -283.5t251.5 -283.5q-35 4 -62.5 7t-53.5 3q-47 0 -105 -10q-45 57 -101.5 126.5t-112.5 137.5t-108.5 126t-89.5 97q-6 8 -14 14.5t-16 6.5q-20 0 -21 -25v-123q0 -92 3 -180 t14 -180q-51 10 -92 10t-93 -10z" />
<glyph unicode="l" horiz-adv-x="342" d="M76 -10q4 51 7 123.5t5 152.5t3 161t1 153v370q0 70 -1 152t-3 161.5t-5 152.5t-7 124q51 -10 92 -10t92 10q-4 -51 -7 -124t-5 -152.5t-3 -161.5t-1 -152v-370q0 -72 1 -153t3 -161t5 -152.5t7 -123.5q-51 10 -92 10t-92 -10z" />
<glyph unicode="m" horiz-adv-x="1591" d="M86 -10q10 88 13 189.5t3 193.5v213q0 92 -3 193.5t-13 189.5q51 -10 92 -11q31 0 82 11q-6 -84 -6 -164h4q109 184 305 184q51 0 100.5 -15.5t89.5 -42t68.5 -64.5t38.5 -81h4q49 98 134 150.5t196 52.5q68 0 125 -18.5t99 -57.5t65.5 -100t23.5 -147q0 -35 -2 -76 t-4 -95.5t-4 -123t-2 -158.5q0 -55 1 -106.5t5 -116.5q-47 10 -88 10q-43 0 -90 -10q6 57 13 213.5t7 433.5q0 51 -11 96t-35.5 78t-65.5 52.5t-103 19.5q-74 0 -125 -29t-79 -68q-16 -23 -25.5 -45t-14.5 -68t-7.5 -129t-2.5 -229q0 -45 1.5 -82.5t2.5 -76.5t3 -79t4 -87 q-51 10 -90 10t-90 -10q10 117 14 234.5t4 230.5q0 94 -1 149t-4 88t-11.5 52.5t-20.5 43.5q-23 39 -71 67t-99 28q-133 0 -197.5 -88t-64.5 -248v-174q0 -92 3 -193.5t13 -189.5q-51 10 -92 10t-92 -10z" />
<glyph unicode="n" horiz-adv-x="991" d="M82 -10q10 88 13 189.5t3 193.5v213q0 92 -3 193.5t-13 189.5q51 -10 92 -11q31 0 82 11q-6 -84 -6 -164h4q57 88 137 136t191 48q57 0 115.5 -16.5t105.5 -56t76.5 -108.5t29.5 -175q0 -88 -4 -181.5t-4 -197.5v-133.5t4 -130.5q-23 4 -43 7t-43 3t-42 -3t-42 -7 q4 113 9.5 225.5t5.5 230.5v125q0 152 -60.5 232t-163.5 80q-143 0 -209.5 -88t-66.5 -248v-174q0 -92 3 -193.5t13 -189.5q-51 10 -92 10t-92 -10z" />
<glyph unicode="o" horiz-adv-x="1124" d="M63 479q0 139 44.5 236.5t116 158t159.5 88t178 27.5q88 0 177 -27.5t161 -88t116 -158t44 -236.5t-44 -236.5t-116 -157.5t-161 -88t-177 -28q-90 0 -178 28t-159.5 88t-116 157.5t-44.5 236.5zM244 479q0 -86 15 -166t52 -142t98.5 -99t151.5 -37t151.5 37t98.5 99 t52.5 142t15.5 166t-15.5 166t-52.5 142.5t-98.5 99.5t-151.5 37t-151.5 -37t-98.5 -99.5t-52 -142.5t-15 -166z" />
<glyph unicode="p" horiz-adv-x="1040" d="M84 -549q4 51 7 124t5 152.5t3 160.5t1 153v332q0 70 -1 151.5t-3 162.5t-5 154.5t-7 127.5q51 -10 92 -11q41 0 92 11q-8 -53 -12 -102.5t-4 -98.5h4q14 33 42 71t69 71.5t99 56t136 22.5t153.5 -29.5t134 -91t94.5 -157t36 -226.5t-39 -227t-101.5 -160.5t-142.5 -96.5 t-159 -32q-115 0 -195 51.5t-127 149.5h-4v-129q0 -72 1 -153t3 -160.5t5 -152.5t7 -124q-51 10 -92 10t-92 -10zM252 471q0 -211 75.5 -318.5t223.5 -107.5q74 0 128 34t90 94t53.5 141t17.5 173q0 123 -26 203t-65.5 128t-91 66.5t-100.5 18.5q-84 0 -141.5 -34.5t-94 -93 t-53 -137.5t-16.5 -167z" />
<glyph unicode="q" horiz-adv-x="1038" d="M18 473q0 135 39 232.5t100.5 160t138.5 93t153 30.5q139 0 219 -63.5t114 -157.5h4q0 49 -4 98t-12 103q51 -10 92 -11q41 0 92 11q-4 -53 -7 -127t-5 -155t-3 -163t-1 -151v-332q0 -72 1 -153t3 -160.5t5 -152.5t7 -124q-51 10 -92 10t-92 -10q4 51 7 124t5 152.5 t3 160.5t1 153v154h-4q-59 -117 -146 -171.5t-187 -54.5q-76 0 -153 25.5t-138.5 85t-100.5 156t-39 237.5zM199 457q0 -88 17 -163t51 -130t86.5 -87t119.5 -32q78 0 136.5 39t98.5 103.5t59 146.5t19 166q0 78 -16 150.5t-52 129t-91.5 90t-134.5 33.5q-49 0 -101.5 -19.5 t-95.5 -69.5t-69.5 -136t-26.5 -221z" />
<glyph unicode="r" horiz-adv-x="595" d="M84 -10q6 76 7 195.5t1 293.5v66q0 80 -1 185.5t-7 238.5q23 -4 43 -7.5t43 -3.5q37 0 82 11q-8 -74 -9 -117t-1 -82l4 -2q59 111 128.5 166t141.5 55q18 0 31.5 -2t34.5 -10q-10 -25 -12.5 -75t-2.5 -91l-14 -10q-10 12 -40 22.5t-60 10.5q-49 0 -88 -23t-66 -60.5 t-41 -90t-14 -111.5v-224.5t1 -153.5t2 -104t5 -77q-45 10 -82 10q-23 0 -43.5 -3t-42.5 -7z" />
<glyph unicode="s" horiz-adv-x="755" d="M66 37q12 27 25 73t13 76h25q10 -20 31.5 -44.5t51.5 -46t67.5 -36t80.5 -14.5q39 0 75 12.5t63.5 35t44 57t16.5 79.5q0 63 -36 97t-89 55.5t-116.5 38t-117 46.5t-89 79t-35.5 135q0 68 22.5 124t65.5 97t106.5 64.5t145.5 23.5q76 0 128 -20.5t99 -36.5 q-8 -14 -16.5 -34.5t-15.5 -41t-11 -39t-6 -31.5h-25q-16 49 -63 88t-117 39q-31 0 -61.5 -10t-55 -30.5t-41 -53.5t-16.5 -78q0 -66 36 -101.5t89 -56t116.5 -37t117 -43t89 -75.5t35.5 -135q0 -59 -25.5 -116.5t-73.5 -103.5t-115.5 -75t-153.5 -29q-94 0 -157.5 21.5 t-106.5 46.5z" />
<glyph unicode="t" horiz-adv-x="579" d="M27 860q2 12 3 23.5t1 23.5q0 10 -1 20.5t-3 20.5q92 -6 135 -6q-2 41 -3 102.5t-5 126.5l170 72h10q-6 -78 -9 -152.5t-8 -150.5q23 0 84.5 1t133.5 5q-2 -10 -2.5 -21.5t-0.5 -21.5v-21.5t3 -21.5q-53 4 -117 4h-101q-2 -8 -4 -65.5t-4 -136t-4 -164.5t-2 -154 q0 -57 3 -112.5t19.5 -99.5t49.5 -70.5t94 -26.5q16 0 44 4t48 10v-49q-35 -12 -77 -21.5t-81 -9.5q-129 0 -190 67.5t-61 188.5q0 55 2 120t4 141.5t5 170t3 207.5h-64.5t-74.5 -4z" />
<glyph unicode="u" horiz-adv-x="993" d="M82 305q0 109 3 185.5t3 152.5q0 72 -1 156t-3 170q47 -10 86 -11q37 0 84 11q-10 -121 -15.5 -269.5t-5.5 -300.5q0 -106 18.5 -162.5t45.5 -84.5q29 -33 73 -54.5t103 -21.5q86 0 143.5 38t83.5 93q14 33 23.5 58.5t13.5 66.5t5 110.5t1 190.5v173t-4 163 q23 -4 43.5 -7.5t42.5 -3.5q23 0 43.5 3.5t40.5 7.5q-10 -160 -12 -309.5t-2 -313.5q0 -92 2 -181t6 -175q-45 10 -80 10t-80 -10q4 45 4.5 89t0.5 87h-5q-53 -96 -137 -146.5t-182 -50.5q-160 0 -251 88t-91 248z" />
<glyph unicode="v" horiz-adv-x="1005" d="M35 969q27 -4 51.5 -7.5t50.5 -3.5q23 0 45.5 3.5t44.5 7.5q63 -201 139 -398.5t166 -400.5q41 84 82 181.5t80 201.5t77 209.5t75 206.5q35 -10 63 -11q29 0 64 11q-111 -248 -217.5 -490.5t-194.5 -488.5q-35 10 -63 10q-29 0 -66 -10q-94 246 -189.5 488.5 t-207.5 490.5z" />
<glyph unicode="w" horiz-adv-x="1626" d="M55 969q25 -4 48.5 -7.5t48.5 -3.5q43 0 94 11q53 -193 117.5 -386.5t144.5 -398.5q25 57 58.5 151.5t71.5 203t75 221t65 209.5q35 -10 62 -11q16 0 28.5 3.5t28.5 7.5q51 -195 118.5 -387.5t141.5 -397.5q27 66 62.5 161t75.5 200.5t79 216t74 207.5q37 -10 65 -11 q31 0 62 11q-117 -248 -218.5 -490.5t-189.5 -488.5q-12 4 -25.5 7t-27.5 3t-28.5 -3t-24.5 -7q-53 186 -116.5 372.5t-145.5 387.5q-25 -61 -59.5 -152.5t-72.5 -196t-74 -212t-65 -199.5q-14 4 -28.5 7t-28.5 3t-28.5 -3t-28.5 -7q-25 80 -65 197.5t-88 250.5 t-101.5 270.5t-104.5 260.5z" />
<glyph unicode="x" horiz-adv-x="1058" d="M70 -10q98 121 192 239.5t187 239.5q-92 125 -185.5 249t-191.5 251q29 -4 54.5 -7.5t53.5 -3.5q29 0 54.5 3.5t54.5 7.5q59 -98 123.5 -192.5t136.5 -190.5q74 96 144.5 190t137.5 193q18 -4 36 -7.5t36 -3.5q29 0 70 11q-98 -113 -191.5 -222.5t-185.5 -220.5 q92 -135 191.5 -268t203.5 -268q-57 10 -104 10t-105 -10q-68 104 -139.5 208.5t-144.5 209.5q-76 -104 -149 -209t-142 -209q-37 10 -68 10q-33 0 -69 -10z" />
<glyph unicode="y" horiz-adv-x="997" d="M51 969q51 -10 94 -11q43 0 95 11q63 -195 141 -388.5t164 -398.5q86 178 164.5 385t140.5 402q37 -10 68 -11q31 0 67 11q-14 -29 -46 -97.5t-76 -164t-96 -211t-106.5 -238.5t-107.5 -245t-98 -229.5t-79 -194.5t-50 -138q-37 10 -70 10t-70 -10q82 135 150 268.5 t125 268.5q-23 61 -58.5 149t-76.5 185.5t-84 199t-80 190.5t-66.5 156.5t-44.5 100.5z" />
<glyph unicode="z" horiz-adv-x="995" d="M49 -10v28q88 106 181.5 227.5t181.5 238t164.5 221t132.5 178.5q-14 0 -81 -3t-153 -7.5t-175 -9.5t-146 -11q6 27 6 57q0 25 -6 60q66 -6 193.5 -8.5t318.5 -2.5q88 0 145 2t123 9v-31q-82 -106 -179.5 -234.5t-189.5 -250t-167.5 -223t-114.5 -154.5q84 0 154.5 1 t142 4t153.5 8t191 15q-4 -14 -6.5 -28.5t-2.5 -28.5t2.5 -28.5t6.5 -28.5q-129 4 -256 7t-256 3q-92 0 -181.5 -3t-181.5 -7z" />
<glyph unicode="{" horiz-adv-x="497" d="M16 532v86q74 0 112 53.5t38 139.5v348q0 137 47 188.5t133 51.5h119v-76h-66q-53 0 -79.5 -30.5t-26.5 -133.5v-336q0 -102 -47 -158.5t-133 -86.5v-5q86 -31 133 -87t47 -158v-336q0 -102 26.5 -133t79.5 -31h66v-76h-119q-43 0 -76.5 11.5t-56.5 39t-35 73.5t-12 116 v348q0 86 -38 139t-112 53z" />
<glyph unicode="|" horiz-adv-x="294" d="M88 -512v2048h107v-2048h-107z" />
<glyph unicode="}" horiz-adv-x="497" d="M31 -172h65q53 0 80 30.5t27 133.5v336q0 102 47 158.5t133 86.5v5q-86 31 -133 87t-47 158v336q0 102 -26.5 133t-80.5 31h-65v76h119q86 0 133 -51.5t47 -188.5v-348q0 -86 38 -139.5t111 -53.5v-86q-74 0 -111.5 -53t-37.5 -139v-348q0 -70 -12.5 -116t-35 -73.5 t-56 -39t-76.5 -11.5h-119v76z" />
<glyph unicode="~" horiz-adv-x="1064" d="M66 471q47 78 101 124t148 46q61 0 105.5 -15.5t87.5 -35.5q70 -31 124 -59.5t120 -28.5q31 0 58.5 14t52 38t45 50.5t32.5 50.5l59 -86q-20 -31 -44.5 -61.5t-55.5 -56t-67.5 -41t-81.5 -15.5q-57 0 -112.5 20.5t-121.5 55.5q-53 29 -100 46.5t-88 17.5q-45 0 -79 -14.5 t-57.5 -38t-40 -50t-26.5 -51.5z" />
<glyph unicode="&#xa1;" horiz-adv-x="358" d="M59 872q0 47 35 82t82 35t82 -34.5t35 -82.5q0 -47 -35 -81.5t-82 -34.5t-82 34.5t-35 81.5zM76 -365q0 10 4 60.5t10 127.5t13.5 173t16.5 201.5t18 212t18 204.5h41q8 -96 17 -203.5t18.5 -213t16.5 -201.5t13 -173t10 -127t4 -61q0 -55 -30.5 -77.5t-69.5 -22.5 t-69.5 22.5t-30.5 77.5z" />
<glyph unicode="&#xa2;" horiz-adv-x="983" d="M66 479q0 119 35.5 209t97 151.5t141.5 97.5t168 46v16q0 41 -2 95.5t-8 101.5q31 -10 53 -10q23 0 53 10q-6 -47 -8 -99.5t-2 -95.5v-12q111 -2 198 -28.5t126 -61.5q-14 -31 -25.5 -64.5t-20.5 -70.5h-16q-14 27 -38.5 54.5t-57.5 51t-75 39t-91 15.5v-869h6 q41 0 84 11.5t84 31t77 46t62 57.5l11 -6q-8 -49 -13 -101q-57 -47 -140 -82t-171 -39v-16q0 -47 3 -104.5t7 -104.5q-31 10 -53 10q-23 0 -53 -10q4 43 7 103.5t3 107.5v14q-84 8 -163 40t-141.5 93.5t-100 153.5t-37.5 219zM246 481q0 -180 66.5 -284.5t195.5 -130.5v849 q-70 -16 -119 -54t-81 -95t-47 -130t-15 -155z" />
<glyph unicode="&#xa3;" horiz-adv-x="1038" d="M31 -10q2 14 3 30.5t1 34.5q0 16 -1 32.5t-3 33.5h28q88 0 142.5 24.5t85 68.5t42 107.5t11.5 141.5q0 55 -6 110.5t-12 104.5q-51 -2 -100.5 -3t-98.5 -1q4 12 4 23.5v23.5v21.5t-4 21.5q31 -6 80 -8t108 -2q-4 37 -7 71.5t-3 67.5q0 141 39 234.5t99.5 148.5t134 77.5 t141.5 22.5q76 0 151.5 -26.5t112.5 -81.5q-18 -23 -37.5 -49.5t-40.5 -61.5l-8 6q-18 68 -66.5 102.5t-111.5 34.5q-55 0 -100.5 -21.5t-78 -58t-50 -88t-17.5 -108.5q0 -84 4 -149.5t8 -120.5q96 0 165 3t149 7q-2 -10 -3 -21.5t-1 -21.5q0 -12 1 -23.5t3 -23.5 q-78 2 -153 3t-155 1q2 -23 3.5 -46.5t1.5 -47.5q0 -78 -16.5 -146.5t-44.5 -127t-64.5 -104.5t-75.5 -77v-4q174 0 355 8t333 14q-6 -43 -6 -81q0 -43 6 -76q-121 4 -239.5 7t-241.5 3q-117 0 -234 -3t-233 -7z" />
<glyph unicode="&#xa4;" horiz-adv-x="1175" d="M80 246l110 112q-53 66 -81.5 145t-28.5 169q0 92 29.5 173t83.5 144l-113 117l74 74l114 -115q66 53 147 84t173 31t172 -30t145 -83l113 113l74 -74l-113 -115q55 -63 86 -145t31 -174q0 -90 -30 -171t-83 -147l109 -108l-74 -78l-113 111q-66 -55 -145.5 -85 t-171.5 -30t-174 30.5t-146 86.5l-114 -113zM186 672q0 -86 31 -161t85 -130t127 -88t159 -33t158.5 33t127 88t85 130t30.5 161t-30.5 160.5t-85 130t-127 88t-158.5 32.5t-159 -32.5t-127 -88t-85 -130t-31 -160.5z" />
<glyph unicode="&#xa5;" horiz-adv-x="1124" d="M33 1403q29 -4 54.5 -7t53.5 -3q29 0 54.5 3t54.5 7q14 -37 52 -106.5t87 -154.5t103.5 -175t99.5 -164q98 154 191.5 305.5t170.5 294.5q37 -10 70 -10t70 10q-92 -121 -208 -294t-239 -355q86 0 168 1t166 3q-2 -10 -3 -21.5t-1 -21.5t1 -21.5t3 -21.5q-90 2 -178 4 t-178 2v-178h178t178 2q-2 -10 -3 -21.5t-1 -21.5t1 -21.5t3 -21.5q-90 4 -178 6t-178 2q0 -117 3 -225.5t11 -208.5q-51 10 -94 10t-94 -10q8 111 11 217t3 217q-88 0 -175 -2t-175 -6q2 10 3 21.5t1 21.5t-1 21.5t-3 21.5q88 -2 175 -2h175v178q-88 0 -175 -2t-175 -4 q2 10 3 21.5t1 21.5t-1 21.5t-3 21.5q84 -2 165.5 -3t165.5 -1q-104 162 -205.5 323.5t-207.5 325.5z" />
<glyph unicode="&#xa6;" horiz-adv-x="266" d="M88 358h107v-716h-107v716zM88 666v716h107v-716h-107z" />
<glyph unicode="&#xa7;" horiz-adv-x="894" d="M57 647q0 49 14.5 90t36 74t46 55.5t45.5 34.5q-12 18 -22.5 35.5t-17.5 38t-11.5 48.5t-4.5 71q0 63 22.5 123.5t69 107.5t115 76t158.5 29q100 0 165.5 -39t106.5 -86q-20 -18 -37.5 -54.5t-21.5 -66.5h-25q-8 33 -27.5 63.5t-47 54t-63.5 38t-79 14.5t-84 -14.5 t-72.5 -41t-52 -64.5t-20.5 -85q0 -74 44 -120t109.5 -78.5t141.5 -60.5t141.5 -66t109.5 -94t44 -146q0 -43 -12.5 -83t-30 -75t-38 -62.5t-38.5 -46.5q35 -29 55.5 -72.5t20.5 -109.5q0 -76 -28 -147.5t-83 -127t-135 -89t-184 -33.5q-39 0 -80 7t-79 19.5t-72 27.5 t-58 34q10 35 16 87t6 87h25q8 -25 29.5 -56.5t58.5 -60t88 -49t123 -20.5q55 0 103 21.5t84 55t57.5 76.5t21.5 88q0 74 -47 118t-116.5 77t-152.5 61.5t-152.5 69.5t-117 103.5t-47.5 162.5zM154 715q0 -78 51 -126t168 -100q145 -63 214.5 -96t100.5 -53q20 29 37.5 64 t17.5 90q0 39 -9 66.5t-29.5 51t-55.5 44t-86 42.5q-100 45 -160.5 74t-94.5 47.5t-49 28.5t-28 20q-27 -23 -52 -63.5t-25 -89.5z" />
<glyph unicode="&#xa8;" horiz-adv-x="770" d="M78 1305q0 43 30.5 73.5t73.5 30.5t74 -30.5t31 -73.5t-31 -74t-74 -31t-73.5 31t-30.5 74zM481 1305q0 43 31 73.5t74 30.5t73.5 -30.5t30.5 -73.5t-30.5 -74t-73.5 -31t-74 31t-31 74z" />
<glyph unicode="&#xa9;" horiz-adv-x="1587" d="M59 696q0 152 57.5 286t157 233.5t233.5 157t286 57.5t285.5 -57.5t233 -157t157 -233.5t57.5 -286t-57.5 -286t-157 -233t-233.5 -156.5t-285 -57.5q-152 0 -286 57.5t-233.5 156.5t-157 233t-57.5 286zM145 696q0 -135 50.5 -254.5t137.5 -209t205.5 -141.5t254.5 -52 q135 0 253.5 52t205.5 141.5t137.5 209t50.5 254.5t-50.5 255t-137.5 209t-205.5 141.5t-253.5 52.5t-254 -52.5t-206 -141.5t-137.5 -209t-50.5 -255zM340 692q0 121 39 212t107.5 152.5t160.5 92.5t197 31q100 0 171.5 -15.5t117.5 -42.5q-25 -47 -27 -102l-10 -4 q-14 12 -35 30.5t-50.5 36t-69.5 28.5t-91 11q-72 0 -139.5 -19.5t-119.5 -67.5t-84 -132t-32 -213q0 -88 24.5 -162.5t71.5 -129t116 -85t157 -30.5q43 0 84 11t76.5 27.5t65.5 36t50 37.5l13 -4q-8 -18 -10.5 -41.5t-2.5 -40.5q-41 -25 -120.5 -54.5t-178.5 -29.5 q-106 0 -194 33t-151.5 94.5t-99.5 147.5t-36 192z" />
<glyph unicode="&#xaa;" horiz-adv-x="698" d="M61 915q0 37 9.5 64t32 47.5t62.5 34.5t99 24q68 12 106 20.5t56 15.5t22.5 16.5t4.5 23.5q0 49 -11.5 81t-32 48.5t-46 22.5t-56.5 6q-63 0 -102 -27.5t-51 -54.5h-25v76q41 23 92 43t131 20q35 0 73 -7t70.5 -28.5t53 -59.5t20.5 -99q0 -37 -2 -80t-3 -84t-3 -77 t-2 -58q0 -41 14.5 -55.5t30.5 -14.5q10 0 21.5 4t17.5 8v-37q-14 -8 -38.5 -16t-57.5 -8q-41 0 -62.5 26.5t-25.5 61.5q-45 -43 -94.5 -65.5t-112.5 -22.5q-33 0 -66.5 7t-61.5 24.5t-45.5 47t-17.5 72.5zM188 928q0 -53 33 -80t80 -27q49 0 88 28t64 54v189 q-31 -16 -77 -22.5t-87 -19t-71 -39t-30 -83.5z" />
<glyph unicode="&#xab;" horiz-adv-x="739" d="M37 475l258 383q10 -20 30.5 -35.5t45.5 -19.5l-228 -326l217 -340q-25 -4 -47 -19.5t-30 -33.5zM334 475l258 383q10 -20 30.5 -35.5t45.5 -19.5l-228 -326l217 -340q-25 -4 -47 -19.5t-30 -33.5z" />
<glyph unicode="&#xac;" horiz-adv-x="1130" d="M4 664v106h1036v-549h-106v443h-930z" />
<glyph unicode="&#xad;" d="M88 410v127h510v-127h-510z" />
<glyph unicode="&#xae;" horiz-adv-x="1587" d="M59 696q0 152 57.5 286t157 233.5t233.5 157t286 57.5t285.5 -57.5t233 -157t157 -233.5t57.5 -286t-57.5 -286t-157 -233t-233.5 -156.5t-285 -57.5q-152 0 -286 57.5t-233.5 156.5t-157 233t-57.5 286zM145 696q0 -135 50.5 -254.5t137.5 -209t205.5 -141.5t254.5 -52 q135 0 253.5 52t205.5 141.5t137.5 209t50.5 254.5t-50.5 255t-137.5 209t-205.5 141.5t-253.5 52.5t-254 -52.5t-206 -141.5t-137.5 -209t-50.5 -255zM506 252q4 72 9 143.5t5 143.5v350q0 70 -4 144.5t-10 131.5q41 -4 83 -7t85 -3q41 0 83 5t83 5q53 0 100 -12t82 -37.5 t55.5 -64.5t20.5 -90q0 -63 -30 -109.5t-73 -77.5t-91 -48t-87 -19q39 -49 89 -116t100.5 -131.5t96.5 -117.5t77 -80v-10q-45 10 -78 10q-35 0 -80 -10q-76 111 -158 219.5t-172 218.5h-65v-143q0 -147 12 -295q-37 10 -66 10q-31 0 -67 -10zM627 748q10 -4 33.5 -6.5 t52.5 -2.5q51 0 98 11.5t83 36t56.5 64.5t20.5 95q0 80 -53.5 125t-137.5 45q-39 0 -74.5 -3t-66.5 -7q-4 -47 -8 -96t-4 -97v-165z" />
<glyph unicode="&#xaf;" horiz-adv-x="737" d="M88 1237v106h559v-106h-559z" />
<glyph unicode="&#xb0;" horiz-adv-x="716" d="M59 1079q0 61 23.5 115.5t63.5 94.5t94.5 63.5t115.5 23.5t115.5 -23.5t94.5 -63.5t63.5 -94t23.5 -116q0 -61 -23.5 -115.5t-63.5 -94.5t-94 -63.5t-116 -23.5q-61 0 -115.5 23.5t-94.5 63.5t-63.5 94.5t-23.5 115.5zM135 1079q0 -47 17.5 -87t47 -69.5t69.5 -47 t87 -17.5q45 0 86 17.5t71 47t47.5 69.5t17.5 87q0 45 -17.5 86t-47.5 71t-71 47t-86 17q-47 0 -87 -17t-69.5 -47t-47 -71t-17.5 -86z" />
<glyph unicode="&#xb1;" horiz-adv-x="1069" d="M16 0v106h1037v-106h-1037zM16 557v107h465v372h107v-372h465v-107h-465v-373h-107v373h-465z" />
<glyph unicode="&#xb2;" horiz-adv-x="690" d="M53 532v31q98 92 178 167t136.5 142.5t87 134t30.5 146.5q0 92 -45 133t-104 41q-43 0 -73 -13.5t-50 -32.5t-31.5 -41.5t-13.5 -41.5l-10 -4l-47 61q43 63 101 92t142 29q57 0 105.5 -12t84.5 -39t56.5 -67.5t20.5 -98.5q0 -49 -14.5 -92t-57.5 -98.5t-124 -133 t-216 -196.5l4 -10h99.5t108.5 1t106.5 3t97.5 6q-4 -14 -6.5 -26.5t-2.5 -26.5t2.5 -26.5t6.5 -27.5q-72 4 -143.5 7.5t-143.5 3.5t-142.5 -3t-142.5 -8z" />
<glyph unicode="&#xb3;" horiz-adv-x="665" d="M55 573l21 78h10q23 -23 68 -47t108 -24q96 0 152.5 55t56.5 141q0 51 -14.5 85t-38 54.5t-53 29.5t-60.5 9q-25 0 -46 -4t-38 -8q6 18 6 35q0 23 -6 41q16 -8 33.5 -11t34.5 -3q43 0 70.5 17t45 44t23.5 58.5t6 62.5q0 72 -42 106.5t-95 34.5t-93 -26.5t-54 -61.5 l-11 -2l-30 66q29 25 76.5 49t140.5 24q98 0 166.5 -44t68.5 -136q0 -45 -16.5 -81t-43 -61.5t-58 -42t-62.5 -22.5v-4q35 -2 74 -12t72.5 -31.5t56 -58.5t22.5 -92q0 -117 -93 -189t-247 -72q-74 0 -125 13.5t-86 29.5z" />
<glyph unicode="&#xb4;" horiz-adv-x="577" d="M59 1145l301 305q23 23 46.5 36t46.5 13q20 0 43.5 -16.5t23.5 -48.5q0 -37 -24.5 -58.5t-49.5 -38.5l-301 -192h-86z" />
<glyph unicode="&#xb5;" horiz-adv-x="944" d="M88 -549q0 88 2 167t3 158t2 161.5t1 181.5q0 135 -1 250.5t-2 218t-2 196t-1 185.5q47 -10 86 -11q37 0 84 11q-10 -121 -15 -269.5t-5 -300.5q0 -106 18 -162.5t45 -84.5q29 -33 73 -54.5t103 -21.5q86 0 143.5 38t84.5 93q14 33 23 58.5t13.5 66.5t5.5 110.5t1 190.5 v173t-5 163q23 -4 43.5 -7.5t42.5 -3.5q23 0 43.5 3.5t40.5 7.5q-10 -160 -12 -309.5t-2 -313.5q0 -92 2 -181t6 -175q-45 10 -80 10t-79 -10q4 45 4 89v87h-4q-53 -96 -138.5 -146.5t-183.5 -50.5q-57 0 -104.5 13.5t-83.5 48.5q0 -154 2 -296.5t18 -283.5q-47 10 -86 10 t-86 -10z" />
<glyph unicode="&#xb6;" horiz-adv-x="1015" d="M25 1016q0 190 108.5 283.5t298.5 93.5h535v-50l-154 -24v-1555h-74v1545l-131 -21v-1524h-73v832q-131 0 -227.5 30.5t-159 86t-93 133.5t-30.5 170z" />
<glyph unicode="&#xb7;" horiz-adv-x="374" d="M61 627q0 51 36 87t87 36t87 -36t36 -87t-35.5 -87t-87.5 -36q-51 0 -87 36t-36 87z" />
<glyph unicode="&#xb8;" horiz-adv-x="503" d="M35 -424l28 66q23 -10 62 -17.5t86 -7.5q51 0 87 22.5t36 63.5q0 45 -31 63.5t-74 18.5q-68 0 -88 -14l-14 14l84 215h72l-52 -150q12 4 25.5 7.5t34.5 3.5q80 0 125 -40t45 -106q0 -43 -19.5 -75.5t-53.5 -54t-78 -33t-93 -11.5q-63 0 -108.5 12.5t-73.5 22.5z" />
<glyph unicode="&#xb9;" horiz-adv-x="468" d="M63 1229v20q78 25 159 58.5t145 68.5h22q-12 -158 -12 -319v-205q0 -158 12 -320q-37 10 -70 11q-33 0 -69 -11q6 84 8 163t2 157v410l-8 4l-148 -76q-14 27 -41 39z" />
<glyph unicode="&#xba;" horiz-adv-x="808" d="M76 1069q0 84 28.5 142.5t75.5 95t105.5 53t120.5 16.5q57 0 115.5 -16.5t105.5 -53t75.5 -95t28.5 -142.5t-28.5 -142.5t-75.5 -94t-105.5 -52t-115.5 -16.5q-61 0 -120 16.5t-106 52t-75.5 94t-28.5 142.5zM211 1069q0 -47 10 -93t32.5 -82t59.5 -58.5t93 -22.5 q53 0 88.5 22.5t58 58.5t33 82t10.5 93q0 49 -10.5 95t-33 82t-58 58.5t-88.5 22.5q-55 0 -92.5 -22.5t-60 -58.5t-32.5 -82t-10 -95z" />
<glyph unicode="&#xbb;" horiz-adv-x="741" d="M72 145l227 326l-217 340q25 4 47.5 19.5t30.5 33.5l246 -391l-259 -383q-10 20 -30.5 35.5t-44.5 19.5zM369 145l227 326l-217 340q25 4 47.5 19.5t30.5 33.5l245 -391l-258 -383q-10 20 -30.5 35.5t-44.5 19.5z" />
<glyph unicode="&#xbc;" horiz-adv-x="1560" d="M43 1229v20q78 25 159 58.5t144 68.5h23q-12 -158 -13 -319v-205q0 -158 13 -320q-37 10 -70 11q-33 0 -70 -11q6 84 8.5 163t2.5 157v410l-9 4l-147 -76q-14 27 -41 39zM383 -57l567 1458q27 -10 47 -10t47 10l-567 -1458q-27 10 -47 10t-47 -10zM868 213v45 q109 141 216.5 281.5t218.5 281.5q10 -4 23 -6t30 -2q16 0 29.5 2t23.5 6q-8 -131 -9 -262t-1 -262q29 0 62.5 3t56.5 9q-4 -12 -6.5 -24.5t-2.5 -22.5q0 -12 2 -24.5t7 -24.5q-23 4 -52.5 6t-66.5 2q0 -59 2 -115.5t6 -115.5q-37 10 -68 10t-67 -10q4 59 7 115.5t3 115.5 q-59 0 -120.5 -1t-117 -2t-101.5 -2t-75 -3zM993 307l4 -10h285v395l-4 6q-74 -98 -149.5 -195t-135.5 -196z" />
<glyph unicode="&#xbd;" horiz-adv-x="1533" d="M43 1229v20q78 25 159 58.5t144 68.5h23q-12 -158 -13 -319v-205q0 -158 13 -320q-37 10 -70 11q-33 0 -70 -11q6 84 8.5 163t2.5 157v410l-9 4l-147 -76q-14 27 -41 39zM377 -57l567 1458q27 -10 47 -10t47 10l-567 -1458q-27 10 -47 10t-47 -10zM922 -10v30 q98 92 178 167t136 142.5t87 134t31 146.5q0 92 -45 133t-105 41q-43 0 -72.5 -13t-50 -32.5t-32 -42t-13.5 -41.5l-10 -4l-47 62q43 63 101.5 92t142.5 29q57 0 105 -12.5t84 -39t56.5 -67.5t20.5 -99q0 -49 -14.5 -92t-57.5 -98t-124 -133t-216 -197l4 -10h99.5t108.5 1 t106.5 3t97.5 6q-4 -14 -6 -26.5t-2 -26.5t2 -26.5t6 -26.5q-72 4 -143.5 7t-143.5 3t-142.5 -3t-141.5 -7z" />
<glyph unicode="&#xbe;" horiz-adv-x="1644" d="M35 573l20 78h11q23 -23 67.5 -47t108.5 -24q96 0 152.5 55t56.5 141q0 51 -14.5 85t-38 54.5t-53.5 29.5t-60 9q-25 0 -46.5 -4t-37.5 -8q6 18 6 35q0 23 -6 41q16 -8 33.5 -11t33.5 -3q43 0 71 17t45 44t23.5 58.5t6.5 62.5q0 72 -42 106.5t-96 34.5q-53 0 -93 -26.5 t-54 -61.5l-10 -2l-31 66q29 25 77 49t140 24q98 0 167 -44t69 -136q0 -45 -16.5 -81t-43 -61.5t-58.5 -42t-63 -22.5v-4q35 -2 74 -12t73 -31.5t56.5 -58.5t22.5 -92q0 -117 -93.5 -189t-246.5 -72q-74 0 -125 13.5t-86 29.5zM489 -57l568 1458q27 -10 47 -10t47 10 l-567 -1458q-27 10 -47 10t-48 -10zM950 213v45q109 141 216.5 281.5t217.5 281.5q10 -4 23.5 -6t30.5 -2q16 0 29.5 2t23.5 6q-8 -131 -9 -262t-1 -262q29 0 62.5 3t55.5 9q-4 -12 -6 -24.5t-2 -22.5q0 -12 2 -24.5t6 -24.5q-23 4 -52 6t-66 2q0 -59 2 -115.5t6 -115.5 q-37 10 -68 10t-67 -10q4 59 7 115.5t3 115.5q-59 0 -120.5 -1t-117 -2t-101.5 -2t-75 -3zM1075 307l4 -10h285v395l-4 6q-74 -98 -149.5 -195t-135.5 -196z" />
<glyph unicode="&#xbf;" horiz-adv-x="585" d="M29 -195q0 72 26.5 132.5t67.5 111.5t88 97.5t88 91.5t67.5 92t26.5 100q0 41 -26.5 81t-79.5 40q-25 0 -43.5 -7t-26.5 -12l-12 9q8 10 15 26.5t9 30.5q27 10 72 10q25 0 62.5 -12t72.5 -39t59.5 -70t24.5 -106q0 -68 -25.5 -124t-65.5 -104.5t-85 -91.5t-85 -87 t-65.5 -92t-25.5 -103q0 -39 15.5 -71t40 -53.5t56 -32.5t64.5 -11q55 0 103.5 26.5t82.5 67.5l13 -102q-41 -25 -90.5 -46.5t-120.5 -21.5q-74 0 -130.5 21.5t-95 58.5t-58 86t-19.5 104zM217 872q0 47 35 82t82 35t82 -34.5t35 -82.5q0 -47 -35 -81.5t-82 -34.5t-82 34.5 t-35 81.5z" />
<glyph unicode="&#xc0;" horiz-adv-x="1355" d="M39 -10q166 362 324.5 718.5t316.5 721.5h39q49 -119 107.5 -256.5t118 -279.5t117.5 -280.5t109.5 -259.5t94.5 -215t69 -149q-29 4 -54.5 7t-53.5 3q-29 0 -54.5 -3t-54.5 -7q-14 53 -38.5 119.5t-53.5 139.5t-60.5 147.5t-58.5 142.5q-66 2 -133 3t-135 1 q-63 0 -124.5 -1t-125.5 -3q-66 -160 -119 -305.5t-80 -243.5q-20 4 -38.5 7t-36.5 3t-37 -3t-39 -7zM367 1786q0 33 23.5 49t43.5 16q23 0 46.5 -13t45.5 -36l301 -305h-86l-301 193q-25 16 -49 37.5t-24 58.5zM428 633q53 0 110.5 -2t110.5 -2q57 0 114.5 1t115.5 3 l-228 520z" />
<glyph unicode="&#xc1;" horiz-adv-x="1357" d="M20 -10q166 362 325 718.5t317 721.5h38q49 -119 107.5 -256.5t118 -279.5t118 -280.5t109.5 -259.5t94 -215t70 -149q-29 4 -54.5 7t-54.5 3t-54.5 -3t-53.5 -7q-14 53 -39 119.5t-53.5 139.5t-60.5 147.5t-58 142.5q-66 2 -133.5 3t-134.5 1q-63 0 -125 -1t-125 -3 q-66 -160 -119 -305.5t-80 -243.5q-20 4 -38.5 7t-37.5 3q-18 0 -36.5 -3t-39.5 -7zM410 633q53 0 110.5 -2t110.5 -2q57 0 114.5 1t114.5 3l-227 520zM528 1497l301 305q23 23 46.5 36t46.5 13q20 0 43.5 -16t23.5 -49q0 -37 -24.5 -58.5t-49.5 -37.5l-301 -193h-86z" />
<glyph unicode="&#xc2;" horiz-adv-x="1368" d="M35 -10q166 362 324.5 718.5t316.5 721.5h39q49 -119 107.5 -256.5t117.5 -279.5t117.5 -280.5t110 -259.5t94.5 -215t69 -149q-29 4 -54.5 7t-53.5 3q-29 0 -54.5 -3t-54.5 -7q-14 53 -38.5 119.5t-53.5 139.5t-60.5 147.5t-58.5 142.5q-66 2 -133.5 3t-134.5 1 q-63 0 -124.5 -1t-125.5 -3q-66 -160 -119 -305.5t-80 -243.5q-20 4 -38.5 7t-36.5 3t-37 -3t-39 -7zM362 1497l252 342h138l252 -342h-76l-246 215l-244 -215h-76zM424 633q53 0 110.5 -2t110.5 -2q57 0 114.5 1t114.5 3l-227 520z" />
<glyph unicode="&#xc3;" horiz-adv-x="1355" d="M29 -10q166 362 324.5 718.5t316.5 721.5h39q51 -119 108 -256.5t116.5 -279.5t118 -280.5t109.5 -259.5t94 -215t70 -149q-29 4 -54.5 7t-53.5 3q-29 0 -54.5 -3t-54.5 -7q-14 53 -39 119.5t-53.5 139.5t-60 147.5t-58.5 142.5q-66 2 -133.5 3t-134.5 1q-63 0 -125 -1 t-125 -3q-66 -160 -119 -305.5t-80 -243.5q-20 4 -38.5 7t-37.5 3q-18 0 -36.5 -3t-38.5 -7zM340 1548q6 37 21.5 74t42 67.5t63.5 50t86 19.5q35 0 63.5 -10t85.5 -37q57 -29 83 -38t53 -9q47 0 75.5 30.5t40.5 71.5h60q-4 -25 -16.5 -61.5t-38 -72.5t-66.5 -60.5 t-102 -24.5q-29 0 -65 10.5t-83 36.5q-53 29 -80.5 38t-52.5 9q-47 0 -68.5 -20t-40.5 -74h-61zM418 633q53 0 110.5 -2t110.5 -2q57 0 114.5 1t114.5 3l-227 520z" />
<glyph unicode="&#xc4;" horiz-adv-x="1353" d="M29 -10q166 362 324.5 718.5t316.5 721.5h39q51 -119 108 -256.5t116.5 -279.5t118 -280.5t109.5 -259.5t94 -215t70 -149q-29 4 -54.5 7t-53.5 3q-29 0 -54.5 -3t-54.5 -7q-14 53 -39 119.5t-53.5 139.5t-60 147.5t-58.5 142.5q-66 2 -133.5 3t-134.5 1q-63 0 -125 -1 t-125 -3q-66 -160 -119 -305.5t-80 -243.5q-20 4 -38.5 7t-37.5 3q-18 0 -36.5 -3t-38.5 -7zM371 1657q0 43 30.5 73.5t73.5 30.5t74 -30.5t31 -73.5t-31 -74t-74 -31t-73.5 31t-30.5 74zM418 633q53 0 110.5 -2t110.5 -2q57 0 114.5 1t114.5 3l-227 520zM774 1657 q0 43 31 73.5t74 30.5t73.5 -30.5t30.5 -73.5t-30.5 -74t-73.5 -31t-74 31t-31 74z" />
<glyph unicode="&#xc5;" horiz-adv-x="1366" d="M35 -10q166 362 324.5 718.5t316.5 721.5h39q49 -119 107.5 -256.5t117.5 -279.5t117.5 -280.5t110 -259.5t94.5 -215t69 -149q-29 4 -54.5 7t-53.5 3q-29 0 -54.5 -3t-54.5 -7q-14 53 -38.5 119.5t-53.5 139.5t-60.5 147.5t-58.5 142.5q-66 2 -133.5 3t-134.5 1 q-63 0 -124.5 -1t-125.5 -3q-66 -160 -119 -305.5t-80 -243.5q-20 4 -38.5 7t-36.5 3t-37 -3t-39 -7zM424 633q53 0 110.5 -2t110.5 -2q57 0 114.5 1t114.5 3l-227 520zM473 1673q0 43 16.5 81t45 66.5t67.5 45t82 16.5t81 -16.5t66.5 -45t45 -66.5t16.5 -81t-16.5 -81 t-45 -66.5t-67.5 -45t-82 -16.5t-81 16.5t-66.5 45t-45 66.5t-16.5 81zM559 1673q0 -51 36 -87t87 -36q53 0 89 36t36 87t-36 87t-87 36q-53 0 -89 -36t-36 -87z" />
<glyph unicode="&#xc6;" horiz-adv-x="1697" d="M23 -10q94 133 207.5 305t234.5 359.5t243.5 380t233.5 368.5q86 -4 172 -7t174 -3q86 0 171 3t169 7q-10 -35 -10 -64t10 -63q-31 6 -62.5 11t-83.5 10.5t-134 7.5t-211 2q-4 -90 -7.5 -179.5t-3.5 -179.5v-168q125 0 203 1t126 3t76 5.5t56 5.5q-10 -31 -10 -58t10 -57 q-29 2 -57.5 5t-76.5 5t-125 3t-202 1v-207q0 -100 3.5 -200.5t7.5 -200.5q223 0 339.5 7t165.5 16q-4 -16 -7 -29.5t-3 -30.5q0 -16 3 -29.5t7 -29.5q-90 4 -177 7t-173 3q-88 0 -175 -3t-175 -7q12 129 14 257t2 257l-473 12q-82 -133 -152.5 -263t-133.5 -263 q-23 4 -42.5 7t-41.5 3q-41 0 -92 -10zM530 602l428 -12v653h-22z" />
<glyph unicode="&#xc7;" horiz-adv-x="1288" d="M37 696q0 174 56.5 310.5t157.5 230.5t242.5 143.5t311.5 49.5q133 0 246.5 -28t197.5 -67q-16 -29 -26.5 -78t-16.5 -81l-12 -5q-23 25 -58.5 55.5t-85 59.5t-111.5 48.5t-134 19.5q-121 0 -224.5 -39t-180 -120t-119.5 -205t-43 -294t43 -293.5t119.5 -204.5t180 -120 t224.5 -39q74 0 136.5 18.5t114.5 44t94 55t71 52.5l8 -8l-19 -121q-18 -16 -59 -35.5t-96.5 -38t-125 -31t-145.5 -12.5h-24l-43 -125q12 4 25.5 7t33.5 3q80 0 125 -39.5t45 -105.5q0 -43 -19.5 -76t-53 -54.5t-77.5 -32.5t-94 -11q-63 0 -108 12.5t-74 22.5l29 65 q23 -10 61.5 -17t85.5 -7q51 0 87 22.5t36 63.5q0 45 -30.5 63.5t-73.5 18.5q-68 0 -88 -15l-15 15l76 190q-143 14 -263 70.5t-206 149.5t-134 222.5t-48 290.5z" />
<glyph unicode="&#xc8;" horiz-adv-x="823" d="M76 -10q6 135 11 267t5 265v352q0 133 -5 265.5t-11 263.5q92 -4 183 -7t183 -3t182.5 3t182.5 7q-6 -31 -6 -62t6 -61q-66 4 -120 9t-114.5 9.5t-132 6.5t-172.5 2q-2 -66 -5 -125.5t-3 -134.5q0 -80 1 -156t1 -115q180 0 294 6t204 15q-6 -31 -6 -64q0 -31 6 -61 q-53 6 -124 9t-141.5 5t-133 3t-99.5 1q0 -18 -1 -39.5t-1 -53.5v-81v-123q0 -117 1 -192.5t3 -114.5q68 0 144.5 1t151.5 3t141.5 7t115.5 16q-4 -14 -5 -32t-1 -32q0 -33 6 -59q-92 4 -183 7t-185 3t-186.5 -3t-186.5 -7zM117 1786q0 33 23.5 49t43.5 16q23 0 46.5 -13 t45.5 -36l302 -305h-86l-302 193q-25 16 -49 37.5t-24 58.5z" />
<glyph unicode="&#xc9;" horiz-adv-x="821" d="M53 -10q6 135 11.5 267t5.5 265v352q0 133 -5.5 265.5t-11.5 263.5q92 -4 183.5 -7t183.5 -3t182 3t182 7q-6 -31 -6 -62t6 -61q-66 4 -120 9t-114.5 9.5t-132 6.5t-171.5 2q-2 -66 -5 -125.5t-3 -134.5q0 -80 1 -156t1 -115q180 0 293.5 6t203.5 15q-6 -31 -6 -64 q0 -31 6 -61q-53 6 -123.5 9t-141.5 5t-133.5 3t-98.5 1q0 -18 -1 -39.5t-1 -53.5v-81v-123q0 -117 1 -192.5t3 -114.5q68 0 144.5 1t151 3t141 7t116.5 16q-4 -14 -5.5 -32t-1.5 -32q0 -33 7 -59q-92 4 -183.5 7t-185.5 3t-186.5 -3t-186.5 -7zM274 1497l301 305 q23 23 46.5 36t46.5 13q20 0 43.5 -16t23.5 -49q0 -37 -24.5 -58.5t-48.5 -37.5l-302 -193h-86z" />
<glyph unicode="&#xca;" horiz-adv-x="835" d="M72 -10q6 135 11 267t5 265v352q0 133 -5 265.5t-11 263.5q92 -4 183 -7t183 -3t182.5 3t182.5 7q-6 -31 -6 -62t6 -61q-66 4 -120 9t-114.5 9.5t-132 6.5t-172.5 2q-2 -66 -5 -125.5t-3 -134.5q0 -80 1 -156t1 -115q180 0 294 6t204 15q-6 -31 -6 -64q0 -31 6 -61 q-53 6 -124 9t-141.5 5t-133 3t-99.5 1q0 -18 -1 -39.5t-1 -53.5v-81v-123q0 -117 1 -192.5t3 -114.5q68 0 144.5 1t151.5 3t141.5 7t115.5 16q-4 -14 -5 -32t-1 -32q0 -33 6 -59q-92 4 -183 7t-186 3q-94 0 -186 -3t-186 -7zM113 1497l252 342h137l252 -342h-76l-246 215 l-244 -215h-75z" />
<glyph unicode="&#xcb;" horiz-adv-x="833" d="M72 -10q6 135 11 267t5 265v352q0 133 -5 265.5t-11 263.5q92 -4 183 -7t183 -3t182.5 3t182.5 7q-6 -31 -6 -62t6 -61q-66 4 -120 9t-114.5 9.5t-132 6.5t-172.5 2q-2 -66 -5 -125.5t-3 -134.5q0 -80 1 -156t1 -115q180 0 294 6t204 15q-6 -31 -6 -64q0 -31 6 -61 q-53 6 -124 9t-141.5 5t-133 3t-99.5 1q0 -18 -1 -39.5t-1 -53.5v-81v-123q0 -117 1 -192.5t3 -114.5q68 0 144.5 1t151.5 3t141.5 7t115.5 16q-4 -14 -5 -32t-1 -32q0 -33 6 -59q-92 4 -183 7t-186 3q-94 0 -186 -3t-186 -7zM127 1657q0 43 30.5 73.5t73.5 30.5t74 -30.5 t31 -73.5t-31 -74t-74 -31t-73.5 31t-30.5 74zM530 1657q0 43 31 73.5t74 30.5t73.5 -30.5t30.5 -73.5t-30.5 -74t-73.5 -31t-74 31t-31 74z" />
<glyph unicode="&#xcc;" horiz-adv-x="520" d="M14 1786q0 33 23.5 49t44.5 16q23 0 46.5 -13t45.5 -36l301 -305h-86l-301 193q-25 16 -49.5 37.5t-24.5 58.5zM233 -10q6 133 11.5 265t5.5 265v352q0 133 -5 265.5t-12 265.5q27 -4 51.5 -7t49.5 -3t49.5 3t50.5 7q-6 -133 -11 -265t-5 -266v-352q0 -133 5 -265 t11 -265q-27 4 -51.5 7t-48.5 3q-25 0 -49.5 -3t-51.5 -7z" />
<glyph unicode="&#xcd;" horiz-adv-x="518" d="M43 1497l301 305q23 23 46.5 36t45.5 13q20 0 44 -16t24 -49q0 -37 -24.5 -58.5t-49.5 -37.5l-301 -193h-86zM82 -10q6 133 11 265t5 265v352q0 133 -5 265.5t-11 265.5q27 -4 51.5 -7t48.5 -3q25 0 49.5 3t51.5 7q-6 -133 -11.5 -265t-5.5 -266v-352q0 -133 5 -265 t12 -265q-27 4 -51.5 7t-49.5 3t-49 -3t-51 -7z" />
<glyph unicode="&#xce;" d="M23 1497l251 342h138l252 -342h-76l-246 215l-244 -215h-75zM242 -10q6 133 11 265t5 265v352q0 133 -5 265.5t-11 265.5q27 -4 51 -7t49 -3t49.5 3t50.5 7q-6 -133 -11 -265t-5 -266v-352q0 -133 5 -265t11 -265q-27 4 -51 7t-49 3t-49.5 -3t-50.5 -7z" />
<glyph unicode="&#xcf;" horiz-adv-x="653" d="M20 1657q0 43 31 73.5t74 30.5t73.5 -30.5t30.5 -73.5t-30.5 -74t-73.5 -31t-74 31t-31 74zM225 -10q6 133 11.5 265t5.5 265v352q0 133 -5.5 265.5t-11.5 265.5q27 -4 51.5 -7t49.5 -3t49 3t51 7q-6 -133 -11 -265t-5 -266v-352q0 -133 5 -265t11 -265q-27 4 -51.5 7 t-48.5 3q-25 0 -49.5 -3t-51.5 -7zM424 1657q0 43 30.5 73.5t73.5 30.5t74 -30.5t31 -73.5t-31 -74t-74 -31t-73.5 31t-30.5 74z" />
<glyph unicode="&#xd0;" horiz-adv-x="1597" d="M53 743q2 10 3 21.5t1 21.5t-1 20.5t-3 20.5q57 -4 105.5 -4h95.5v49q0 133 -5 265.5t-11 265.5q78 -4 154.5 -7t154.5 -3t154.5 5t154.5 5q180 0 308 -47t210 -134t120 -213t38 -284q0 -205 -70.5 -345t-180.5 -227t-242 -125t-253 -38q-70 0 -137 5t-137 5t-137.5 -3 t-136.5 -7q6 133 11 265t5 265v228h-95t-106 -5zM422 520q0 -223 12 -434q43 -10 117 -15t151 -5q113 0 225.5 26.5t202 100t145.5 201.5t56 331q0 178 -44 293t-120.5 181.5t-184.5 92t-232 25.5q-92 0 -172 -6t-144 -15q-6 -98 -9 -205.5t-3 -218.5v-49q98 0 198.5 1 t194.5 5q-6 -23 -6 -43q0 -23 6 -47q-94 4 -194.5 6.5t-198.5 2.5v-228z" />
<glyph unicode="&#xd1;" horiz-adv-x="1353" d="M63 -10q4 25 9.5 81t9.5 133t9 167t8 180t5 176t2 154q0 195 -1 337t-5 212h33q125 -135 267.5 -290t282.5 -305.5t266 -284.5t220 -228v279t-2 280.5t-5 270.5t-9 251q37 -10 70 -10q29 0 65 10q-4 -45 -10 -135t-11 -192.5t-8.5 -201t-3.5 -157.5q0 -78 1 -192.5 t2.5 -228.5t2.5 -206t1 -127h-29q-236 276 -503 564t-531 569q-2 -57 -4 -154.5t-2 -261.5q0 -43 1 -106.5t2 -133t2 -141.5t3 -133.5t5 -108.5t5 -67q-37 10 -72 10q-18 0 -36.5 -3t-39.5 -7zM373 1548q6 37 21.5 74t42 67.5t63.5 50t86 19.5q35 0 63.5 -10t85.5 -37 q57 -29 83 -38t52 -9q47 0 76 30.5t41 71.5h60q-4 -25 -16.5 -61.5t-38 -72.5t-66.5 -60.5t-103 -24.5q-29 0 -64.5 10.5t-82.5 36.5q-53 29 -81 38t-52 9q-47 0 -68.5 -20t-40.5 -74h-61z" />
<glyph unicode="&#xd2;" horiz-adv-x="1624" d="M49 696q0 174 56.5 310.5t158 230.5t241.5 143.5t310 49.5t311.5 -49.5t242.5 -143.5t157.5 -230.5t56.5 -310.5t-56.5 -310t-157.5 -230.5t-242.5 -143.5t-311.5 -49t-310 49t-241.5 143.5t-158 230.5t-56.5 310zM250 696q0 -170 43 -293.5t119.5 -204.5t179 -120 t223.5 -39t224.5 39t180 120t119.5 204.5t43 293.5t-43 294t-119.5 205t-180 120t-224.5 39t-223.5 -39t-179 -120t-119.5 -205t-43 -294zM496 1786q0 33 23.5 49t43.5 16q23 0 46.5 -13t45.5 -36l301 -305h-86l-301 193q-25 16 -49 37.5t-24 58.5z" />
<glyph unicode="&#xd3;" horiz-adv-x="1624" d="M41 696q0 174 56.5 310.5t157.5 230.5t241.5 143.5t310.5 49.5t311.5 -49.5t242.5 -143.5t157.5 -230.5t56.5 -310.5t-56.5 -310t-157.5 -230.5t-242.5 -143.5t-311.5 -49t-310.5 49t-241.5 143.5t-157.5 230.5t-56.5 310zM242 696q0 -170 43 -293.5t119.5 -204.5 t179 -120t223.5 -39t224.5 39t180 120t119.5 204.5t43 293.5t-43 294t-119.5 205t-180 120t-224.5 39t-223.5 -39t-179 -120t-119.5 -205t-43 -294zM668 1497l301 305q23 23 46 36t46 13q20 0 43.5 -16t23.5 -49q0 -37 -24.5 -58.5t-48.5 -37.5l-301 -193h-86z" />
<glyph unicode="&#xd4;" horiz-adv-x="1632" d="M49 696q0 174 56.5 310.5t158 230.5t241.5 143.5t310 49.5t311.5 -49.5t242.5 -143.5t157.5 -230.5t56.5 -310.5t-56.5 -310t-157.5 -230.5t-242.5 -143.5t-311.5 -49t-310 49t-241.5 143.5t-158 230.5t-56.5 310zM250 696q0 -170 43 -293.5t119.5 -204.5t179 -120 t223.5 -39t224.5 39t180 120t119.5 204.5t43 293.5t-43 294t-119.5 205t-180 120t-224.5 39t-223.5 -39t-179 -120t-119.5 -205t-43 -294zM496 1497l252 342h137l252 -342h-76l-246 215l-244 -215h-75z" />
<glyph unicode="&#xd5;" horiz-adv-x="1632" d="M49 696q0 174 56.5 310.5t158 230.5t241.5 143.5t310 49.5t311.5 -49.5t242.5 -143.5t157.5 -230.5t56.5 -310.5t-56.5 -310t-157.5 -230.5t-242.5 -143.5t-311.5 -49t-310 49t-241.5 143.5t-158 230.5t-56.5 310zM250 696q0 -170 43 -293.5t119.5 -204.5t179 -120 t223.5 -39t224.5 39t180 120t119.5 204.5t43 293.5t-43 294t-119.5 205t-180 120t-224.5 39t-223.5 -39t-179 -120t-119.5 -205t-43 -294zM479 1548q6 37 21.5 74t42 67.5t63.5 50t86 19.5q35 0 63.5 -10t86.5 -37q57 -29 82.5 -38t52.5 -9q47 0 75.5 30.5t41.5 71.5h59 q-4 -25 -16.5 -61.5t-38 -72.5t-66.5 -60.5t-102 -24.5q-29 0 -65 10.5t-83 36.5q-53 29 -80.5 38t-52.5 9q-47 0 -68.5 -20t-39.5 -74h-62z" />
<glyph unicode="&#xd6;" horiz-adv-x="1632" d="M49 696q0 174 56.5 310.5t158 230.5t241.5 143.5t310 49.5t311.5 -49.5t242.5 -143.5t157.5 -230.5t56.5 -310.5t-56.5 -310t-157.5 -230.5t-242.5 -143.5t-311.5 -49t-310 49t-241.5 143.5t-158 230.5t-56.5 310zM250 696q0 -170 43 -293.5t119.5 -204.5t179 -120 t223.5 -39t224.5 39t180 120t119.5 204.5t43 293.5t-43 294t-119.5 205t-180 120t-224.5 39t-223.5 -39t-179 -120t-119.5 -205t-43 -294zM510 1657q0 43 30.5 73.5t73.5 30.5t74 -30.5t31 -73.5t-31 -74t-74 -31t-73.5 31t-30.5 74zM913 1657q0 43 31 73.5t74 30.5 t73.5 -30.5t30.5 -73.5t-30.5 -74t-73.5 -31t-74 31t-31 74z" />
<glyph unicode="&#xd7;" horiz-adv-x="1060" d="M78 141l377 377l-377 379l76 74l376 -377l379 377l74 -74l-377 -379l377 -377l-74 -75l-379 376l-376 -376z" />
<glyph unicode="&#xd8;" horiz-adv-x="1656" d="M61 696q0 174 56.5 310.5t158 230.5t241.5 143.5t310 49.5q147 0 271.5 -36t220.5 -108q18 18 45 49t54.5 63t50 60.5t28.5 40.5q10 -12 25.5 -25.5t31.5 -23.5q-12 -8 -36.5 -32.5t-52 -54.5t-55.5 -60.5t-46 -51.5q111 -94 171 -233t60 -322q0 -174 -56 -310 t-157.5 -230.5t-243 -143.5t-311.5 -49q-143 0 -266 36t-219 103q-20 -23 -47 -53.5t-53.5 -61t-49 -58t-32.5 -46.5q-20 29 -58 49q10 8 34 32t51.5 54.5t56 63.5t51.5 57q-111 92 -172.5 232.5t-61.5 324.5zM262 696q0 -150 34 -263.5t93 -190.5l846 950 q-76 84 -180.5 123t-227.5 39q-121 0 -223 -39t-179 -120t-120 -205t-43 -294zM426 197q76 -80 178.5 -119t222.5 -39q121 0 224.5 39t180.5 120t120 204.5t43 293.5q0 147 -32 258t-91 193z" />
<glyph unicode="&#xd9;" horiz-adv-x="1316" d="M63 1403q25 -4 53.5 -7t53.5 -3q43 0 88 10q-4 -45 -9 -118t-8 -165t-5.5 -199.5t-2.5 -220.5q0 -70 2.5 -144.5t14.5 -145t39.5 -135t79 -112.5t129 -76t192.5 -28q113 0 189.5 33t126 86t77 123t40 145.5t14.5 150t2 140.5q0 291 -2 448.5t-11 217.5q45 -10 84 -10 q31 0 62 10q-6 -72 -12.5 -171t-11.5 -213t-8 -233.5t-5 -232.5q-2 -135 -41 -244.5t-113.5 -186.5t-183.5 -118t-246 -41q-305 0 -445 143.5t-140 442.5q0 96 5 171t5 152q0 170 -4 305.5t-9 225.5zM348 1786q0 33 23.5 49t44.5 16q23 0 46 -13t46 -36l301 -305h-86 l-301 193q-25 16 -49.5 37.5t-24.5 58.5z" />
<glyph unicode="&#xda;" horiz-adv-x="1314" d="M49 1403q25 -4 53.5 -7t53.5 -3q43 0 88 10q-4 -45 -9.5 -118t-8.5 -165t-5 -199.5t-2 -220.5q0 -70 2 -144.5t14.5 -145t40 -135t79 -112.5t129 -76t192.5 -28q113 0 189.5 33t125.5 86t77 123t40 145.5t14 150t2 140.5q0 291 -2 448.5t-10 217.5q45 -10 84 -10 q31 0 61 10q-6 -72 -12 -171t-11 -213t-8 -233.5t-5 -232.5q-2 -135 -41 -244.5t-114 -186.5t-183.5 -118t-245.5 -41q-305 0 -445.5 143.5t-140.5 442.5q0 96 5 171t5 152q0 170 -4 305.5t-8 225.5zM514 1497l301 305q23 23 46.5 36t45.5 13q20 0 44 -16t24 -49 q0 -37 -24.5 -58.5t-49.5 -37.5l-301 -193h-86z" />
<glyph unicode="&#xdb;" horiz-adv-x="1325" d="M61 1403q25 -4 53.5 -7t53.5 -3q43 0 88 10q-4 -45 -9 -118t-8 -165t-5.5 -199.5t-2.5 -220.5q0 -70 2.5 -144.5t14.5 -145t39.5 -135t79 -112.5t129 -76t192.5 -28q113 0 189.5 33t126 86t77 123t40 145.5t14.5 150t2 140.5q0 291 -2 448.5t-11 217.5q45 -10 84 -10 q31 0 62 10q-6 -72 -12.5 -171t-11.5 -213t-8 -233.5t-5 -232.5q-2 -135 -41 -244.5t-113.5 -186.5t-183.5 -118t-246 -41q-305 0 -445.5 143.5t-140.5 442.5q0 96 5.5 171t5.5 152q0 170 -4 305.5t-9 225.5zM346 1497l252 342h137l252 -342h-76l-245 215l-244 -215h-76z " />
<glyph unicode="&#xdc;" horiz-adv-x="1327" d="M61 1403q25 -4 53.5 -7t53.5 -3q43 0 88 10q-4 -45 -9 -118t-8 -165t-5.5 -199.5t-2.5 -220.5q0 -70 2.5 -144.5t14.5 -145t39.5 -135t79 -112.5t129 -76t192.5 -28q113 0 189.5 33t126 86t77 123t40 145.5t14.5 150t2 140.5q0 291 -2 448.5t-11 217.5q45 -10 84 -10 q31 0 62 10q-6 -72 -12.5 -171t-11.5 -213t-8 -233.5t-5 -232.5q-2 -135 -41 -244.5t-113.5 -186.5t-183.5 -118t-246 -41q-305 0 -445.5 143.5t-140.5 442.5q0 96 5.5 171t5.5 152q0 170 -4 305.5t-9 225.5zM360 1657q0 43 31 73.5t74 30.5t73.5 -30.5t30.5 -73.5 t-30.5 -74t-73.5 -31t-74 31t-31 74zM764 1657q0 43 30.5 73.5t73.5 30.5t74 -30.5t31 -73.5t-31 -74t-74 -31t-73.5 31t-30.5 74z" />
<glyph unicode="&#xdd;" horiz-adv-x="1191" d="M12 1403q29 -4 56.5 -7t56.5 -3t56.5 3t56.5 7q90 -176 186 -350t203 -359q47 74 98 162t101.5 180t98.5 185.5t89 181.5q45 -10 80 -10t80 10q-98 -150 -175 -270.5t-137.5 -219t-105.5 -177.5t-78 -142q0 -76 1 -162t3 -168t5 -154.5t7 -119.5q-27 4 -51.5 7t-48.5 3 q-25 0 -49.5 -3t-50.5 -7q12 111 14 263t2 318q-20 35 -59 101.5t-87.5 148.5t-101.5 171t-101 169t-88 144.5t-61 97.5zM453 1477l301 305q23 23 46 36t46 13q20 0 43.5 -16.5t23.5 -49.5q0 -37 -24.5 -58t-48.5 -38l-301 -192h-86z" />
<glyph unicode="&#xde;" horiz-adv-x="970" d="M86 -10q6 133 11 265t5 265v352q0 133 -5 265.5t-11 265.5q27 -4 51.5 -7t48.5 -3q25 0 49.5 3t51.5 7q-6 -68 -11.5 -134.5t-5.5 -133.5h252q207 0 325 -85t118 -272q0 -113 -45.5 -187.5t-117 -118.5t-161.5 -62.5t-180 -18.5q-55 0 -101.5 2t-89.5 6v-114q0 -45 1 -89 t3 -84t5.5 -72t7.5 -50q-27 4 -51.5 7t-49.5 3t-49 -3t-51 -7zM270 475q25 -4 69 -6t91 -2q66 0 128.5 18.5t110.5 56.5t77.5 96t29.5 138q0 51 -16.5 102.5t-54 91.5t-100 64.5t-152.5 24.5h-183v-584z" />
<glyph unicode="&#xdf;" horiz-adv-x="1060" d="M72 -10q4 51 7 123.5t5 152.5t3 161t1 153v251q0 96 -3 161t-3 87q0 127 40 216t100.5 144.5t134 81t141.5 25.5q47 0 99 -16.5t97 -47t74 -73.5t29 -94q0 -80 -38 -141.5t-83 -113.5t-83 -97t-38 -93q0 -47 31.5 -83.5t81 -70.5t104.5 -68t104.5 -76t81 -95t31.5 -125 q0 -68 -32.5 -135t-88 -122.5t-128 -90.5t-152.5 -35q-66 0 -118 13.5t-87 33.5q14 23 23.5 58t13.5 63h10q23 -37 79 -64.5t120 -27.5q43 0 83 15.5t70.5 43t49 68.5t18.5 90q0 66 -32 115t-81 89t-104 76t-104.5 73.5t-81 81.5t-31.5 102q0 59 43 113.5t94 110.5t94 120.5 t43 146.5t-53 136.5t-150 54.5q-141 0 -194 -107.5t-53 -312.5v-481q0 -72 1 -153t3 -161t5 -152.5t7 -123.5q-51 10 -92 10t-92 -10z" />
<glyph unicode="&#xe0;" horiz-adv-x="948" d="M57 221q0 123 77 190.5t212 90.5q111 18 173.5 31.5t92 27.5t35.5 33.5t6 50.5q0 51 -12 98.5t-39 82t-70 56t-104 21.5q-82 0 -152.5 -37t-105.5 -102h-23v106q92 70 170 94.5t160 24.5q74 0 135.5 -21.5t104.5 -61.5t67.5 -96t24.5 -124q0 -117 -4 -232.5t-4 -244.5 q0 -25 1 -52.5t9 -49t23.5 -36t46.5 -14.5q10 0 21 1t22 8v-46q-23 -10 -56.5 -19t-74.5 -9q-66 0 -101 37t-41 90q-74 -74 -145.5 -112t-175.5 -38q-51 0 -100.5 17.5t-87.5 50.5t-61.5 79t-23.5 105zM164 1434q0 33 23.5 49t43.5 16q23 0 46.5 -13t46.5 -36l301 -305h-86 l-301 192q-25 16 -49.5 38t-24.5 59zM225 250q0 -96 55.5 -145.5t122.5 -49.5q78 0 142.5 43t99.5 101l8 307q-53 -18 -126.5 -28.5t-140.5 -33t-114 -66.5t-47 -128z" />
<glyph unicode="&#xe1;" horiz-adv-x="940" d="M27 221q0 123 76.5 190.5t211.5 90.5q111 18 173.5 31.5t92 27.5t36 33.5t6.5 50.5q0 51 -12.5 98.5t-39 82t-69.5 56t-105 21.5q-82 0 -152.5 -37t-105.5 -102h-22v106q92 70 170 94.5t159 24.5q74 0 135.5 -21.5t104.5 -61.5t67.5 -96t24.5 -124q0 -117 -4 -232.5 t-4 -244.5q0 -25 1 -52.5t9 -49t23.5 -36t46.5 -14.5q10 0 21.5 1t21.5 8v-46q-23 -10 -56.5 -19t-74.5 -9q-66 0 -100.5 37t-40.5 90q-74 -74 -146 -112t-176 -38q-51 0 -100 17.5t-87 50.5t-61.5 79t-23.5 105zM195 250q0 -96 55 -145.5t123 -49.5q78 0 142.5 43t98.5 101 l9 307q-53 -18 -127 -28.5t-140.5 -33t-113.5 -66.5t-47 -128zM313 1145l301 305q23 23 46.5 36t46.5 13q20 0 43.5 -16.5t23.5 -48.5q0 -37 -24.5 -58.5t-49.5 -38.5l-301 -192h-86z" />
<glyph unicode="&#xe2;" horiz-adv-x="954" d="M47 221q0 123 77 190.5t212 90.5q111 18 173 31.5t92 27.5t36 33.5t6 50.5q0 51 -12.5 98.5t-39 82t-69.5 56t-104 21.5q-82 0 -152.5 -37t-105.5 -102h-23v106q92 70 170 94.5t160 24.5q74 0 135.5 -21.5t104.5 -61.5t67.5 -96t24.5 -124q0 -117 -4 -232.5t-4 -244.5 q0 -25 1 -52.5t9 -49t23.5 -36t45.5 -14.5q10 0 21.5 1t21.5 8v-46q-23 -10 -56.5 -19t-74.5 -9q-66 0 -100.5 37t-40.5 90q-74 -74 -145.5 -112t-176.5 -38q-51 0 -100 17.5t-87 50.5t-61.5 79t-23.5 105zM154 1145l252 342h137l252 -342h-76l-246 215l-244 -215h-75z M215 250q0 -96 55.5 -145.5t122.5 -49.5q78 0 142.5 43t99.5 101l8 307q-53 -18 -127 -28.5t-140.5 -33t-113.5 -66.5t-47 -128z" />
<glyph unicode="&#xe3;" horiz-adv-x="968" d="M55 221q0 123 77 190.5t212 90.5q111 18 173.5 31.5t92 27.5t35.5 33.5t6 50.5q0 51 -12 98.5t-39 82t-70 56t-104 21.5q-82 0 -152.5 -37t-105.5 -102h-23v106q92 70 170 94.5t160 24.5q74 0 135.5 -21.5t104.5 -61.5t67.5 -96t24.5 -124q0 -117 -4 -232.5t-4 -244.5 q0 -25 1 -52.5t9 -49t23.5 -36t46.5 -14.5q10 0 21 1t22 8v-46q-23 -10 -57 -19t-74 -9q-66 0 -101 37t-41 90q-74 -74 -145.5 -112t-175.5 -38q-51 0 -100.5 17.5t-87.5 50.5t-61.5 79t-23.5 105zM145 1196q6 37 21.5 74t42.5 67.5t63.5 50t85.5 19.5q35 0 64 -10.5 t86 -36.5q57 -29 82.5 -38t52.5 -9q47 0 76 30.5t41 71.5h59q-4 -25 -16 -61.5t-38 -72.5t-67 -60.5t-102 -24.5q-29 0 -64.5 10.5t-82.5 36.5q-53 29 -81 38t-53 9q-47 0 -68.5 -20.5t-39.5 -73.5h-62zM223 250q0 -96 55.5 -145.5t122.5 -49.5q78 0 142.5 43t99.5 101 l8 307q-53 -18 -126.5 -28.5t-140.5 -33t-114 -66.5t-47 -128z" />
<glyph unicode="&#xe4;" horiz-adv-x="964" d="M53 221q0 123 77 190.5t212 90.5q111 18 173.5 31.5t92 27.5t35.5 33.5t6 50.5q0 51 -12 98.5t-39 82t-70 56t-104 21.5q-82 0 -152.5 -37t-105.5 -102h-23v106q92 70 170 94.5t160 24.5q74 0 135.5 -21.5t104.5 -61.5t67.5 -96t24.5 -124q0 -117 -4 -232.5t-4 -244.5 q0 -25 1 -52.5t9 -49t23.5 -36t46.5 -14.5q10 0 21 1t22 8v-46q-23 -10 -57 -19t-75 -9q-66 0 -100.5 37t-40.5 90q-74 -74 -145.5 -112t-175.5 -38q-51 0 -100.5 17.5t-87.5 50.5t-61.5 79t-23.5 105zM174 1305q0 43 31 73.5t74 30.5t73.5 -30.5t30.5 -73.5t-30.5 -74 t-73.5 -31t-74 31t-31 74zM221 250q0 -96 55.5 -145.5t122.5 -49.5q78 0 142.5 43t99.5 101l8 307q-53 -18 -126.5 -28.5t-140.5 -33t-114 -66.5t-47 -128zM578 1305q0 43 30.5 73.5t73.5 30.5t73.5 -30.5t30.5 -73.5t-30.5 -74t-73.5 -31t-73.5 31t-30.5 74z" />
<glyph unicode="&#xe5;" horiz-adv-x="952" d="M47 221q0 123 77 190.5t212 90.5q111 18 173 31.5t92 27.5t36 33.5t6 50.5q0 51 -12.5 98.5t-39 82t-69.5 56t-104 21.5q-82 0 -152.5 -37t-105.5 -102h-23v106q92 70 170 94.5t160 24.5q74 0 135.5 -21.5t104.5 -61.5t67.5 -96t24.5 -124q0 -117 -4 -232.5t-4 -244.5 q0 -25 1 -52.5t9 -49t23.5 -36t45.5 -14.5q10 0 21.5 1t21.5 8v-46q-23 -10 -56.5 -19t-74.5 -9q-66 0 -100.5 37t-40.5 90q-74 -74 -145.5 -112t-176.5 -38q-51 0 -100 17.5t-87 50.5t-61.5 79t-23.5 105zM215 250q0 -96 55.5 -145.5t122.5 -49.5q78 0 142.5 43t99.5 101 l8 307q-53 -18 -127 -28.5t-140.5 -33t-113.5 -66.5t-47 -128zM264 1321q0 43 16.5 81t45 66.5t67.5 45t82 16.5t81 -16.5t66.5 -45t45 -66.5t16.5 -81t-16.5 -81t-45 -66.5t-67.5 -45t-82 -16.5t-81 16.5t-66.5 45t-45 66.5t-16.5 81zM350 1321q0 -51 36 -87t87 -36 q53 0 89 36t36 87t-36 87t-87 36q-53 0 -89 -36t-36 -87z" />
<glyph unicode="&#xe6;" horiz-adv-x="1605" d="M72 221q0 123 76.5 190.5t211.5 90.5q111 18 173.5 31.5t92 27.5t36 33.5t6.5 50.5q0 51 -12.5 98.5t-39 82t-69.5 56t-105 21.5q-82 0 -152.5 -37t-105.5 -102h-22v106q92 70 170 94.5t160 24.5q33 0 72.5 -6t80.5 -23.5t80 -47t74 -76.5q53 72 133 112.5t178 40.5 q106 0 186 -33.5t133.5 -90t79 -132.5t25.5 -162q0 -20 -1 -39.5t-3 -39.5q-111 2 -219.5 4t-218.5 2q-68 0 -134.5 -2t-134.5 -4q-2 -16 -2 -29.5v-28.5q0 -80 23.5 -149.5t68.5 -119.5t111 -80t152 -30q41 0 84 11.5t83.5 31t76.5 46t63 57.5l10 -6l-12 -101 q-61 -49 -153.5 -87t-188.5 -38q-147 0 -258 62.5t-162 181.5q-16 -45 -45 -89t-74 -78t-107.5 -55.5t-148.5 -21.5q-51 0 -100 17.5t-87 50.5t-61.5 79t-23.5 105zM240 250q0 -88 52 -141.5t140 -53.5q41 0 81 13.5t72.5 41t53 67.5t25.5 95q4 59 3 116.5t1 117.5 q-53 -18 -127 -28.5t-140.5 -33t-113.5 -66.5t-47 -128zM827 569q63 -2 132 -4t135 -2q68 0 137 2t135 4q0 55 -9 117t-37 115t-77 88t-129 35q-76 0 -128 -35t-86 -87t-51.5 -114.5t-21.5 -118.5z" />
<glyph unicode="&#xe7;" horiz-adv-x="968" d="M57 479q0 133 45 229.5t118 159t167 92t193 29.5q113 0 201.5 -27.5t127.5 -62.5q-14 -31 -25.5 -64.5t-19.5 -70.5h-16q-14 27 -39 54.5t-58.5 51t-74.5 39t-90 15.5q-92 0 -159 -34t-109 -93.5t-61 -140.5t-19 -175q0 -211 91 -318.5t263 -107.5q41 0 84 11.5t84 31 t76.5 46t62.5 57.5l10 -6q-8 -49 -12 -101q-57 -47 -142 -83t-175 -40l-43 -121q12 4 25 7.5t34 3.5q80 0 125 -40t45 -106q0 -43 -19.5 -75.5t-53.5 -54t-78 -33t-93 -11.5q-63 0 -108 12.5t-74 22.5l29 66q23 -10 61.5 -17.5t85.5 -7.5q51 0 87 22.5t36 63.5 q0 45 -30.5 63.5t-73.5 18.5q-68 0 -89 -14l-14 14l72 188q-84 6 -164 38t-142.5 93.5t-101.5 153.5t-39 221z" />
<glyph unicode="&#xe8;" horiz-adv-x="972" d="M51 451q0 250 121 394t348 144q106 0 186 -33.5t133.5 -90t79 -132.5t25.5 -162q0 -20 -1 -39.5t-3 -39.5q-111 2 -219.5 4t-218.5 2q-68 0 -134.5 -2t-134.5 -4q-2 -16 -2 -29.5v-28.5q0 -80 24 -149.5t69 -119.5t110.5 -80t151.5 -30q41 0 84 11.5t84 31t76.5 46 t62.5 57.5l10 -6l-12 -101q-61 -49 -153.5 -87t-188.5 -38q-111 0 -202 37t-157.5 101.5t-102.5 153t-36 190.5zM205 1434q0 33 23.5 49t43.5 16q23 0 46.5 -13t46.5 -36l301 -305h-86l-301 192q-25 16 -49.5 38t-24.5 59zM238 569q63 -2 131.5 -4t134.5 -2q68 0 137.5 2 t134.5 4q0 55 -9 117t-37 115t-77 88t-129 35q-76 0 -128 -35t-86 -87t-51 -114.5t-21 -118.5z" />
<glyph unicode="&#xe9;" horiz-adv-x="976" d="M29 451q0 250 120.5 394t348.5 144q106 0 186 -33.5t133 -90t79 -132.5t26 -162q0 -20 -1 -39.5t-3 -39.5q-111 2 -219.5 4t-219.5 2q-68 0 -134 -2t-134 -4q-2 -16 -2 -29.5v-28.5q0 -80 23.5 -149.5t68.5 -119.5t110.5 -80t151.5 -30q41 0 84 11.5t84 31t77 46t62 57.5 l11 -6l-13 -101q-61 -49 -153 -87t-189 -38q-111 0 -202 37t-157.5 101.5t-102 153t-35.5 190.5zM215 569q63 -2 132 -4t134 -2q68 0 137.5 2t135.5 4q0 55 -9.5 117t-37 115t-76.5 88t-129 35q-76 0 -128 -35t-86 -87t-51.5 -114.5t-21.5 -118.5zM362 1145l302 305 q23 23 46 36t46 13q20 0 43.5 -16.5t23.5 -48.5q0 -37 -24.5 -58.5t-48.5 -38.5l-301 -192h-87z" />
<glyph unicode="&#xea;" horiz-adv-x="985" d="M45 451q0 250 121 394t348 144q106 0 186 -33.5t133.5 -90t79 -132.5t25.5 -162q0 -20 -1 -39.5t-3 -39.5q-111 2 -219.5 4t-218.5 2q-68 0 -134.5 -2t-134.5 -4q-2 -16 -2 -29.5v-28.5q0 -80 23.5 -149.5t68.5 -119.5t111 -80t152 -30q41 0 84 11.5t83.5 31t76.5 46 t63 57.5l10 -6l-12 -101q-61 -49 -153.5 -87t-188.5 -38q-111 0 -202 37t-157.5 101.5t-102.5 153t-36 190.5zM199 1145l252 342h137l252 -342h-76l-246 215l-244 -215h-75zM231 569q63 -2 132 -4t135 -2q68 0 137.5 2t134.5 4q0 55 -9 117t-37 115t-77 88t-129 35 q-76 0 -128 -35t-86 -87t-51 -114.5t-22 -118.5z" />
<glyph unicode="&#xeb;" horiz-adv-x="999" d="M51 451q0 250 121 394t348 144q106 0 186 -33.5t133.5 -90t79 -132.5t25.5 -162q0 -20 -1 -39.5t-3 -39.5q-111 2 -219.5 4t-218.5 2q-68 0 -134.5 -2t-134.5 -4q-2 -16 -2 -29.5v-28.5q0 -80 24 -149.5t69 -119.5t110.5 -80t151.5 -30q41 0 84 11.5t84 31t76.5 46 t62.5 57.5l10 -6l-12 -101q-61 -49 -153.5 -87t-188.5 -38q-111 0 -202 37t-157.5 101.5t-102.5 153t-36 190.5zM219 1305q0 43 31 73.5t74 30.5t73.5 -30.5t30.5 -73.5t-30.5 -74t-73.5 -31t-74 31t-31 74zM238 569q63 -2 131.5 -4t134.5 -2q68 0 137.5 2t134.5 4 q0 55 -9 117t-37 115t-77 88t-129 35q-76 0 -128 -35t-86 -87t-51 -114.5t-21 -118.5zM623 1305q0 43 30.5 73.5t73.5 30.5t73.5 -30.5t30.5 -73.5t-30.5 -74t-73.5 -31t-73.5 31t-30.5 74z" />
<glyph unicode="&#xec;" horiz-adv-x="514" d="M16 1434q0 33 23.5 49t44.5 16q23 0 46.5 -13t45.5 -36l301 -305h-86l-301 192q-25 16 -49.5 38t-24.5 59zM244 -10q10 88 13 189.5t3 193.5v213q0 92 -3 193.5t-13 189.5q51 -10 92 -11q41 0 92 11q-10 -88 -13 -189.5t-3 -193.5v-213q0 -92 3 -193.5t13 -189.5 q-51 10 -92 10t-92 -10z" />
<glyph unicode="&#xed;" horiz-adv-x="514" d="M35 1145l301 305q23 23 46.5 36t45.5 13q20 0 44 -16.5t24 -48.5q0 -37 -25 -58.5t-49 -38.5l-301 -192h-86zM82 -10q10 88 13 189.5t3 193.5v213q0 92 -3 193.5t-13 189.5q51 -10 92 -11q41 0 92 11q-10 -88 -13 -189.5t-3 -193.5v-213q0 -92 3 -193.5t13 -189.5 q-51 10 -92 10t-92 -10z" />
<glyph unicode="&#xee;" horiz-adv-x="681" d="M20 1145l252 342h138l252 -342h-76l-246 215l-244 -215h-76zM248 -10q10 88 13 189.5t3 193.5v213q0 92 -3 193.5t-13 189.5q51 -10 92 -11q41 0 92 11q-10 -88 -13 -189.5t-3 -193.5v-213q0 -92 3 -193.5t13 -189.5q-51 10 -92 10t-92 -10z" />
<glyph unicode="&#xef;" horiz-adv-x="675" d="M31 1305q0 43 30.5 73.5t73.5 30.5t74 -30.5t31 -73.5t-31 -74t-74 -31t-73.5 31t-30.5 74zM244 -10q10 88 13 189.5t3 193.5v213q0 92 -3 193.5t-13 189.5q51 -10 92 -11q41 0 92 11q-10 -88 -13 -189.5t-3 -193.5v-213q0 -92 3 -193.5t13 -189.5q-51 10 -92 10t-92 -10 zM434 1305q0 43 31 73.5t74 30.5t73.5 -30.5t30.5 -73.5t-30.5 -74t-73.5 -31t-74 31t-31 74z" />
<glyph unicode="&#xf0;" horiz-adv-x="1099" d="M61 479q0 139 44.5 236.5t116 158t159.5 88t178 27.5q27 0 51.5 -2t48.5 -12l5 4q-63 70 -127 136.5t-136 131.5q-66 -23 -131 -45t-135 -47q-18 37 -43 74q61 16 126 33.5t130 37.5q-57 53 -118.5 104.5t-131.5 104.5l144 37q74 -53 139 -102t123 -96q143 43 258 90 q16 -39 43 -72q-66 -16 -125 -32.5t-119 -35.5q131 -111 225.5 -214t153.5 -202.5t88 -198.5t29 -204q0 -139 -44 -236.5t-116 -157.5t-161 -88t-177 -28q-90 0 -178 28t-159.5 88t-116 157.5t-44.5 236.5zM242 479q0 -86 15 -166t52 -142t98.5 -99t151.5 -37t151.5 37 t98.5 99t52.5 142t15.5 166t-15.5 166t-52.5 142.5t-98.5 99.5t-151.5 37t-151.5 -37t-98.5 -99.5t-52 -142.5t-15 -166z" />
<glyph unicode="&#xf1;" horiz-adv-x="966" d="M70 -10q10 88 13 189.5t3 193.5v213q0 92 -3 193.5t-13 189.5q51 -10 92 -11q31 0 82 11q-6 -84 -6 -164h4q57 88 137 136t190 48q57 0 115.5 -16.5t106 -56t77 -108.5t29.5 -175q0 -88 -4 -181.5t-4 -197.5v-133.5t4 -130.5q-23 4 -43.5 7t-42.5 3q-23 0 -42.5 -3 t-41.5 -7q4 113 9 225.5t5 230.5v125q0 152 -60.5 232t-162.5 80q-143 0 -209.5 -88t-66.5 -248v-174q0 -92 3 -193.5t13 -189.5q-51 10 -92 10t-92 -10zM147 1196q6 37 21.5 74t42.5 67.5t63.5 50t85.5 19.5q35 0 64 -10.5t86 -36.5q57 -29 82.5 -38t52.5 -9q47 0 76 30.5 t41 71.5h59q-4 -25 -16 -61.5t-38 -72.5t-67 -60.5t-102 -24.5q-29 0 -64.5 10.5t-82.5 36.5q-53 29 -81 38t-53 9q-47 0 -68.5 -20.5t-39.5 -73.5h-62z" />
<glyph unicode="&#xf2;" horiz-adv-x="1081" d="M53 479q0 139 44 236.5t116 158t160 88t178 27.5q88 0 177 -27.5t161 -88t116 -158t44 -236.5t-44 -236.5t-116 -157.5t-161 -88t-177 -28q-90 0 -178 28t-160 88t-116 157.5t-44 236.5zM231 1434q0 33 24 49t44 16q23 0 46.5 -13t45.5 -36l301 -305h-86l-301 192 q-25 16 -49.5 38t-24.5 59zM233 479q0 -86 15.5 -166t52.5 -142t98.5 -99t151.5 -37t151.5 37t98.5 99t52 142t15 166t-15 166t-52 142.5t-98.5 99.5t-151.5 37t-151.5 -37t-98.5 -99.5t-52.5 -142.5t-15.5 -166z" />
<glyph unicode="&#xf3;" horiz-adv-x="1079" d="M31 479q0 139 44 236.5t115.5 158t159.5 88t178 27.5q88 0 177.5 -27.5t161 -88t115.5 -158t44 -236.5t-44 -236.5t-115.5 -157.5t-161 -88t-177.5 -28q-90 0 -178 28t-159.5 88t-115.5 157.5t-44 236.5zM211 479q0 -86 15.5 -166t52 -142t98 -99t151.5 -37t151.5 37 t98.5 99t52.5 142t15.5 166t-15.5 166t-52.5 142.5t-98.5 99.5t-151.5 37t-151.5 -37t-98 -99.5t-52 -142.5t-15.5 -166zM389 1145l301 305q23 23 46.5 36t45.5 13q20 0 44 -16.5t24 -48.5q0 -37 -24.5 -58.5t-49.5 -38.5l-301 -192h-86z" />
<glyph unicode="&#xf4;" horiz-adv-x="1089" d="M47 479q0 139 44 236.5t116 158t160 88t178 27.5q88 0 177 -27.5t160.5 -88t115.5 -158t44 -236.5t-44 -236.5t-115.5 -157.5t-160.5 -88t-177 -28q-90 0 -178 28t-160 88t-116 157.5t-44 236.5zM225 1145l252 342h137l252 -342h-75l-246 215l-244 -215h-76zM227 479 q0 -86 15.5 -166t52.5 -142t98.5 -99t151.5 -37t151.5 37t98 99t52 142t15.5 166t-15.5 166t-52 142.5t-98 99.5t-151.5 37t-151.5 -37t-98.5 -99.5t-52.5 -142.5t-15.5 -166z" />
<glyph unicode="&#xf5;" horiz-adv-x="1099" d="M51 479q0 139 44 236.5t116 158t160 88t178 27.5q88 0 177 -27.5t160.5 -88t116 -158t44.5 -236.5t-44.5 -236.5t-116 -157.5t-160.5 -88t-177 -28q-90 0 -178 28t-160 88t-116 157.5t-44 236.5zM213 1196q6 37 21.5 74t42 67.5t63.5 50t86 19.5q35 0 63.5 -10.5 t85.5 -36.5q57 -29 83 -38t53 -9q47 0 75.5 30.5t40.5 71.5h60q-4 -25 -16.5 -61.5t-38 -72.5t-66.5 -60.5t-102 -24.5q-29 0 -65 10.5t-83 36.5q-53 29 -80.5 38t-52.5 9q-47 0 -68.5 -20.5t-40.5 -73.5h-61zM231 479q0 -86 15.5 -166t52.5 -142t98.5 -99t151.5 -37 t151.5 37t98.5 99t52 142t15 166t-15 166t-52 142.5t-98.5 99.5t-151.5 37t-151.5 -37t-98.5 -99.5t-52.5 -142.5t-15.5 -166z" />
<glyph unicode="&#xf6;" horiz-adv-x="1099" d="M51 479q0 139 44 236.5t116 158t160 88t178 27.5q88 0 177 -27.5t160.5 -88t116 -158t44.5 -236.5t-44.5 -236.5t-116 -157.5t-160.5 -88t-177 -28q-90 0 -178 28t-160 88t-116 157.5t-44 236.5zM231 479q0 -86 15.5 -166t52.5 -142t98.5 -99t151.5 -37t151.5 37t98.5 99 t52 142t15 166t-15 166t-52 142.5t-98.5 99.5t-151.5 37t-151.5 -37t-98.5 -99.5t-52.5 -142.5t-15.5 -166zM244 1305q0 43 30.5 73.5t73.5 30.5t74 -30.5t31 -73.5t-31 -74t-74 -31t-73.5 31t-30.5 74zM647 1305q0 43 31 73.5t74 30.5t73.5 -30.5t30.5 -73.5t-30.5 -74 t-73.5 -31t-74 31t-31 74z" />
<glyph unicode="&#xf7;" horiz-adv-x="1056" d="M10 465v106h1037v-106h-1037zM412 117q0 47 34.5 81.5t81.5 34.5t82 -34.5t35 -81.5t-35 -82t-82 -35t-81.5 35t-34.5 82zM412 920q0 47 34.5 81.5t81.5 34.5t82 -34.5t35 -81.5t-35 -82t-82 -35t-81.5 35t-34.5 82z" />
<glyph unicode="&#xf8;" horiz-adv-x="1189" d="M72 -53q8 6 24.5 23.5t39 41t47 51t48.5 56.5q-55 63 -88.5 150t-33.5 210q0 139 44 236.5t115.5 158t159.5 88t178 27.5q82 0 164 -22.5t154 -75.5q47 51 89 98t54 70q20 -31 51 -45q-23 -16 -63.5 -59.5t-89.5 -98.5q66 -66 102.5 -156t36.5 -221q0 -139 -44 -236.5 t-116 -157.5t-161 -88t-177 -28q-86 0 -172 25.5t-158 83.5q-47 -53 -89 -99.5t-64 -74.5q-20 31 -51 43zM289 479q0 -70 9 -134t32 -120l516 576q-35 55 -95.5 89t-144.5 34q-90 0 -151.5 -37t-98.5 -99.5t-52 -142.5t-15 -166zM356 170q37 -61 97.5 -98t152.5 -37 q90 0 151.5 37t98.5 99t52.5 142t15.5 166q0 76 -11.5 146.5t-40.5 128.5z" />
<glyph unicode="&#xf9;" horiz-adv-x="935" d="M68 305q0 109 3 185.5t3 152.5q0 72 -1 156t-3 170q47 -10 86 -11q37 0 84 11q-10 -121 -15.5 -269.5t-5.5 -300.5q0 -106 18.5 -162.5t45.5 -84.5q29 -33 72.5 -54.5t103.5 -21.5q86 0 143 38t84 93q14 33 23.5 58.5t13.5 66.5t5 110.5t1 190.5v173t-4 163 q23 -4 43 -7.5t43 -3.5t43 3.5t41 7.5q-10 -160 -12 -309.5t-2 -313.5q0 -92 2 -181t6 -175q-45 10 -80 10t-80 -10q4 45 4 89v87h-4q-53 -96 -137 -146.5t-182 -50.5q-160 0 -251 88t-91 248zM162 1434q0 33 23.5 49t43.5 16q23 0 46.5 -13t46.5 -36l301 -305h-86l-301 192 q-25 16 -49.5 38t-24.5 59z" />
<glyph unicode="&#xfa;" horiz-adv-x="935" d="M39 305q0 109 3 185.5t3 152.5q0 72 -1 156t-3 170q47 -10 86 -11q37 0 84 11q-10 -121 -15.5 -269.5t-5.5 -300.5q0 -106 18.5 -162.5t45.5 -84.5q29 -33 73 -54.5t103 -21.5q86 0 143.5 38t83.5 93q14 33 23.5 58.5t13.5 66.5t5 110.5t1 190.5v173t-4 163 q23 -4 43.5 -7.5t42.5 -3.5q23 0 43.5 3.5t40.5 7.5q-10 -160 -12 -309.5t-2 -313.5q0 -92 2 -181t6 -175q-45 10 -80 10t-80 -10q4 45 4.5 89t0.5 87h-5q-53 -96 -137 -146.5t-182 -50.5q-160 0 -251 88t-91 248zM313 1145l301 305q23 23 46.5 36t46.5 13q20 0 43.5 -16.5 t23.5 -48.5q0 -37 -24.5 -58.5t-49.5 -38.5l-301 -192h-86z" />
<glyph unicode="&#xfb;" horiz-adv-x="952" d="M61 305q0 109 3.5 185.5t3.5 152.5q0 72 -1 156t-4 170q47 -10 87 -11q37 0 83 11q-10 -121 -15 -269.5t-5 -300.5q0 -106 18.5 -162.5t44.5 -84.5q29 -33 73 -54.5t104 -21.5q86 0 143 38t84 93q14 33 23.5 58.5t13.5 66.5t5 110.5t1 190.5v173t-4 163q23 -4 43 -7.5 t43 -3.5t43 3.5t41 7.5q-10 -160 -12.5 -309.5t-2.5 -313.5q0 -92 2.5 -181t6.5 -175q-45 10 -80 10t-80 -10q4 45 4 89v87h-4q-53 -96 -137 -146.5t-183 -50.5q-160 0 -251 88t-91 248zM156 1145l252 342h137l252 -342h-76l-246 215l-244 -215h-75z" />
<glyph unicode="&#xfc;" horiz-adv-x="964" d="M68 305q0 109 3 185.5t3 152.5q0 72 -1 156t-3 170q47 -10 86 -11q37 0 84 11q-10 -121 -15.5 -269.5t-5.5 -300.5q0 -106 18.5 -162.5t45.5 -84.5q29 -33 72.5 -54.5t103.5 -21.5q86 0 143 38t84 93q14 33 23.5 58.5t13.5 66.5t5 110.5t1 190.5v173t-4 163 q23 -4 43 -7.5t43 -3.5t43 3.5t41 7.5q-10 -160 -12 -309.5t-2 -313.5q0 -92 2 -181t6 -175q-45 10 -80 10t-80 -10q4 45 4 89v87h-4q-53 -96 -137 -146.5t-182 -50.5q-160 0 -251 88t-91 248zM176 1305q0 43 31 73.5t74 30.5t73.5 -30.5t30.5 -73.5t-30.5 -74t-73.5 -31 t-74 31t-31 74zM580 1305q0 43 30.5 73.5t73.5 30.5t73.5 -30.5t30.5 -73.5t-30.5 -74t-73.5 -31t-73.5 31t-30.5 74z" />
<glyph unicode="&#xfd;" horiz-adv-x="964" d="M18 969q51 -10 95 -11q43 0 94 11q63 -195 141 -388.5t164 -398.5q86 178 165 385t140 402q37 -10 68 -11q31 0 67 11q-14 -29 -46 -97.5t-76 -164t-96 -211t-106.5 -238.5t-107.5 -245t-98 -229.5t-79 -194.5t-50 -138q-37 10 -70 10t-69 -10q82 135 149.5 268.5 t124.5 268.5q-23 61 -58.5 149t-76.5 185.5t-84 199t-80 190.5t-66.5 156.5t-44.5 100.5zM346 1145l301 305q23 23 46.5 36t45.5 13q20 0 44 -16.5t24 -48.5q0 -37 -24.5 -58.5t-49.5 -38.5l-301 -192h-86z" />
<glyph unicode="&#xfe;" horiz-adv-x="1024" d="M86 -549q4 51 7 124t5 152.5t3 160.5t1 153v909q0 70 -1 152t-3 161.5t-5 152.5t-7 124q51 -10 92 -10t92 10q-4 -51 -7 -124t-5 -152.5t-3 -161.5t-1 -152v-182h4q14 33 42 71t69 71.5t99 56t136 22.5t154 -29.5t134 -91t94 -157t36 -226.5t-39 -227t-101.5 -160.5 t-142.5 -96.5t-159 -32q-115 0 -195 51.5t-127 149.5h-4v-129q0 -72 1 -153t3 -160.5t5 -152.5t7 -124q-51 10 -92 10t-92 -10zM254 471q0 -211 76 -318.5t223 -107.5q74 0 128 34t90 94t53.5 141t17.5 173q0 123 -25.5 203t-65.5 128t-91.5 66.5t-100.5 18.5 q-84 0 -141.5 -34.5t-94 -93t-53 -137.5t-16.5 -167z" />
<glyph unicode="&#xff;" horiz-adv-x="970" d="M27 969q51 -10 94 -11q43 0 94 11q63 -195 141 -388.5t164 -398.5q86 178 165 385t140 402q37 -10 68 -11q31 0 68 11q-14 -29 -46 -97.5t-76 -164t-96.5 -211t-106.5 -238.5t-107.5 -245t-98.5 -229.5t-79 -194.5t-50 -138q-37 10 -70 10t-69 -10q82 135 149.5 268.5 t124.5 268.5q-23 61 -58.5 149t-76.5 185.5t-84 199t-80 190.5t-66.5 156.5t-43.5 100.5zM188 1305q0 43 31 73.5t74 30.5t73.5 -30.5t30.5 -73.5t-30.5 -74t-73.5 -31t-74 31t-31 74zM592 1305q0 43 30.5 73.5t73.5 30.5t74 -30.5t31 -73.5t-31 -74t-74 -31t-73.5 31 t-30.5 74z" />
<glyph unicode="&#x152;" horiz-adv-x="2060" d="M70 672q0 184 56 325.5t154.5 237.5t233.5 145.5t295 49.5q129 0 220 -27t151.5 -63.5t94.5 -74.5t52 -63l4 4q0 49 -2 98.5t-6 98.5q86 -4 169 -7t167 -3t166 3t166 7q-10 -35 -11 -64q0 -29 11 -63q-31 6 -63 11t-84 10.5t-134 7.5t-211 2q-4 -90 -7 -179.5t-3 -179.5 v-168q125 0 202.5 1t126 3t76 5.5t56.5 5.5q-10 -31 -11 -58q0 -27 11 -57q-29 2 -57.5 5t-77 5t-125 3t-201.5 1v-207q0 -100 3 -200.5t7 -200.5q223 0 340 7t166 16q-4 -16 -7 -29.5t-3 -30.5q0 -16 3 -29.5t7 -29.5q-86 4 -172 7t-172 3q-88 0 -174 -3t-176 -7 q4 51 7 100t3 100l-4 5q-35 -37 -81 -78t-111.5 -75t-151.5 -56.5t-199 -22.5q-145 0 -274 49t-224.5 140.5t-150.5 222.5t-55 297zM270 696q0 -170 43 -293.5t116 -204.5t170 -120t206 -39q123 0 221 47t168 134t106.5 208t36.5 268q0 180 -38.5 305t-107.5 203t-162 114 t-202 36q-117 0 -218 -39t-177 -120t-119 -205t-43 -294z" />
<glyph unicode="&#x153;" horiz-adv-x="1837" d="M74 479q0 139 44 236.5t115.5 158t159.5 88t178 27.5q113 0 219.5 -42t176.5 -136q59 86 152 132t220 46q106 0 186.5 -33.5t133.5 -90t78.5 -132.5t25.5 -162q0 -20 -1 -39.5t-3 -39.5q-111 2 -219 4t-219 2q-68 0 -134.5 -2t-133.5 -4q-2 -16 -2 -29.5v-28.5 q0 -80 23.5 -149.5t68.5 -119.5t110.5 -80t151.5 -30q41 0 84 11.5t84 31t77 46t62 57.5l10 -6l-12 -101q-61 -49 -153.5 -87t-188.5 -38q-129 0 -230.5 48.5t-166.5 134.5q-72 -98 -178.5 -140.5t-221.5 -42.5q-90 0 -178 28t-159.5 88t-115.5 157.5t-44 236.5zM254 479 q0 -86 15.5 -166t52 -142t98 -99t151.5 -37q92 0 153.5 37t98.5 99t52.5 142t15.5 166t-15.5 166t-52.5 142.5t-98 99.5t-154 37q-90 0 -151.5 -37t-98 -99.5t-52 -142.5t-15.5 -166zM1057 569q63 -2 131.5 -4t134.5 -2q68 0 137.5 2t134.5 4q0 55 -9 117t-36.5 115t-77 88 t-129.5 35q-76 0 -128 -35t-85.5 -87t-51 -114.5t-21.5 -118.5z" />
<glyph unicode="&#x178;" horiz-adv-x="1193" d="M16 1403q29 -4 56.5 -7t56.5 -3t56.5 3t56.5 7q90 -176 186 -350t203 -359q47 74 98 162t101.5 180t98.5 185.5t89 181.5q45 -10 80 -10t80 10q-98 -150 -175 -270.5t-137.5 -219t-105.5 -177.5t-78 -142q0 -76 1 -162t3 -168t5 -154.5t7 -119.5q-27 4 -51 7t-49 3 t-49.5 -3t-50.5 -7q12 111 14 263t2 318q-20 35 -59 101.5t-87.5 148.5t-101.5 171t-101 169t-88 144.5t-61 97.5zM311 1657q0 43 31 73.5t74 30.5t73.5 -30.5t30.5 -73.5t-30.5 -74t-73.5 -31t-74 31t-31 74zM715 1657q0 43 30.5 73.5t73.5 30.5t74 -30.5t31 -73.5t-31 -74 t-74 -31t-73.5 31t-30.5 74z" />
<glyph unicode="&#x2c6;" horiz-adv-x="724" d="M41 1145l252 342h137l252 -342h-76l-246 215l-243 -215h-76z" />
<glyph unicode="&#x2dc;" horiz-adv-x="804" d="M63 1196q6 37 21.5 74t42.5 67.5t63.5 50t85.5 19.5q35 0 64 -10.5t86 -36.5q57 -29 83 -38t52 -9q47 0 76 30.5t41 71.5h59q-4 -25 -16 -61.5t-38 -72.5t-67 -60.5t-102 -24.5q-29 0 -64.5 10.5t-82.5 36.5q-53 29 -81 38t-53 9q-47 0 -68.5 -20.5t-39.5 -73.5h-62z" />
<glyph unicode="&#x2000;" horiz-adv-x="941" />
<glyph unicode="&#x2001;" horiz-adv-x="1882" />
<glyph unicode="&#x2002;" horiz-adv-x="941" />
<glyph unicode="&#x2003;" horiz-adv-x="1882" />
<glyph unicode="&#x2004;" horiz-adv-x="627" />
<glyph unicode="&#x2005;" horiz-adv-x="470" />
<glyph unicode="&#x2006;" horiz-adv-x="313" />
<glyph unicode="&#x2007;" horiz-adv-x="313" />
<glyph unicode="&#x2008;" horiz-adv-x="235" />
<glyph unicode="&#x2009;" horiz-adv-x="376" />
<glyph unicode="&#x200a;" horiz-adv-x="104" />
<glyph unicode="&#x2010;" d="M88 410v127h510v-127h-510z" />
<glyph unicode="&#x2011;" d="M88 410v127h510v-127h-510z" />
<glyph unicode="&#x2012;" d="M88 410v127h510v-127h-510z" />
<glyph unicode="&#x2013;" horiz-adv-x="1202" d="M88 424v96h1024v-96h-1024z" />
<glyph unicode="&#x2014;" horiz-adv-x="2224" d="M88 424v96h2048v-96h-2048z" />
<glyph unicode="&#x2018;" horiz-adv-x="360" d="M12 909q0 25 10.5 45.5t20.5 40.5l256 435l37 -15l-158 -497q-8 -27 -28.5 -52.5t-61.5 -25.5q-25 0 -50.5 16t-25.5 53z" />
<glyph unicode="&#x2019;" horiz-adv-x="360" d="M25 854l157 498q8 27 28.5 52.5t61.5 25.5q25 0 50.5 -16.5t25.5 -53.5q0 -25 -10 -45.5t-21 -40.5l-256 -434z" />
<glyph unicode="&#x201a;" horiz-adv-x="360" d="M25 -344l157 498q8 27 28.5 52t61.5 25q25 0 50.5 -16t25.5 -53q0 -25 -10 -45.5t-21 -40.5l-256 -434z" />
<glyph unicode="&#x201c;" horiz-adv-x="770" d="M43 909q0 25 10 45.5t21 40.5l256 435l37 -15l-158 -497q-8 -27 -28.5 -52.5t-61.5 -25.5q-25 0 -50.5 16t-25.5 53zM395 909q0 25 10.5 45.5t20.5 40.5l256 435l37 -15l-158 -497q-8 -27 -28.5 -52.5t-61.5 -25.5q-25 0 -50.5 16t-25.5 53z" />
<glyph unicode="&#x201d;" horiz-adv-x="772" d="M53 854l158 498q8 27 28.5 52.5t61.5 25.5q25 0 50.5 -16.5t25.5 -53.5q0 -25 -10.5 -45.5t-20.5 -40.5l-256 -434zM406 854l157 498q8 27 28.5 52.5t61.5 25.5q25 0 50.5 -16.5t25.5 -53.5q0 -25 -10 -45.5t-21 -40.5l-256 -434z" />
<glyph unicode="&#x201e;" horiz-adv-x="772" d="M53 -344l158 498q8 27 28.5 52t61.5 25q25 0 50.5 -16t25.5 -53q0 -25 -10.5 -45.5t-20.5 -40.5l-256 -434zM406 -344l157 498q8 27 28.5 52t61.5 25q25 0 50.5 -16t25.5 -53q0 -25 -10 -45.5t-21 -40.5l-256 -434z" />
<glyph unicode="&#x2022;" horiz-adv-x="819" d="M61 696q0 72 28 135.5t75 110.5t110.5 74.5t135.5 27.5t135 -27.5t110 -74.5t75 -110.5t28 -135.5t-28 -135t-75 -110.5t-110.5 -75t-134.5 -27.5q-72 0 -135.5 27.5t-110.5 75t-75 110.5t-28 135z" />
<glyph unicode="&#x2026;" horiz-adv-x="1765" d="M84 92q0 47 35 82t82 35t81.5 -35t34.5 -82t-34.5 -82t-81.5 -35t-82 35t-35 82zM766 92q0 47 35 82t82 35t81.5 -35t34.5 -82t-34.5 -82t-81.5 -35t-82 35t-35 82zM1448 92q0 47 35 82t82 35t81.5 -35t34.5 -82t-34.5 -82t-81.5 -35t-82 35t-35 82z" />
<glyph unicode="&#x202f;" horiz-adv-x="376" />
<glyph unicode="&#x2039;" horiz-adv-x="403" d="M10 475l258 383q10 -20 30.5 -35.5t45.5 -19.5l-227 -326l217 -340q-25 -4 -47.5 -19.5t-30.5 -33.5z" />
<glyph unicode="&#x203a;" horiz-adv-x="399" d="M55 147l228 326l-217 340q25 4 47 19.5t30 33.5l246 -391l-258 -383q-10 20 -30.5 35.5t-45.5 19.5z" />
<glyph unicode="&#x205f;" horiz-adv-x="470" />
<glyph unicode="&#x20ac;" horiz-adv-x="1181" d="M35 506q20 53 31 117q33 -6 112 -11v41q0 23 1 43.5t3 40.5q-102 -4 -147 -12q20 53 31 117q35 -6 129 -11q23 117 73.5 216.5t123.5 172t165 114.5t197 42q90 0 188 -29.5t170 -72.5q-16 -41 -26.5 -81t-20.5 -81l-31 -2q-25 43 -58.5 76t-71.5 55.5t-79 34.5t-77 12 q-133 0 -233.5 -112.5t-133.5 -346.5h340q57 0 114.5 1t104.5 12q-10 -20 -19.5 -57t-13.5 -60q-43 8 -96 10t-102 2h-336q-2 -27 -3 -54.5t-1 -55.5v-17h290q57 0 114.5 1t105.5 12q-10 -20 -19.5 -57.5t-13.5 -59.5q-43 8 -96.5 10t-102.5 2h-272q12 -109 45 -192.5 t82 -142t111.5 -89.5t131.5 -31q82 0 164 40t154 118l16 -24q-12 -59 -18 -119q-25 -23 -65 -42.5t-87 -32.5t-98 -21.5t-96 -8.5q-104 0 -193.5 37t-159 106.5t-114.5 171t-62 230.5q-106 -4 -151 -12z" />
<glyph unicode="&#x2122;" horiz-adv-x="1781" d="M55 1327q10 20 11 39q0 16 -11 37q80 -4 159 -7t159 -3t158.5 3t158.5 7q-10 -20 -10 -37q0 -18 10 -39q-66 4 -132 7t-132 3v-288q0 -123 3 -243t7 -243q-35 10 -63 10q-29 0 -64 -10q4 82 7 192.5t3 276.5v305q-66 0 -132 -3t-132 -7zM719 563q27 125 48 267.5 t42 289.5l39 295h20q53 -117 113.5 -232.5t128.5 -236.5l107 -188h4l104 184q66 117 131.5 235.5t128.5 237.5h17l24 -260q6 -70 15.5 -147.5t19.5 -156.5t20.5 -152.5t20.5 -135.5q-31 10 -57 10q-16 0 -29.5 -3t-30.5 -7q-4 84 -9 184.5t-22 223.5l-28 221h-4l-86 -156 q-33 -57 -67 -121.5t-65.5 -126t-57 -117t-42.5 -93.5h-16q-45 102 -102.5 206.5t-112.5 210.5l-99 187h-4l-26 -228q-12 -98 -19.5 -195t-9.5 -196q-27 10 -47 10q-23 0 -49 -10z" />
<glyph unicode="&#xe000;" horiz-adv-x="972" d="M0 0v973h973v-973h-973z" />
<glyph unicode="&#xfb01;" horiz-adv-x="1038" d="M41 877q2 10 3 20t1 21q0 10 -1 20t-3 20q37 0 75 -1t72 -1q0 59 12.5 129t36 137.5t56.5 128t74 101.5q37 37 93 65.5t115 28.5q23 0 41 -6q-2 -41 -5 -82t-3 -82l-12 -6q-49 31 -113 31q-45 0 -76.5 -17.5t-52 -45t-30 -65.5t-9.5 -77q0 -37 7.5 -106.5t17.5 -133.5 q53 0 105.5 1t105.5 1q-2 -10 -3 -20t-1 -20t1 -20.5t3 -20.5q-53 2 -105.5 4t-105.5 2q0 -223 1 -444.5t7 -448.5q-47 10 -88 10q-39 0 -90 -10q14 227 16 447t2 446q-37 0 -73.5 -2t-73.5 -4zM756 1325q0 43 30.5 74t73.5 31t74 -31t31 -74t-31 -73.5t-74 -30.5 t-73.5 30.5t-30.5 73.5zM768 -10q10 88 13 189.5t3 193.5v213q0 92 -3 193.5t-13 189.5q51 -10 92 -11q41 0 92 11q-10 -88 -13 -189.5t-3 -193.5v-213q0 -92 3 -193.5t13 -189.5q-51 10 -92 10t-92 -10z" />
<glyph unicode="&#xfb02;" horiz-adv-x="1050" d="M41 877q2 10 3 20t1 21q0 10 -1 20t-3 20q37 0 75 -1t72 -1q0 59 12.5 129t36 137.5t56.5 128t74 101.5q37 37 93 65.5t115 28.5q23 0 41 -6q-2 -41 -5 -82t-3 -82l-12 -6q-49 31 -113 31q-45 0 -76.5 -17.5t-52 -45t-30 -65.5t-9.5 -77q0 -37 7.5 -106.5t17.5 -133.5 q53 0 105.5 1t105.5 1q-2 -10 -3 -20t-1 -20t1 -20.5t3 -20.5q-53 2 -105.5 4t-105.5 2q0 -223 1 -444.5t7 -448.5q-47 10 -88 10q-39 0 -90 -10q14 227 16 447t2 446q-37 0 -73.5 -2t-73.5 -4zM780 -10q4 51 7.5 123.5t5.5 152.5t3 161t1 153v370q0 70 -1 152t-3 161.5 t-5.5 152.5t-7.5 124q51 -10 92 -10t93 10q-4 -51 -7.5 -124t-5.5 -152.5t-3 -161.5t-1 -152v-370q0 -72 1 -153t3 -161t5.5 -152.5t7.5 -123.5q-51 10 -93 10q-41 0 -92 -10z" />
</font>
</defs>
</svg>
